<svg width="512" height="512" viewBox="0 0 512 512" fill="none" xmlns="http://www.w3.org/2000/svg">
<path d="M125.887 235.044C130.384 200.95 160.522 170.09 215.65 143.198L225.577 138.355L184.878 63.2148L175.69 67.8718C59.111 126.967 0 210.482 0 316.1C0 352.542 11.568 384.016 34.385 409.65C57.522 435.641 85.6 448.82 117.845 448.82C146.818 448.82 171.386 438.503 190.866 418.152C210.219 397.932 220.032 372.817 220.032 343.503C220.032 315.803 210.12 291.117 190.571 270.131C173.329 251.62 151.603 239.845 125.887 235.044ZM175.57 403.511C160.024 419.752 141.142 427.646 117.845 427.646C91.54 427.646 69.414 417.154 50.203 395.571C30.669 373.627 21.173 347.632 21.173 316.099C21.173 267.692 34.804 223.989 61.685 186.206C87.334 150.157 125.804 118.33 176.125 91.5058L196.514 129.148C135.194 161.282 104.125 199.91 104.125 244.072V253.528L113.52 254.592C138.828 257.457 158.961 267.26 175.078 284.562C191.079 301.74 198.858 321.021 198.858 343.502C198.859 367.51 191.24 387.138 175.57 403.511Z" fill="#716FF2"/>
<path d="M413.206 235.076C417.649 200.954 447.539 170.078 502.225 143.183L512 138.376L472.312 63.1816L463.033 67.8636C345.921 126.956 286.541 210.475 286.541 316.101C286.541 352.566 298.257 384.057 321.362 409.698C344.755 435.657 372.949 448.82 405.168 448.82C434.177 448.82 458.632 438.483 477.853 418.095C496.909 397.883 506.572 372.787 506.572 343.503C506.572 315.802 496.66 291.116 477.113 270.131C459.906 251.66 438.442 239.895 413.206 235.076ZM462.449 403.57C447.172 419.772 428.437 427.648 405.168 427.648C378.837 427.648 356.569 417.141 337.091 395.525C317.322 373.587 307.713 347.608 307.713 316.101C307.713 267.702 321.406 224.006 348.406 186.227C374.169 150.186 412.805 118.364 463.34 91.5426L483.176 129.127C422.298 161.272 391.451 199.908 391.451 244.074V253.509L400.822 254.591C425.61 257.452 445.496 267.256 461.621 284.564C477.622 301.741 485.399 321.02 485.399 343.504C485.4 367.542 477.892 387.191 462.449 403.57Z" fill="#716FF2"/>
</svg>
