<svg width="1383" height="1026" viewBox="0 0 1383 1026" fill="none" xmlns="http://www.w3.org/2000/svg">
<path d="M1274.11 249.406C1117.14 31.2523 785.555 -57.2403 459.45 38.0683C287.048 88.4552 120.821 189.413 38.4425 384.899C-108.817 734.352 200.373 845.959 402.551 881.529C500.313 898.729 592.388 927.621 676.527 966.958C827.901 1037.73 1095.84 1100.44 1297.89 805.647C1444.33 591.983 1378.67 394.718 1274.11 249.406Z" fill="white"/>
<g clip-path="url(#clip0)">
<path d="M1125.88 475.464H1116.05V863.809H1125.88V475.464Z" fill="#3F3D56"/>
<path d="M1216.61 524.954C1217.24 660.749 1121.7 771.274 1121.7 771.274C1121.7 771.274 1025.15 661.634 1024.52 525.839C1023.9 390.045 1119.43 279.519 1119.43 279.519C1119.43 279.519 1215.99 389.159 1216.61 524.954Z" fill="#3F3D56"/>
<path d="M929.3 658.186H924.244V857.921H929.3V658.186Z" fill="#3F3D56"/>
<path d="M975.967 683.639C976.289 753.482 927.151 810.328 927.151 810.328C927.151 810.328 877.491 753.937 877.169 684.095C876.848 614.252 925.985 557.406 925.985 557.406C925.985 557.406 975.645 613.797 975.967 683.639Z" fill="#3F3D56"/>
<path d="M1028.97 884.515C1104.63 884.515 1165.97 875.113 1165.97 863.515C1165.97 851.917 1104.63 842.515 1028.97 842.515C953.306 842.515 891.969 851.917 891.969 863.515C891.969 875.113 953.306 884.515 1028.97 884.515Z" fill="#3F3D56"/>
<path d="M1040.27 374.082C1028.66 354.469 1005.7 353.555 1005.7 353.555C1005.7 353.555 983.321 350.694 968.967 380.563C955.587 408.404 937.122 435.285 965.994 441.802L971.209 425.571L974.439 443.011C978.55 443.307 982.674 443.377 986.792 443.222C1017.71 442.224 1047.16 443.514 1046.21 432.419C1044.95 417.669 1051.44 392.952 1040.27 374.082Z" fill="#2F2E41"/>
<path d="M998.469 411.015C998.469 411.015 1013.47 432.015 1004.47 449.015C995.469 466.015 1025.47 484.015 1025.47 484.015L1047.47 436.015C1047.47 436.015 1021.47 419.015 1028.47 403.015L998.469 411.015Z" fill="#FBBEBE"/>
<path d="M1008.47 420.015C1022.83 420.015 1034.47 408.374 1034.47 394.015C1034.47 379.655 1022.83 368.015 1008.47 368.015C994.109 368.015 982.469 379.655 982.469 394.015C982.469 408.374 994.109 420.015 1008.47 420.015Z" fill="#FBBEBE"/>
<path d="M918.489 424.071L940.217 396.037C940.217 396.037 947.868 366.652 958.948 368.142C970.029 369.631 954.572 403.382 954.572 403.382L932.982 434.412L918.489 424.071Z" fill="#FBBEBE"/>
<path d="M1028.47 797.015L1035.47 834.015L1050.47 838.015L1046.47 794.015L1028.47 797.015Z" fill="#FBBEBE"/>
<path d="M1179.47 757.015L1206.47 794.015L1217.47 799.015L1226.47 784.015L1199.47 749.015L1179.47 757.015Z" fill="#FBBEBE"/>
<path d="M1022.47 468.015L1005.79 446.055C1005.79 446.055 973.469 452.015 970.469 455.015C967.469 458.015 978.469 513.015 978.469 513.015C978.469 513.015 980.469 528.015 989.469 536.015L998.469 542.015L1072.47 527.015L1075.25 494.089C1076.26 482.096 1074.76 470.024 1070.84 458.646C1066.92 447.267 1060.66 436.834 1052.47 428.015V428.015L1039.59 429.775L1022.47 468.015Z" fill="#575A89"/>
<path d="M974.469 457.015L969.469 455.015L946.469 453.015C946.469 453.015 938.469 451.015 940.469 447.015C942.469 443.015 944.469 442.015 940.469 441.015C936.469 440.015 935.469 439.015 936.469 436.015C937.469 433.015 943.469 427.015 943.469 427.015L926.469 413.015C926.469 413.015 925.549 413.665 924.061 414.87C915.621 421.703 888.914 446.359 908.469 471.015C931.469 500.015 958.469 517.015 980.469 511.015L974.469 457.015Z" fill="#575A89"/>
<path d="M996.469 537.015V551.015C996.469 551.015 987.469 568.015 990.469 584.015C993.469 600.015 994.469 608.015 994.469 608.015C994.795 621.622 997.155 635.105 1001.47 648.015C1008.47 668.015 985.469 799.015 1014.47 801.015C1043.47 803.015 1059.47 805.015 1068.47 795.015C1077.47 785.015 1053.47 613.015 1053.47 613.015C1053.47 613.015 1135.47 784.015 1152.47 777.015C1169.47 770.015 1212.47 754.015 1207.47 745.015C1202.47 736.015 1076.47 536.015 1076.47 536.015L1072.47 527.015L996.469 537.015Z" fill="#2F2E41"/>
<path d="M1044.47 827.015C1044.47 827.015 1028.47 826.015 1028.47 831.015C1028.47 836.015 1020.47 853.015 1020.47 853.015C1020.47 853.015 1014.47 873.015 1030.47 871.015C1046.47 869.015 1056.47 851.015 1056.47 851.015L1052.47 832.015L1044.47 827.015Z" fill="#2F2E41"/>
<path d="M1211.47 792.015C1211.47 792.015 1197.47 783.015 1198.47 789.015C1199.47 795.015 1200.47 811.015 1207.47 812.015C1214.47 813.015 1235.47 819.015 1236.47 821.015C1237.47 823.015 1261.47 831.015 1261.47 818.015C1261.47 805.015 1246.47 795.015 1246.47 795.015L1229.47 782.015C1229.47 782.015 1218.47 781.015 1216.47 788.015C1214.47 795.015 1211.47 792.015 1211.47 792.015Z" fill="#2F2E41"/>
<path d="M1008.51 370.258C1017.68 370.258 1025.11 362.825 1025.11 353.655C1025.11 344.485 1017.68 337.051 1008.51 337.051C999.338 337.051 991.904 344.485 991.904 353.655C991.904 362.825 999.338 370.258 1008.51 370.258Z" fill="#2F2E41"/>
<path d="M990.157 349.285C990.157 345.185 991.675 341.229 994.418 338.181C997.161 335.132 1000.93 333.207 1005.01 332.775C1004.43 332.713 1003.85 332.682 1003.26 332.682C998.861 332.682 994.638 334.431 991.524 337.545C988.41 340.659 986.661 344.882 986.661 349.285C986.661 353.689 988.41 357.912 991.524 361.026C994.638 364.14 998.861 365.889 1003.26 365.889C1003.85 365.888 1004.43 365.857 1005.01 365.796C1000.93 365.364 997.161 363.438 994.418 360.39C991.675 357.342 990.157 353.386 990.157 349.285V349.285Z" fill="#2F2E41"/>
<path d="M1035.14 372.191L1012.45 360.307L981.12 365.169L974.638 393.797L990.774 393.176L995.282 382.659V393.003L1002.73 392.717L1007.05 375.972L1009.75 393.797L1036.22 393.257L1035.14 372.191Z" fill="#2F2E41"/>
<path d="M1033.78 539.331L998.791 540.277C998.791 540.277 968.937 546.086 970.612 534.036C972.287 521.987 1001.41 526.201 1001.41 526.201L1033.29 521.338L1033.78 539.331Z" fill="#FBBEBE"/>
<path d="M1061.46 426.319C1063.22 426.053 1065.01 426.423 1066.52 427.364C1068.03 428.304 1069.16 429.752 1069.7 431.447C1076.55 453.031 1097.65 525.261 1076.68 535.17C1051.99 546.842 1033.97 546.329 1033.97 546.329L1024.32 522.581L1033.1 514.34L1042.48 454.065L1046.97 428.515L1061.46 426.319Z" fill="#575A89"/>
<path opacity="0.4" d="M1054.97 466.515L1050.97 506.515L1015.97 521.515L1054.97 512.515V466.515Z" fill="black"/>
<path d="M866.214 334.463C877.487 337.45 887.241 344.535 893.567 354.332L896.838 359.398L897.002 359.608L954.387 376.399C955.439 376.707 956.328 377.415 956.863 378.372C957.398 379.328 957.537 380.457 957.248 381.514L952.793 397.849C952.648 398.381 952.399 398.879 952.061 399.315C951.722 399.75 951.301 400.115 950.821 400.387C950.342 400.659 949.813 400.834 949.265 400.901C948.718 400.968 948.163 400.926 947.631 400.777L890.232 384.733L890.231 384.735L884.466 386.914C873.851 390.928 862.207 391.323 851.344 388.04V388.04L866.214 334.463Z" fill="#3F3D56"/>
<path d="M926.647 381.836C927.19 379.978 924.808 377.647 921.325 376.628C917.842 375.608 914.578 376.288 914.035 378.146C913.491 380.003 915.874 382.335 919.357 383.354C922.839 384.373 926.103 383.693 926.647 381.836Z" fill="#575A89"/>
<path d="M923.716 383.549C925.047 383.549 926.125 382.47 926.125 381.14C926.125 379.809 925.047 378.73 923.716 378.73C922.386 378.73 921.307 379.809 921.307 381.14C921.307 382.47 922.386 383.549 923.716 383.549Z" fill="#3F3D56"/>
<path d="M871.012 365.404C875.797 350.646 874.266 336.929 867.593 334.765C860.919 332.601 851.63 342.81 846.845 357.567C842.06 372.325 843.59 386.042 850.264 388.206C856.937 390.37 866.226 380.161 871.012 365.404Z" fill="#64ACF1"/>
<path opacity="0.4" d="M869.228 364.881C873.839 350.662 872.585 337.409 866.517 334.526C866.882 334.572 867.242 334.652 867.593 334.764C874.266 336.928 875.797 350.646 871.012 365.403C866.226 380.161 856.937 390.37 850.264 388.206C850.022 388.127 849.785 388.032 849.556 387.922C856.12 388.758 864.695 378.862 869.228 364.881Z" fill="black"/>
<path d="M866.969 334.515L736.731 233.49C713.7 215.496 691.6 196.343 670.516 176.104C633.39 140.717 582.992 112.424 524.315 97.36C381.753 60.7624 268.816 125.654 217.449 220.938C138.954 366.542 78.7984 602.818 426.843 477.048C502.959 449.543 580.007 446.619 638.429 432.131L849.969 388.515L866.969 334.515Z" fill="#64ACF1"/>
<path d="M475.969 164.515C479.835 164.515 482.969 161.381 482.969 157.515C482.969 153.649 479.835 150.515 475.969 150.515C472.103 150.515 468.969 153.649 468.969 157.515C468.969 161.381 472.103 164.515 475.969 164.515Z" fill="#F2F2F2"/>
<path d="M611.949 173.695H610.127V171.873H609.771V173.695H607.949V174.051H609.771V175.873H610.127V174.051H611.949V173.695Z" fill="#F2F2F2"/>
<path d="M794.949 325.695H793.127V323.873H792.771V325.695H790.949V326.051H792.771V327.873H793.127V326.051H794.949V325.695Z" fill="#F2F2F2"/>
<path d="M781.949 372.695H780.127V370.873H779.771V372.695H777.949V373.051H779.771V374.873H780.127V373.051H781.949V372.695Z" fill="#F2F2F2"/>
<path d="M222.949 412.695H221.127V410.873H220.771V412.695H218.949V413.051H220.771V414.873H221.127V413.051H222.949V412.695Z" fill="#F2F2F2"/>
<path d="M302.949 194.695H301.127V192.873H300.771V194.695H298.949V195.051H300.771V196.873H301.127V195.051H302.949V194.695Z" fill="#F2F2F2"/>
<path d="M613.949 380.695H612.127V378.873H611.771V380.695H609.949V381.051H611.771V382.873H612.127V381.051H613.949V380.695Z" fill="#F2F2F2"/>
<path d="M422.949 130.695H421.127V128.873H420.771V130.695H418.949V131.051H420.771V132.873H421.127V131.051H422.949V130.695Z" fill="#F2F2F2"/>
<path d="M423.649 274.673L421.379 275.023C422.089 279.563 422.649 284.203 423.059 288.793L425.349 288.593C424.939 283.943 424.369 279.263 423.649 274.673Z" fill="#E6E6E6"/>
<path d="M417.439 247.333L415.239 248.003C416.569 252.403 417.759 256.913 418.769 261.403L421.019 260.893C419.989 256.353 418.779 251.793 417.439 247.333Z" fill="#E6E6E6"/>
<path d="M407.529 221.113L405.439 222.073C407.359 226.263 409.159 230.563 410.789 234.863L412.939 234.053C411.289 229.703 409.479 225.343 407.529 221.113Z" fill="#E6E6E6"/>
<path d="M394.129 196.533L392.189 197.763C394.659 201.643 397.029 205.663 399.229 209.693L401.249 208.593C399.029 204.513 396.629 200.453 394.129 196.533Z" fill="#E6E6E6"/>
<path d="M377.469 174.003L375.719 175.493C378.699 178.993 381.599 182.653 384.339 186.353L386.179 184.983C383.419 181.243 380.489 177.543 377.469 174.003Z" fill="#E6E6E6"/>
<path d="M357.889 153.943L356.359 155.653C359.799 158.723 363.169 161.953 366.379 165.243L368.029 163.633C364.779 160.303 361.369 157.043 357.889 153.943Z" fill="#E6E6E6"/>
<path d="M335.769 136.723L334.479 138.623C338.299 141.193 342.079 143.933 345.709 146.763L347.129 144.953C343.449 142.093 339.629 139.323 335.769 136.723Z" fill="#E6E6E6"/>
<path d="M315.639 124.763V127.363C318.029 128.613 320.399 129.923 322.719 131.263L323.869 129.273C321.169 127.713 318.426 126.209 315.639 124.763Z" fill="#E6E6E6"/>
<path d="M423.804 302.978L426.103 302.937C426.145 305.258 426.148 307.591 426.112 309.873L423.814 309.837C423.849 307.581 423.846 305.274 423.804 302.978Z" fill="#E6E6E6"/>
<path d="M288.649 471.673L286.379 472.023C287.089 476.563 287.649 481.203 288.059 485.793L290.349 485.593C289.939 480.943 289.369 476.263 288.649 471.673Z" fill="#E6E6E6"/>
<path d="M282.439 444.333L280.239 445.003C281.569 449.403 282.759 453.913 283.769 458.403L286.019 457.893C284.989 453.353 283.779 448.793 282.439 444.333Z" fill="#E6E6E6"/>
<path d="M272.529 418.113L270.439 419.073C272.359 423.263 274.159 427.563 275.789 431.863L277.939 431.053C276.289 426.703 274.479 422.343 272.529 418.113Z" fill="#E6E6E6"/>
<path d="M259.129 393.533L257.189 394.763C259.659 398.643 262.029 402.663 264.229 406.693L266.249 405.593C264.029 401.513 261.629 397.453 259.129 393.533Z" fill="#E6E6E6"/>
<path d="M242.469 371.003L240.719 372.493C243.699 375.993 246.599 379.653 249.339 383.353L251.179 381.983C248.419 378.243 245.489 374.543 242.469 371.003Z" fill="#E6E6E6"/>
<path d="M222.889 350.943L221.359 352.653C224.799 355.723 228.169 358.953 231.379 362.243L233.029 360.633C229.779 357.303 226.369 354.043 222.889 350.943Z" fill="#E6E6E6"/>
<path d="M200.769 333.723L199.479 335.623C203.299 338.193 207.079 340.933 210.709 343.763L212.129 341.953C208.449 339.093 204.629 336.323 200.769 333.723Z" fill="#E6E6E6"/>
<path d="M180.639 321.763V324.363C183.029 325.613 185.399 326.923 187.719 328.263L188.869 326.273C186.169 324.713 183.426 323.209 180.639 321.763Z" fill="#E6E6E6"/>
<path d="M288.804 499.978L291.103 499.937C291.145 502.258 291.148 504.591 291.112 506.873L288.814 506.837C288.849 504.581 288.846 502.274 288.804 499.978Z" fill="#E6E6E6"/>
<path d="M750.649 372.673L748.379 373.023C749.089 377.563 749.649 382.203 750.059 386.793L752.349 386.593C751.939 381.943 751.369 377.263 750.649 372.673Z" fill="#E6E6E6"/>
<path d="M744.439 345.333L742.239 346.003C743.569 350.403 744.759 354.913 745.769 359.403L748.019 358.893C746.989 354.353 745.779 349.793 744.439 345.333Z" fill="#E6E6E6"/>
<path d="M734.529 319.113L732.439 320.073C734.359 324.263 736.159 328.563 737.789 332.863L739.939 332.053C738.289 327.703 736.479 323.343 734.529 319.113Z" fill="#E6E6E6"/>
<path d="M721.129 294.533L719.189 295.763C721.659 299.643 724.029 303.663 726.229 307.693L728.249 306.593C726.029 302.513 723.629 298.453 721.129 294.533Z" fill="#E6E6E6"/>
<path d="M704.469 272.003L702.719 273.493C705.699 276.993 708.599 280.653 711.339 284.353L713.179 282.983C710.419 279.243 707.489 275.543 704.469 272.003Z" fill="#E6E6E6"/>
<path d="M684.889 251.943L683.359 253.653C686.799 256.723 690.169 259.953 693.379 263.243L695.029 261.633C691.779 258.303 688.369 255.043 684.889 251.943Z" fill="#E6E6E6"/>
<path d="M662.769 234.723L661.479 236.623C665.299 239.193 669.079 241.933 672.709 244.763L674.129 242.953C670.449 240.093 666.629 237.323 662.769 234.723Z" fill="#E6E6E6"/>
<path d="M642.639 222.763V225.363C645.029 226.613 647.399 227.923 649.719 229.263L650.869 227.273C648.169 225.713 645.426 224.209 642.639 222.763Z" fill="#E6E6E6"/>
<path d="M750.804 400.978L753.103 400.937C753.145 403.258 753.148 405.591 753.112 407.873L750.814 407.837C750.849 405.581 750.846 403.274 750.804 400.978Z" fill="#E6E6E6"/>
<path d="M306.295 286.895H304.6V285.199H304.269V286.895H302.573V287.225H304.269V288.921H304.6V287.225H306.295V286.895Z" fill="#F2F2F2"/>
<path d="M286.754 389.252H285.059V387.556H284.728V389.252H283.032V389.583H284.728V391.278H285.059V389.583H286.754V389.252Z" fill="#F2F2F2"/>
<path d="M229.417 478.959H227.721V477.264H227.39V478.959H225.695V479.29H227.39V480.986H227.721V479.29H229.417V478.959Z" fill="#F2F2F2"/>
<path d="M388.919 365.183C372.525 340.814 365.407 311.378 368.855 282.212C372.304 253.046 386.09 226.081 407.714 206.208C429.338 186.335 457.368 174.868 486.721 173.889C516.074 172.909 544.806 182.481 567.707 200.868C590.608 219.256 606.161 245.241 611.546 274.113C616.931 302.984 611.792 332.829 597.06 358.236C582.327 383.643 558.978 402.929 531.246 412.598C503.514 422.266 473.235 421.675 445.9 410.934C444.128 417.259 440.815 423.046 436.258 427.777C431.701 432.508 426.042 436.035 419.787 438.042C413.533 440.05 406.878 440.475 400.419 439.28C393.96 438.084 387.898 435.306 382.776 431.193C377.654 427.081 373.631 421.762 371.069 415.714C368.506 409.666 367.484 403.076 368.092 396.536C368.701 389.995 370.922 383.708 374.556 378.236C378.191 372.764 383.126 368.279 388.919 365.183V365.183Z" fill="#3F3D56"/>
<path d="M490.128 226.437C518.282 226.437 537.652 242.053 537.652 264.501C537.652 279.366 530.445 289.652 516.555 297.835C503.492 305.418 499.062 310.974 499.062 320.584C499.062 321.362 498.909 322.134 498.611 322.853C498.313 323.573 497.876 324.227 497.325 324.777C496.774 325.328 496.121 325.765 495.401 326.063C494.681 326.361 493.91 326.515 493.131 326.515H478.738C477.201 326.515 475.724 325.918 474.618 324.85C473.512 323.782 472.864 322.327 472.811 320.79L472.785 320.058C471.509 304.592 476.914 294.982 490.504 287.024C503.192 279.441 508.522 274.636 508.522 265.327C508.522 256.017 499.513 249.185 488.326 249.185C479.824 249.185 473.095 253.324 470.009 260.081C468.924 262.368 467.207 264.297 465.06 265.639C462.914 266.981 460.428 267.68 457.897 267.654V267.654C448.145 267.654 441.702 257.283 446.263 248.664C453.477 235.028 468.699 226.437 490.128 226.437ZM470.383 355.119C470.383 346.485 477.59 339.653 486.449 339.653C495.383 339.653 502.591 346.41 502.591 355.119C502.591 363.828 495.383 370.585 486.449 370.585C477.515 370.585 470.383 363.828 470.383 355.119V355.119Z" fill="#64ACF1"/>
</g>
<defs>
<clipPath id="clip0">
<rect width="1104.47" height="797.515" fill="white" transform="translate(157 87)"/>
</clipPath>
</defs>
</svg>
