<svg width="512" height="512" viewBox="0 0 512 512" fill="none" xmlns="http://www.w3.org/2000/svg">
<path fill-rule="evenodd" clip-rule="evenodd" d="M501.51 69.5001L479.14 52.5901C467.59 43.8901 455.57 46.8701 442.52 57.9401L207 290.42L66.5099 231.19C50.7999 225.45 38.5099 224.88 29.8999 236.51L5.20994 270.39C1.06838 276.02 -0.698686 283.05 0.288675 289.969C1.27604 296.888 4.93897 303.143 10.4899 307.39L212.43 459.23C215.178 461.305 218.311 462.813 221.646 463.667C224.982 464.521 228.454 464.704 231.86 464.205C235.267 463.706 238.541 462.536 241.492 460.762C244.443 458.988 247.012 456.645 249.05 453.87L264.05 433.62C264.26 433.36 264.56 433.25 264.76 432.98L506.8 106.51C510.949 100.88 512.719 93.8455 511.729 86.9224C510.74 79.9994 507.07 73.7424 501.51 69.5001V69.5001Z" fill="#F1F1F2"/>
<g opacity="0.2">
<path opacity="0.2" fill-rule="evenodd" clip-rule="evenodd" d="M501.51 69.5001L479.14 52.5901C467.59 43.8901 455.57 46.8701 442.52 57.9401L207 290.42L66.5099 231.19C50.7999 225.45 38.5099 224.88 29.8999 236.51L5.20994 270.39C1.06838 276.02 -0.698686 283.05 0.288675 289.969C1.27604 296.888 4.93897 303.143 10.4899 307.39L212.43 459.23C215.178 461.305 218.311 462.813 221.646 463.667C224.982 464.521 228.454 464.704 231.86 464.205C235.267 463.706 238.541 462.536 241.492 460.762C244.443 458.988 247.012 456.645 249.05 453.87L264.05 433.62C264.26 433.36 264.56 433.25 264.76 432.98L506.8 106.51C510.949 100.88 512.719 93.8455 511.729 86.9224C510.74 79.9994 507.07 73.7424 501.51 69.5001V69.5001Z" fill="black"/>
</g>
<g style="mix-blend-mode:multiply">
<path fill-rule="evenodd" clip-rule="evenodd" d="M489 60L479.14 52.55C467.59 43.85 455.57 46.83 442.52 57.9L207 290.42L66.5101 231.19C50.8001 225.45 38.5101 224.88 29.9001 236.51L22.3301 246.9L193.33 352.9C204.81 360.06 221.23 358.08 229.83 348.5L244.78 331.86C244.99 331.64 245.29 331.56 245.49 331.33L486.79 63.09C487.618 62.1286 488.358 61.0944 489 60V60Z" fill="#00AE9D"/>
</g>
</svg>
