<svg width="24" height="24" viewBox="0 0 24 24" fill="none" xmlns="http://www.w3.org/2000/svg">
<path fill-rule="evenodd" clip-rule="evenodd" d="M23.5083 3.25756L22.4597 2.4649C21.9183 2.05709 21.3548 2.19678 20.7431 2.71568L9.70311 13.6132L3.11765 10.8368C2.38124 10.5677 1.80515 10.541 1.40155 11.0862L0.244208 12.6743C0.0500726 12.9382 -0.0327585 13.2677 0.013524 13.592C0.0598065 13.9164 0.231507 14.2096 0.491708 14.4087L9.95765 21.5262C10.0865 21.6234 10.2333 21.6941 10.3897 21.7341C10.546 21.7741 10.7088 21.7827 10.8684 21.7593C11.0281 21.736 11.1816 21.6811 11.3199 21.5979C11.4582 21.5148 11.5787 21.405 11.6742 21.2749L12.3773 20.3257C12.3872 20.3135 12.4012 20.3083 12.4106 20.2957L23.7562 4.9924C23.9507 4.7285 24.0337 4.39875 23.9873 4.07423C23.9409 3.74971 23.7689 3.45641 23.5083 3.25756V3.25756Z" fill="#57F2EB"/>
<g opacity="0.2">
<path opacity="0.2" fill-rule="evenodd" clip-rule="evenodd" d="M23.5083 3.25756L22.4597 2.4649C21.9183 2.05709 21.3548 2.19678 20.7431 2.71568L9.70311 13.6132L3.11765 10.8368C2.38124 10.5677 1.80515 10.541 1.40155 11.0862L0.244208 12.6743C0.0500726 12.9382 -0.0327585 13.2677 0.013524 13.592C0.0598065 13.9164 0.231507 14.2096 0.491708 14.4087L9.95765 21.5262C10.0865 21.6234 10.2333 21.6941 10.3897 21.7341C10.546 21.7741 10.7088 21.7827 10.8684 21.7593C11.0281 21.736 11.1816 21.6811 11.3199 21.5979C11.4582 21.5148 11.5787 21.405 11.6742 21.2749L12.3773 20.3257C12.3872 20.3135 12.4012 20.3083 12.4106 20.2957L23.7562 4.9924C23.9507 4.7285 24.0337 4.39875 23.9873 4.07423C23.9409 3.74971 23.7689 3.45641 23.5083 3.25756V3.25756Z" fill="black"/>
</g>
<g style="mix-blend-mode:multiply">
<path fill-rule="evenodd" clip-rule="evenodd" d="M22.922 2.81217L22.4598 2.46295C21.9184 2.05514 21.355 2.19482 20.7433 2.71373L9.70328 13.6131L3.11781 10.8367C2.38141 10.5676 1.80531 10.5409 1.40172 11.0861L1.04688 11.5731L9.0625 16.5419C9.60062 16.8775 10.3703 16.7847 10.7734 16.3356L11.4742 15.5556C11.4841 15.5453 11.4981 15.5415 11.5075 15.5308L22.8184 2.95701C22.8573 2.91194 22.8919 2.86347 22.922 2.81217V2.81217Z" fill="#57F2EB"/>
</g>
</svg>
