<svg width="512" height="512" viewBox="0 0 512 512" fill="none" xmlns="http://www.w3.org/2000/svg">
<path d="M384 477.701H128L127.45 476.751L0 256.001L128 34.3008H384L384.55 35.2508L512 256.001L384 477.701ZM130.19 473.911H381.81L507.62 256.001L381.81 38.0908H130.19L4.38 256.001L130.19 473.911Z" fill="#716FF2"/>
<path d="M319.791 323.699H192.211L193.601 319.189C204.741 283.029 225.171 270.429 240.351 266.189C242.435 265.614 244.552 265.167 246.691 264.849C249.847 264.341 253.052 264.203 256.241 264.439C259.461 264.136 262.709 264.305 265.881 264.939C279.951 267.179 305.491 277.199 318.401 319.149L319.791 323.699ZM201.791 316.699H310.291C298.151 282.159 276.791 273.699 264.821 271.839C263.136 271.565 261.436 271.395 259.731 271.329V271.879L255.611 271.379C252.976 271.194 250.327 271.318 247.721 271.749C245.865 272.027 244.029 272.418 242.221 272.919C229.341 276.519 212.171 287.049 201.751 316.729L201.791 316.699Z" fill="#716FF2"/>
<path d="M256 271.449C249.194 271.449 242.54 269.431 236.88 265.651C231.221 261.87 226.809 256.496 224.203 250.208C221.597 243.921 220.914 237.001 222.239 230.325C223.565 223.649 226.84 217.516 231.651 212.701C236.462 207.886 242.592 204.606 249.267 203.274C255.942 201.943 262.861 202.62 269.151 205.221C275.441 207.821 280.819 212.228 284.605 217.885C288.39 223.541 290.414 230.193 290.42 236.999C290.42 246.131 286.795 254.889 280.341 261.349C273.886 267.808 265.132 271.441 256 271.449V271.449ZM256 209.599C250.571 209.599 245.264 211.21 240.751 214.227C236.238 217.244 232.721 221.531 230.645 226.548C228.569 231.564 228.028 237.083 229.09 242.407C230.152 247.731 232.77 252.621 236.611 256.457C240.453 260.292 245.346 262.903 250.671 263.957C255.997 265.011 261.515 264.462 266.529 262.379C271.542 260.296 275.825 256.773 278.835 252.255C281.845 247.737 283.448 242.428 283.44 236.999C283.424 229.729 280.527 222.762 275.384 217.625C270.24 212.487 263.27 209.597 256 209.589V209.599Z" fill="#716FF2"/>
<path d="M383.881 298.15H303.401V291.15H374.321C363.411 260.57 344.421 253.09 333.761 251.39C331.3 250.95 328.794 250.815 326.301 250.99H325.901H325.481C323.142 250.833 320.794 250.943 318.481 251.32C316.822 251.554 315.179 251.888 313.561 252.32C305.421 254.57 293.771 260.5 284.561 275.93L278.561 272.35C289.001 255 302.331 248.26 311.701 245.66C313.591 245.138 315.511 244.73 317.451 244.44C320.248 243.999 323.085 243.868 325.911 244.05C328.919 243.86 331.939 244.021 334.911 244.53C347.671 246.53 370.841 255.65 382.541 293.64L383.881 298.15Z" fill="#716FF2"/>
<path d="M325.899 251C319.695 251 313.63 249.16 308.471 245.713C303.312 242.266 299.292 237.367 296.917 231.635C294.543 225.902 293.922 219.595 295.132 213.51C296.342 207.425 299.33 201.835 303.717 197.448C308.105 193.061 313.694 190.073 319.779 188.863C325.865 187.652 332.172 188.273 337.904 190.648C343.636 193.022 348.536 197.043 351.983 202.202C355.43 207.36 357.269 213.425 357.269 219.63C357.259 227.946 353.95 235.919 348.07 241.8C342.189 247.681 334.216 250.989 325.899 251V251ZM325.899 195.23C321.073 195.228 316.355 196.657 312.341 199.337C308.327 202.017 305.198 205.827 303.35 210.285C301.501 214.744 301.017 219.65 301.957 224.384C302.897 229.118 305.22 233.466 308.632 236.88C312.044 240.293 316.392 242.618 321.125 243.56C325.859 244.502 330.765 244.02 335.224 242.173C339.684 240.327 343.495 237.2 346.176 233.187C348.858 229.174 350.289 224.456 350.289 219.63C350.271 213.17 347.694 206.98 343.123 202.414C338.553 197.849 332.36 195.28 325.899 195.27V195.23Z" fill="#716FF2"/>
<path d="M208.599 298.149H128.119L129.509 293.639C139.589 260.889 158.129 249.479 171.899 245.639C173.789 245.116 175.71 244.709 177.649 244.419C180.498 243.959 183.391 243.831 186.269 244.039C189.21 243.764 192.175 243.923 195.069 244.509C204.069 245.939 220.969 251.509 233.509 272.509L227.509 276.089C216.999 258.439 203.449 252.929 193.999 251.419C192.615 251.193 191.22 251.046 189.819 250.979V251.519L185.689 251.019C183.351 250.862 181.002 250.972 178.689 251.349C177.03 251.583 175.387 251.917 173.769 252.349C162.319 255.519 147.049 264.869 137.689 291.129H208.599V298.149Z" fill="#716FF2"/>
<path d="M186.1 251C179.896 251 173.831 249.16 168.672 245.713C163.513 242.266 159.493 237.367 157.118 231.635C154.744 225.902 154.123 219.595 155.333 213.51C156.544 207.425 159.531 201.835 163.919 197.448C168.306 193.061 173.895 190.073 179.98 188.863C186.066 187.652 192.373 188.273 198.105 190.648C203.837 193.022 208.737 197.043 212.184 202.202C215.631 207.36 217.47 213.425 217.47 219.63C217.463 227.947 214.155 235.922 208.274 241.803C202.392 247.684 194.418 250.992 186.1 251V251ZM186.1 195.23C181.274 195.228 176.556 196.657 172.542 199.337C168.528 202.017 165.399 205.827 163.551 210.285C161.702 214.744 161.218 219.65 162.158 224.384C163.098 229.118 165.422 233.466 168.834 236.88C172.246 240.293 176.593 242.618 181.327 243.56C186.06 244.502 190.967 244.02 195.426 242.173C199.885 240.327 203.696 237.2 206.378 233.187C209.059 229.174 210.49 224.456 210.49 219.63C210.475 213.169 207.899 206.977 203.327 202.412C198.756 197.846 192.561 195.278 186.1 195.27V195.23Z" fill="#716FF2"/>
</svg>
