<svg width="512" height="512" viewBox="0 0 512 512" fill="none" xmlns="http://www.w3.org/2000/svg">
<path d="M256 512L32 384V128L256 0L480 128V384L256 512ZM39.88 379.43L256 502.9L472.12 379.43V132.57L256 9.1L39.88 132.57V379.43Z" fill="#716FF2"/>
<path d="M256 168C238.595 168 221.581 173.161 207.11 182.831C192.638 192.5 181.359 206.244 174.699 222.324C168.038 238.404 166.295 256.098 169.691 273.168C173.086 290.238 181.468 305.918 193.775 318.225C206.082 330.532 221.762 338.914 238.832 342.309C255.902 345.705 273.596 343.962 289.676 337.301C305.756 330.641 319.5 319.362 329.169 304.89C338.839 290.419 344 273.405 344 256C343.974 232.669 334.694 210.301 318.196 193.804C301.699 177.306 279.331 168.026 256 168V168ZM256 336C240.178 336 224.71 331.308 211.554 322.518C198.398 313.727 188.145 301.233 182.09 286.615C176.035 271.997 174.45 255.911 177.537 240.393C180.624 224.874 188.243 210.62 199.431 199.431C210.62 188.243 224.874 180.624 240.393 177.537C255.911 174.45 271.997 176.035 286.615 182.09C301.233 188.145 313.727 198.398 322.518 211.554C331.308 224.71 336 240.177 336 256C335.976 277.21 327.54 297.544 312.542 312.542C297.545 327.54 277.21 335.976 256 336V336ZM252 192H260V260H204V252H252V192Z" fill="#716FF2"/>
</svg>
