<svg width="1099" height="633" viewBox="0 0 1099 633" fill="none" xmlns="http://www.w3.org/2000/svg">
<g clip-path="url(#clip0)">
<rect x="175" y="26" width="825" height="433" fill="white"/>
<path d="M549.375 632.37C852.786 632.37 1098.75 618.224 1098.75 600.773C1098.75 583.323 852.786 569.177 549.375 569.177C245.964 569.177 0 583.323 0 600.773C0 618.224 245.964 632.37 549.375 632.37Z" fill="#F2F2F2"/>
<path d="M1000.29 0H174.968V26.257H1000.29V0Z" fill="white"/>
<path d="M197.053 19.5372C200.806 19.5372 203.848 16.4948 203.848 12.7417C203.848 8.98872 200.806 5.94629 197.053 5.94629C193.3 5.94629 190.257 8.98872 190.257 12.7417C190.257 16.4948 193.3 19.5372 197.053 19.5372Z" fill="#64ACF1"/>
<path d="M219.138 19.5372C222.891 19.5372 225.933 16.4948 225.933 12.7417C225.933 8.98872 222.891 5.94629 219.138 5.94629C215.385 5.94629 212.343 8.98872 212.343 12.7417C212.343 16.4948 215.385 19.5372 219.138 19.5372Z" fill="#64ACF1"/>
<path d="M241.223 19.5372C244.976 19.5372 248.019 16.4948 248.019 12.7417C248.019 8.98872 244.976 5.94629 241.223 5.94629C237.47 5.94629 234.428 8.98872 234.428 12.7417C234.428 16.4948 237.47 19.5372 241.223 19.5372Z" fill="#64ACF1"/>
<path d="M175.552 415.277L174.967 415.779V592.903H1000.29V281.779L990.449 282.525L175.552 415.277Z" fill="#3F3D56"/>
<path d="M464.999 175.641H234.529V184.934H464.999V175.641Z" fill="#3F3D56"/>
<path d="M464.999 196.086H234.529V205.379H464.999V196.086Z" fill="#3F3D56"/>
<path d="M312.591 216.53H234.529V225.823H312.591V216.53Z" fill="#3F3D56"/>
<path d="M934.999 433.641H704.529V442.934H934.999V433.641Z" fill="white"/>
<path d="M934.999 454.086H704.529V463.379H934.999V454.086Z" fill="white"/>
<path d="M782.591 474.53H704.529V483.823H782.591V474.53Z" fill="white"/>
<path d="M561.336 584.335C566.342 584.335 570.401 580.276 570.401 575.269C570.401 570.262 566.342 566.203 561.336 566.203C556.329 566.203 552.27 570.262 552.27 575.269C552.27 580.276 556.329 584.335 561.336 584.335Z" fill="#F2F2F2"/>
<path d="M587.626 585.242C592.633 585.242 596.692 581.183 596.692 576.176C596.692 571.169 592.633 567.11 587.626 567.11C582.619 567.11 578.561 571.169 578.561 576.176C578.561 581.183 582.619 585.242 587.626 585.242Z" fill="#F2F2F2"/>
<path d="M613.917 586.148C618.924 586.148 622.983 582.089 622.983 577.082C622.983 572.075 618.924 568.017 613.917 568.017C608.91 568.017 604.851 572.075 604.851 577.082C604.851 582.089 608.91 586.148 613.917 586.148Z" fill="#F2F2F2"/>
<path d="M587.709 583.428C591.715 583.428 594.962 580.181 594.962 576.175C594.962 572.17 591.715 568.923 587.709 568.923C583.704 568.923 580.457 572.17 580.457 576.175C580.457 580.181 583.704 583.428 587.709 583.428Z" fill="#3F3D56"/>
<path d="M388.591 282.014H310.529V299.824H388.591V282.014Z" fill="#3F3D56"/>
<path d="M852.591 523.014H774.529V540.824H852.591V523.014Z" fill="white"/>
<path opacity="0.3" d="M350 345.014C379.823 345.014 404 320.837 404 291.014C404 261.19 379.823 237.014 350 237.014C320.177 237.014 296 261.19 296 291.014C296 320.837 320.177 345.014 350 345.014Z" fill="#64ACF1"/>
<path opacity="0.3" d="M350 327.014C369.882 327.014 386 310.896 386 291.014C386 271.131 369.882 255.014 350 255.014C330.118 255.014 314 271.131 314 291.014C314 310.896 330.118 327.014 350 327.014Z" fill="#64ACF1"/>
<path d="M350 316.014C363.807 316.014 375 304.821 375 291.014C375 277.207 363.807 266.014 350 266.014C336.193 266.014 325 277.207 325 291.014C325 304.821 336.193 316.014 350 316.014Z" fill="#64ACF1"/>
<path opacity="0.3" d="M804.375 211.186C834.198 211.186 858.375 187.009 858.375 157.186C858.375 127.362 834.198 103.186 804.375 103.186C774.552 103.186 750.375 127.362 750.375 157.186C750.375 187.009 774.552 211.186 804.375 211.186Z" fill="#64ACF1"/>
<path opacity="0.3" d="M804.375 193.186C824.257 193.186 840.375 177.068 840.375 157.186C840.375 137.303 824.257 121.186 804.375 121.186C784.493 121.186 768.375 137.303 768.375 157.186C768.375 177.068 784.493 193.186 804.375 193.186Z" fill="#64ACF1"/>
<path d="M804.375 182.186C818.182 182.186 829.375 170.993 829.375 157.186C829.375 143.378 818.182 132.186 804.375 132.186C790.568 132.186 779.375 143.378 779.375 157.186C779.375 170.993 790.568 182.186 804.375 182.186Z" fill="#64ACF1"/>
<path opacity="0.3" d="M814 586.014C843.823 586.014 868 561.837 868 532.014C868 502.19 843.823 478.014 814 478.014C784.177 478.014 760 502.19 760 532.014C760 561.837 784.177 586.014 814 586.014Z" fill="#64ACF1"/>
<path opacity="0.3" d="M814 568.014C833.882 568.014 850 551.896 850 532.014C850 512.131 833.882 496.014 814 496.014C794.118 496.014 778 512.131 778 532.014C778 551.896 794.118 568.014 814 568.014Z" fill="#64ACF1"/>
<path d="M814 557.014C827.807 557.014 839 545.821 839 532.014C839 518.207 827.807 507.014 814 507.014C800.193 507.014 789 518.207 789 532.014C789 545.821 800.193 557.014 814 557.014Z" fill="#64ACF1"/>
<path d="M89.9221 109.361L112.148 110.223L113.256 81.6469L91.0302 80.785L89.9221 109.361Z" fill="#64ACF1"/>
<path d="M191.29 180.865C191.29 180.865 222.069 166.159 221.576 178.859C221.084 191.56 190.551 199.915 190.551 199.915L191.29 180.865Z" fill="#FFB9B9"/>
<path d="M174.403 288.325C174.403 288.325 188.925 323.866 194.29 349.513C199.655 375.16 207.826 410.456 197.316 435.487C186.805 460.518 156.924 534.086 156.616 542.024C156.308 549.962 159.175 558.023 152.825 557.776C146.475 557.53 111.918 546.65 110.515 541.826C109.113 537.002 122.305 524.794 122.305 524.794L154.883 422.712L120.893 356.207L96.3769 455.422L91.575 579.25C91.575 579.25 68.0081 571.977 64.5868 578.204C64.5868 578.204 54.028 563.485 52.6867 557.073C51.3454 550.661 57.6732 428.482 57.6732 428.482C57.6732 428.482 36.0409 289.319 53.5039 289.996C70.9669 290.673 139.367 248.808 174.403 288.325Z" fill="#2F2E41"/>
<path d="M153.071 551.426C153.071 551.426 169.18 587.029 170.706 588.678C172.232 590.327 182.729 606.633 174.791 606.326C166.854 606.018 148.111 597.341 134.316 584.087C120.52 570.832 102.331 547.868 103.981 546.342C105.63 544.816 116.927 540.484 116.927 540.484L153.071 551.426Z" fill="#2F2E41"/>
<path d="M88.7076 571.189C88.7076 571.189 89.6795 587.126 92.6084 593.6C95.5372 600.073 95.1678 609.598 87.2301 609.29C79.2924 608.983 58.7775 605.007 58.7775 605.007C58.7775 605.007 57.5593 595.42 59.2084 593.894C60.8575 592.368 67.8849 575.152 64.8945 570.266C61.9041 565.38 88.7076 571.189 88.7076 571.189Z" fill="#2F2E41"/>
<path d="M76.9643 54.0059C76.9643 54.0059 60.0423 80.3785 53.4459 86.4824C46.8495 92.5863 65.4075 106.025 65.4075 106.025L98.6228 110.493C98.6228 110.493 98.2049 80.2684 99.9156 77.1549C101.626 74.0414 76.9643 54.0059 76.9643 54.0059Z" fill="#FFB9B9"/>
<path d="M105.835 88.5144C105.835 88.5144 98.9921 100.968 92.642 100.722C86.2918 100.476 53.4459 86.4828 52.043 81.6586C50.6401 76.8344 41.1633 116.215 41.1633 116.215L121.535 257.656L141.139 244.107L131.64 161.062L123.839 116.241L105.835 88.5144Z" fill="#64ACF1"/>
<path d="M49.0785 215.098C52.2845 221.804 54.2869 228.798 54.0092 235.958C53.9969 236.276 53.9846 236.593 53.9564 236.91C53.1958 251.603 47.783 268.596 45.8411 280.954C44.432 289.819 44.833 296.29 50.0208 297.811C62.598 301.478 48.187 304.099 96.8468 320.296C145.507 336.492 153.998 322.512 154.121 319.337C154.245 316.162 147.23 292.041 148.879 290.515C150.529 288.989 171.954 310.489 178.427 307.56C184.9 304.631 179.166 288.509 179.166 288.509C179.166 288.509 164.583 254.555 164.891 246.618C165.199 238.68 142.802 201.243 142.802 201.243L127.568 102.076C127.568 102.076 121.71 89.1298 113.834 87.2344C105.958 85.3391 99.4231 89.8554 99.4231 89.8554L112.603 118.985L126.508 170.402L124.182 189.391C124.182 189.391 108.012 155.376 97.3916 142.244C86.7713 129.113 64.1278 98.0264 64.1278 98.0264C64.1278 98.0264 58.8413 80.189 62.8321 74.8584C66.8234 69.5121 46.1854 68.7118 37.3858 90.6296C32.722 102.246 25.15 119.569 20.4066 135.698C16.1798 149.986 14.1831 163.344 18.3707 170.979C24.7709 182.643 40.8707 197.974 49.0785 215.098Z" fill="#575A89"/>
<path opacity="0.1" d="M18.3707 170.979C24.771 182.643 40.8707 197.974 49.0786 215.098C51.2223 207.374 53.8376 199.383 53.8376 199.383C53.8376 199.383 63.8685 145.714 34.1976 131.844C29.2814 131.369 24.3644 132.743 20.4066 135.698C16.1797 149.986 14.1831 163.344 18.3707 170.979Z" fill="black"/>
<path d="M136.157 167.597L161.311 174.932L196.237 176.286L199.83 206.634L142.432 210.768C142.432 210.768 128.096 170.464 136.157 167.597Z" fill="#575A89"/>
<path d="M95.1391 269.636C95.1391 269.636 128.791 275.219 121.11 285.346C113.429 295.472 83.6182 284.826 83.6182 284.826L95.1391 269.636Z" fill="#FFB9B9"/>
<path opacity="0.1" d="M53.9564 236.91C53.1958 251.603 47.783 268.597 45.8411 280.955C56.5612 291.101 66.7554 300.05 70.5973 300.199C78.535 300.507 91.2969 299.412 95.998 301.184C100.699 302.956 103.456 272.854 103.456 272.854C103.456 272.854 100.651 263.206 88.1349 257.951C79.6871 254.396 63.4939 244.753 53.9564 236.91Z" fill="black"/>
<path d="M34.567 122.319C34.567 122.319 7.70184 118.097 9.15319 162.672C10.6045 207.246 6.32134 235.699 17.1263 244.067C27.9313 252.436 63.0289 290.365 70.9666 290.673C78.9044 290.981 91.6663 289.886 96.3674 291.658C101.068 293.431 103.826 263.329 103.826 263.329C103.826 263.329 101.02 253.68 88.5043 248.425C75.9886 243.17 46.5024 224.537 46.7487 218.187C46.9949 211.837 54.207 189.858 54.207 189.858C54.207 189.858 64.2378 136.189 34.567 122.319Z" fill="#575A89"/>
<path d="M100.654 93.0568C119.958 93.0568 135.607 77.4081 135.607 58.1046C135.607 38.801 119.958 23.1523 100.654 23.1523C81.3508 23.1523 65.7021 38.801 65.7021 58.1046C65.7021 77.4081 81.3508 93.0568 100.654 93.0568Z" fill="#FFB9B9"/>
<path d="M124.189 8.00811C125.032 8.73446 126.041 9.24109 127.128 9.48289C127.673 9.5801 128.234 9.45763 128.69 9.14223C129.145 8.82683 129.457 8.3441 129.558 7.79943C130.357 9.45784 131.26 11.2254 132.892 12.0763C134.525 12.9273 137.05 12.2137 137.285 10.3877C137.523 11.7742 138.137 13.0689 139.059 14.1316C140.072 15.0974 141.909 15.3412 142.793 14.2564C142.078 18.1639 142.519 22.1823 142.295 26.1483C142.07 30.1142 141.013 34.3188 138.016 36.9267C133.647 40.73 127.075 39.7913 121.327 39.0708C120.458 38.8883 119.556 38.9377 118.712 39.2138C116.559 40.1308 116.657 43.1269 116.628 45.4663C116.452 49.5709 114.828 53.4804 112.043 56.5007C109.258 59.521 105.493 61.4566 101.416 61.9638C99.1342 62.3159 96.8062 61.7477 94.9434 60.3841C93.3113 59.0008 92.4777 56.7461 90.6075 55.7069C87.5655 54.0165 83.876 56.4817 81.6519 59.1585C79.4277 61.8352 77.2356 65.1278 73.7901 65.6178C69.2332 66.2658 65.7625 61.6218 64.0597 57.3456C61.7104 51.3522 60.5848 44.9491 60.7494 38.5138C60.914 32.0785 62.3654 25.7413 65.018 19.8758C74.533 -0.86524 107.036 -4.14585 124.189 8.00811Z" fill="#2F2E41"/>
<path d="M963.222 563.769C975.532 584.762 1000.36 593.073 1000.36 593.073C1000.36 593.073 1005.23 567.349 992.918 546.356C980.608 525.364 955.781 517.053 955.781 517.053C955.781 517.053 950.913 542.777 963.222 563.769Z" fill="#F2F2F2"/>
<path d="M970.903 556.442C992.192 568.233 1001.11 592.848 1001.11 592.848C1001.11 592.848 975.513 598.347 954.225 586.557C932.936 574.766 924.018 550.151 924.018 550.151C924.018 550.151 949.615 544.652 970.903 556.442Z" fill="#64ACF1"/>
</g>
<defs>
<clipPath id="clip0">
<rect width="1098.75" height="632.37" fill="white"/>
</clipPath>
</defs>
</svg>
