<svg width="1177" height="874" viewBox="0 0 1177 874" fill="none" xmlns="http://www.w3.org/2000/svg">
<path d="M1083.97 212.452C950.424 26.6217 668.322 -48.7591 390.883 32.4278C244.21 75.3488 102.79 161.348 32.7055 327.869C-92.5779 625.544 170.47 720.614 342.475 750.914C425.648 765.565 503.982 790.176 575.564 823.684C704.348 883.969 932.303 937.387 1104.2 686.275C1228.79 504.269 1172.92 336.233 1083.97 212.452Z" fill="white"/>
<g clip-path="url(#clip0)">
<path d="M742.5 464H257C252.493 463.995 248.172 462.202 244.985 459.015C241.798 455.828 240.005 451.507 240 447V212C240.005 207.493 241.798 203.172 244.985 199.985C248.172 196.798 252.493 195.005 257 195H742.5C747.007 195.005 751.328 196.798 754.515 199.985C757.702 203.172 759.495 207.493 759.5 212V447C759.495 451.507 757.702 455.828 754.515 459.015C751.328 462.202 747.007 463.995 742.5 464V464ZM257 197C253.023 197.004 249.21 198.586 246.398 201.398C243.586 204.21 242.004 208.023 242 212V447C242.004 450.977 243.586 454.79 246.398 457.602C249.21 460.414 253.023 461.996 257 462H742.5C746.477 461.996 750.29 460.414 753.102 457.602C755.914 454.79 757.496 450.977 757.5 447V212C757.496 208.023 755.914 204.21 753.102 201.398C750.29 198.586 746.477 197.004 742.5 197H257Z" fill="#3F3D56"/>
<path d="M333.25 253.5C338.221 253.5 342.25 249.471 342.25 244.5C342.25 239.529 338.221 235.5 333.25 235.5C328.279 235.5 324.25 239.529 324.25 244.5C324.25 249.471 328.279 253.5 333.25 253.5Z" fill="#CCCCCC"/>
<path d="M333.25 287.5C338.221 287.5 342.25 283.471 342.25 278.5C342.25 273.529 338.221 269.5 333.25 269.5C328.279 269.5 324.25 273.529 324.25 278.5C324.25 283.471 328.279 287.5 333.25 287.5Z" fill="#CCCCCC"/>
<path d="M333.25 321.5C338.221 321.5 342.25 317.471 342.25 312.5C342.25 307.529 338.221 303.5 333.25 303.5C328.279 303.5 324.25 307.529 324.25 312.5C324.25 317.471 328.279 321.5 333.25 321.5Z" fill="#CCCCCC"/>
<path d="M333.25 355.5C338.221 355.5 342.25 351.471 342.25 346.5C342.25 341.529 338.221 337.5 333.25 337.5C328.279 337.5 324.25 341.529 324.25 346.5C324.25 351.471 328.279 355.5 333.25 355.5Z" fill="#CCCCCC"/>
<path d="M484.75 423.5C489.721 423.5 493.75 419.471 493.75 414.5C493.75 409.529 489.721 405.5 484.75 405.5C479.779 405.5 475.75 409.529 475.75 414.5C475.75 419.471 479.779 423.5 484.75 423.5Z" fill="#CCCCCC"/>
<path d="M419.75 423.5C424.721 423.5 428.75 419.471 428.75 414.5C428.75 409.529 424.721 405.5 419.75 405.5C414.779 405.5 410.75 409.529 410.75 414.5C410.75 419.471 414.779 423.5 419.75 423.5Z" fill="#CCCCCC"/>
<path d="M618.75 423.5C623.721 423.5 627.75 419.471 627.75 414.5C627.75 409.529 623.721 405.5 618.75 405.5C613.779 405.5 609.75 409.529 609.75 414.5C609.75 419.471 613.779 423.5 618.75 423.5Z" fill="#CCCCCC"/>
<path d="M550.75 423.5C555.721 423.5 559.75 419.471 559.75 414.5C559.75 409.529 555.721 405.5 550.75 405.5C545.779 405.5 541.75 409.529 541.75 414.5C541.75 419.471 545.779 423.5 550.75 423.5Z" fill="#CCCCCC"/>
<path d="M674.25 245.5H378.25C377.985 245.5 377.73 245.395 377.543 245.207C377.355 245.02 377.25 244.765 377.25 244.5C377.25 244.235 377.355 243.98 377.543 243.793C377.73 243.605 377.985 243.5 378.25 243.5H674.25C674.515 243.5 674.77 243.605 674.957 243.793C675.145 243.98 675.25 244.235 675.25 244.5C675.25 244.765 675.145 245.02 674.957 245.207C674.77 245.395 674.515 245.5 674.25 245.5Z" fill="#CCCCCC"/>
<path d="M674.25 279.5H378.25C377.985 279.5 377.73 279.395 377.543 279.207C377.355 279.02 377.25 278.765 377.25 278.5C377.25 278.235 377.355 277.98 377.543 277.793C377.73 277.605 377.985 277.5 378.25 277.5H674.25C674.515 277.5 674.77 277.605 674.957 277.793C675.145 277.98 675.25 278.235 675.25 278.5C675.25 278.765 675.145 279.02 674.957 279.207C674.77 279.395 674.515 279.5 674.25 279.5Z" fill="#CCCCCC"/>
<path d="M674.25 313.5H378.25C377.985 313.5 377.73 313.395 377.543 313.207C377.355 313.02 377.25 312.765 377.25 312.5C377.25 312.235 377.355 311.98 377.543 311.793C377.73 311.605 377.985 311.5 378.25 311.5H674.25C674.515 311.5 674.77 311.605 674.957 311.793C675.145 311.98 675.25 312.235 675.25 312.5C675.25 312.765 675.145 313.02 674.957 313.207C674.77 313.395 674.515 313.5 674.25 313.5Z" fill="#CCCCCC"/>
<path d="M674.25 347.5H378.25C377.985 347.5 377.73 347.395 377.543 347.207C377.355 347.02 377.25 346.765 377.25 346.5C377.25 346.235 377.355 345.98 377.543 345.793C377.73 345.605 377.985 345.5 378.25 345.5H674.25C674.515 345.5 674.77 345.605 674.957 345.793C675.145 345.98 675.25 346.235 675.25 346.5C675.25 346.765 675.145 347.02 674.957 347.207C674.77 347.395 674.515 347.5 674.25 347.5Z" fill="#CCCCCC"/>
<path d="M434.25 381.5H405.25C403.924 381.498 402.654 380.971 401.716 380.034C400.779 379.096 400.252 377.826 400.25 376.5V349.5C400.252 348.174 400.779 346.904 401.716 345.966C402.654 345.029 403.924 344.502 405.25 344.5H434.25C435.576 344.502 436.846 345.029 437.784 345.966C438.721 346.904 439.248 348.174 439.25 349.5V376.5C439.248 377.826 438.721 379.096 437.784 380.034C436.846 380.971 435.576 381.498 434.25 381.5V381.5Z" fill="#64ACF1"/>
<path d="M499.25 381.5H470.25C468.924 381.498 467.653 380.971 466.716 380.034C465.779 379.096 465.252 377.826 465.25 376.5V315.5C465.252 314.174 465.779 312.904 466.716 311.966C467.653 311.029 468.924 310.502 470.25 310.5H499.25C500.576 310.502 501.846 311.029 502.784 311.966C503.721 312.904 504.248 314.174 504.25 315.5V376.5C504.248 377.826 503.721 379.096 502.784 380.034C501.846 380.971 500.576 381.498 499.25 381.5V381.5Z" fill="#64ACF1"/>
<path d="M565.25 381.5H536.25C534.924 381.498 533.653 380.971 532.716 380.034C531.779 379.096 531.252 377.826 531.25 376.5V281.5C531.252 280.174 531.779 278.904 532.716 277.966C533.653 277.029 534.924 276.502 536.25 276.5H565.25C566.576 276.502 567.846 277.029 568.784 277.966C569.721 278.904 570.248 280.174 570.25 281.5V376.5C570.248 377.826 569.721 379.096 568.784 380.034C567.846 380.971 566.576 381.498 565.25 381.5V381.5Z" fill="#64ACF1"/>
<path d="M633.25 381.5H604.25C602.924 381.498 601.654 380.971 600.716 380.034C599.779 379.096 599.252 377.826 599.25 376.5V248.5C599.252 247.174 599.779 245.904 600.716 244.966C601.654 244.029 602.924 243.502 604.25 243.5H633.25C634.576 243.502 635.847 244.029 636.784 244.966C637.721 245.904 638.248 247.174 638.25 248.5V376.5C638.248 377.826 637.721 379.096 636.784 380.034C635.847 380.971 634.576 381.498 633.25 381.5V381.5Z" fill="#64ACF1"/>
<path d="M903.453 673.345C894.46 665.746 888.998 653.742 890.431 642.057C891.863 630.371 900.735 619.628 912.244 617.147C923.752 614.665 936.871 621.535 940.367 632.777C942.291 611.102 944.507 588.52 956.031 570.062C966.465 553.349 984.538 541.39 1004.12 539.25C1023.71 537.111 1044.33 545.191 1056.55 560.651C1068.76 576.11 1071.75 598.585 1063.2 616.333C1056.9 629.408 1045.29 639.138 1033.12 647.054C993.808 672.419 946.659 682.734 900.347 676.101L903.453 673.345Z" fill="#6CC1FF"/>
<path d="M1037.18 545.639C1021.02 558.802 1006.19 573.525 992.915 589.593C972.137 614.654 955.323 642.751 943.059 672.907C942.162 675.107 945.734 676.064 946.622 673.889C966.687 624.88 998.721 581.683 1039.79 548.251C1041.64 546.749 1039.01 544.149 1037.18 545.639V545.639Z" fill="white"/>
<path d="M808.61 398.058C807.473 398.055 806.339 397.941 805.224 397.718H805.224C805.02 397.678 804.816 397.634 804.613 397.587L559.716 340.567C557.056 339.948 555.289 338.274 555.606 336.674C555.739 336.203 556 335.778 556.36 335.446C556.72 335.114 557.164 334.888 557.645 334.792C558.827 334.466 560.071 334.439 561.267 334.711L807.684 386.173C813.233 387.332 817.085 390.737 816.453 393.925C816.123 395.593 814.654 396.887 812.316 397.567C811.11 397.904 809.862 398.069 808.61 398.058Z" fill="#3F3D56"/>
<path d="M756.732 390.169C757.999 390.914 759.414 391.372 760.878 391.511C762.342 391.649 763.818 391.466 765.203 390.972C766.587 390.479 767.847 389.688 768.893 388.655C769.939 387.622 770.746 386.372 771.257 384.993L806.984 385.738L797.086 370.026L764.677 371.728C762.304 371.023 759.755 371.213 757.513 372.262C755.272 373.311 753.493 375.146 752.513 377.419C751.534 379.693 751.423 382.246 752.2 384.596C752.978 386.945 754.59 388.928 756.732 390.169V390.169Z" fill="#FFB8B8"/>
<path d="M772.25 384.461L772.064 373.51C772.051 372.38 772.461 371.286 773.213 370.443C773.966 369.6 775.007 369.069 776.132 368.955L840.333 362.759L893.823 345.221C895.438 344.692 897.141 344.489 898.835 344.623C900.529 344.758 902.179 345.229 903.689 346.007C905.199 346.785 906.54 347.856 907.633 349.157C908.725 350.458 909.549 351.963 910.055 353.585C910.56 355.207 910.739 356.913 910.579 358.605C910.42 360.297 909.926 361.94 909.126 363.438C908.326 364.937 907.235 366.262 905.919 367.336C904.602 368.41 903.085 369.211 901.456 369.693L842.249 387.223L776.863 388.884C775.874 388.908 774.905 388.606 774.105 388.026C773.305 387.445 772.718 386.618 772.434 385.671C772.318 385.278 772.256 384.871 772.25 384.461V384.461Z" fill="#3F3D56"/>
<path d="M867.258 666.782L854.998 666.781L849.166 619.493L867.26 619.494L867.258 666.782Z" fill="#FFB8B8"/>
<path d="M870.385 678.666L830.854 678.665V678.165C830.854 676.144 831.252 674.143 832.025 672.276C832.799 670.41 833.932 668.713 835.361 667.285C836.79 665.856 838.486 664.723 840.353 663.949C842.219 663.176 844.22 662.778 846.241 662.778H846.242L870.386 662.779L870.385 678.666Z" fill="#2F2E41"/>
<path d="M903.258 666.782L890.998 666.781L885.166 619.493L903.26 619.494L903.258 666.782Z" fill="#FFB8B8"/>
<path d="M906.385 678.666L866.854 678.665V678.165C866.854 676.144 867.252 674.143 868.025 672.276C868.799 670.41 869.932 668.713 871.361 667.285C872.79 665.856 874.486 664.723 876.353 663.949C878.219 663.176 880.22 662.778 882.241 662.778H882.242L906.386 662.779L906.385 678.666Z" fill="#2F2E41"/>
<path d="M911.486 475.674L908.558 649.368C908.549 649.918 908.427 650.46 908.198 650.961C907.97 651.461 907.641 651.909 907.231 652.277C906.822 652.644 906.341 652.923 905.819 653.097C905.297 653.27 904.745 653.334 904.197 653.284L889.851 651.98C888.91 651.894 888.029 651.478 887.366 650.806C886.702 650.133 886.298 649.247 886.225 648.305L877.826 539.96C877.806 539.706 877.69 539.468 877.501 539.297C877.312 539.125 877.064 539.032 876.809 539.038C876.554 539.043 876.31 539.145 876.128 539.324C875.946 539.503 875.839 539.744 875.83 539.999L871.632 650.825C871.592 651.859 871.154 652.838 870.409 653.555C869.664 654.273 868.669 654.674 867.635 654.674H852.249C851.23 654.674 850.25 654.285 849.508 653.587C848.766 652.889 848.318 651.935 848.256 650.918L837.486 474.674L901.486 458.674L911.486 475.674Z" fill="#2F2E41"/>
<path d="M865.065 312.577C878.629 312.577 889.626 301.581 889.626 288.016C889.626 274.451 878.629 263.455 865.065 263.455C851.5 263.455 840.504 274.451 840.504 288.016C840.504 301.581 851.5 312.577 865.065 312.577Z" fill="#FFB8B8"/>
<path d="M835.295 480.841C834.869 480.43 834.529 479.938 834.295 479.395C834.061 478.852 833.937 478.267 833.93 477.676L832.273 359.233C832.174 353.208 833.986 347.307 837.451 342.376C840.915 337.446 845.853 333.74 851.555 331.792C853.856 321.352 866.103 320.045 873.243 320.201C875.025 320.239 876.771 320.707 878.334 321.564C879.897 322.421 881.23 323.642 882.22 325.124L887.338 332.801L898.618 339.413C903.839 342.46 907.957 347.086 910.378 352.625C912.799 358.164 913.398 364.328 912.089 370.229L910.352 378.129C904.237 406.088 904.818 435.097 912.05 462.789L915.544 476.113C915.726 476.807 915.74 477.534 915.584 478.235C915.428 478.935 915.106 479.588 914.646 480.138C914.187 480.689 913.602 481.122 912.941 481.401C912.28 481.679 911.562 481.796 910.846 481.741L906.788 481.429C905.734 481.349 904.742 480.9 903.987 480.162C903.231 479.423 902.759 478.442 902.655 477.39L901.984 470.674C901.971 470.55 901.914 470.436 901.822 470.353C901.73 470.269 901.61 470.223 901.486 470.223C901.362 470.223 901.243 470.269 901.151 470.353C901.059 470.436 901.001 470.55 900.989 470.674L900.338 477.177C900.229 478.275 899.719 479.295 898.906 480.042C898.093 480.789 897.034 481.211 895.93 481.228L838.499 482.112C838.475 482.112 838.451 482.113 838.427 482.113C837.257 482.115 836.132 481.659 835.295 480.841V480.841Z" fill="#3F3D56"/>
<path d="M866.986 302.174C867.087 305.646 869.497 307.654 872.456 309.473C875.416 311.291 878.875 312.08 882.264 312.841C882.72 313.082 883.229 313.203 883.745 313.19C884.26 313.177 884.763 313.032 885.206 312.768C885.649 312.505 886.016 312.131 886.272 311.684C886.529 311.237 886.665 310.731 886.67 310.216L889.778 298.393C890.878 294.616 891.678 290.758 892.171 286.856C892.92 279.347 891.14 271.269 885.899 265.839C880.658 260.41 871.568 258.481 865.287 262.665C857.834 253.145 823.764 274.178 832.168 280.797C833.663 281.975 835.949 280.485 837.846 280.341C839.744 280.196 841.871 280.53 843.076 282.003C844.651 283.927 843.965 286.793 844.614 289.194C844.883 290.038 845.316 290.821 845.889 291.498C846.461 292.174 847.162 292.73 847.951 293.135C848.739 293.539 849.6 293.783 850.484 293.853C851.367 293.923 852.256 293.817 853.098 293.542C854.667 292.769 856.143 291.82 857.498 290.713C858.954 289.744 860.793 289.027 862.432 289.639C864.592 290.445 865.359 293.089 865.554 295.386C865.883 297.678 866.362 299.945 866.986 302.174V302.174Z" fill="#2F2E41"/>
<path d="M1048.93 679H667.931C667.666 679 667.412 678.895 667.224 678.707C667.036 678.52 666.931 678.265 666.931 678C666.931 677.735 667.036 677.48 667.224 677.293C667.412 677.105 667.666 677 667.931 677H1048.93C1049.2 677 1049.45 677.105 1049.64 677.293C1049.83 677.48 1049.93 677.735 1049.93 678C1049.93 678.265 1049.83 678.52 1049.64 678.707C1049.45 678.895 1049.2 679 1048.93 679Z" fill="#3F3D56"/>
<path opacity="0.2" d="M861.25 368L857.25 417L836.25 468L867.25 418L861.25 368Z" fill="black"/>
<path d="M831.34 486.992C832.486 486.072 833.416 484.912 834.066 483.593C834.715 482.274 835.067 480.828 835.097 479.359C835.128 477.889 834.835 476.43 834.241 475.086C833.646 473.741 832.764 472.543 831.657 471.576L845.036 438.44L826.833 442.116L816.919 473.019C815.419 474.987 814.692 477.437 814.877 479.906C815.062 482.374 816.146 484.688 817.923 486.411C819.7 488.133 822.048 489.144 824.521 489.251C826.993 489.358 829.42 488.555 831.34 486.992V486.992Z" fill="#FFB8B8"/>
<path d="M830.365 472.378L820.062 468.665C819 468.276 818.123 467.504 817.602 466.501C817.081 465.498 816.954 464.337 817.247 463.245L834.244 401.026L836.835 344.793C836.913 343.096 837.328 341.431 838.055 339.895C838.783 338.36 839.808 336.984 841.072 335.848C842.335 334.713 843.812 333.839 845.417 333.279C847.021 332.72 848.72 332.484 850.416 332.587C852.112 332.69 853.771 333.129 855.296 333.878C856.821 334.628 858.181 335.673 859.298 336.953C860.416 338.233 861.267 339.723 861.804 341.335C862.34 342.947 862.551 344.65 862.423 346.344L857.795 407.918L836.137 469.636C835.809 470.568 835.183 471.367 834.356 471.909C833.529 472.451 832.547 472.706 831.561 472.635C831.153 472.604 830.75 472.518 830.365 472.378Z" fill="#3F3D56"/>
<path d="M674.25 381.5H378.25C377.985 381.5 377.73 381.395 377.543 381.207C377.355 381.02 377.25 380.765 377.25 380.5C377.25 380.235 377.355 379.98 377.543 379.793C377.73 379.605 377.985 379.5 378.25 379.5H674.25C674.515 379.5 674.77 379.605 674.957 379.793C675.145 379.98 675.25 380.235 675.25 380.5C675.25 380.765 675.145 381.02 674.957 381.207C674.77 381.395 674.515 381.5 674.25 381.5Z" fill="#3F3D56"/>
</g>
<defs>
<clipPath id="clip0">
<rect width="828.078" height="484" fill="white" transform="translate(240 195)"/>
</clipPath>
</defs>
</svg>
