<svg width="512" height="512" viewBox="0 0 512 512" fill="none" xmlns="http://www.w3.org/2000/svg">
<path d="M0 256C0 114.62 114.62 0 256 0C397.38 0 512 114.63 512 256C512 397.37 397.37 512 256 512C114.63 512 0 397.38 0 256Z" fill="white"/>
<path d="M208.79 239.669C208.79 240.179 208.72 240.589 208.72 240.979C208.72 250.889 208.72 272.349 208.72 272.349H252.26C252.26 275.569 248.43 288.569 236.26 296.829C229.13 301.649 221.12 303.879 212.62 304.419C206.669 304.85 200.691 304.151 195 302.359C185.883 299.375 177.845 293.778 171.884 286.262C165.922 278.747 162.301 269.646 161.47 260.089C161.023 255.151 161.36 250.173 162.47 245.339C167.87 221.679 190.28 204.139 215.96 207.929C227.34 209.609 233.89 214.339 239.86 219.449C247.72 211.569 255.51 203.779 263.51 195.769C261.57 194.349 257.08 189.769 249.1 185.179C237.382 178.369 224.083 174.752 210.53 174.689C207.93 174.689 205.34 174.819 202.75 174.909C198.222 175.135 193.73 175.839 189.35 177.009C172.508 181.219 157.448 190.694 146.365 204.056C135.282 217.418 128.753 233.969 127.73 251.299C127.253 258.641 127.833 266.013 129.45 273.189C134.03 293.339 144.6 309.579 161.27 321.769C173.898 331.082 189.006 336.438 204.68 337.159C213.65 337.666 222.644 336.775 231.34 334.519C247.64 330.259 261.17 321.749 271.34 308.219C286.06 288.619 289.63 263.499 285.29 239.639L208.79 239.669Z" fill="#716FF2"/>
<path d="M383.62 240.749H356.07V213.189V212.369H355.25H334.68H333.86V213.189V240.749H306.31H305.5V241.559V262.109V262.939H306.31H333.86V290.489V291.299H334.68H355.25H356.07V290.489V262.939H383.62H384.43V262.109V241.559V240.749H383.62Z" fill="#716FF2"/>
</svg>
