<svg width="512" height="512" viewBox="0 0 512 512" fill="none" xmlns="http://www.w3.org/2000/svg">
<path d="M256 512L32 384V128L256 0L480 128V384L256 512ZM39.88 379.43L256 502.9L472.12 379.43V132.57L256 9.1L39.88 132.57V379.43Z" fill="white"/>
<path d="M172 208H196V184H172V208ZM180 192H188V200H180V192ZM172 248H196V224H172V248ZM180 232H188V240H180V232ZM172 288H196V264H172V288ZM180 272H188V280H180V272ZM172 328H196V304H172V328ZM180 312H188V320H180V312ZM340 192V200H212V192H340ZM212 232H340V240H212V232ZM212 272H340V280H212V272ZM212 312H340V320H212V312Z" fill="white"/>
</svg>
