<svg width="197" height="352" viewBox="0 0 197 352" fill="none" xmlns="http://www.w3.org/2000/svg">
<path d="M188.734 206.783C188.051 221.627 184.047 234.762 176.723 246.188C169.398 257.516 159.096 266.305 145.814 272.555C132.631 278.805 117.543 281.93 100.551 281.93C72.5234 281.93 50.4531 272.799 34.3398 254.537C18.2266 236.275 10.1699 210.494 10.1699 177.193V166.646C10.1699 145.748 13.7832 127.486 21.0098 111.861C28.334 96.1387 38.832 84.0293 52.5039 75.5332C66.1758 66.9395 81.9961 62.6426 99.9648 62.6426C125.844 62.6426 146.645 69.4785 162.367 83.1504C178.09 96.7246 187.025 115.475 189.174 139.4H137.904C137.514 126.412 134.242 117.086 128.09 111.422C121.938 105.758 112.562 102.926 99.9648 102.926C87.1719 102.926 77.7969 107.711 71.8398 117.281C65.8828 126.852 62.7578 142.135 62.4648 163.131V178.219C62.4648 200.973 65.2969 217.232 70.9609 226.998C76.7227 236.764 86.5859 241.646 100.551 241.646C112.367 241.646 121.4 238.863 127.65 233.297C133.9 227.73 137.221 218.893 137.611 206.783H188.734Z" fill="#1976D2"/>
<path d="M121.305 168.911C123.93 159.089 123.177 151.727 122.083 147.279C121.936 146.682 121.645 146.13 121.235 145.673C120.825 145.215 120.309 144.865 119.732 144.655C114.194 142.727 108.364 141.773 102.5 141.834C96.6365 141.773 90.8066 142.727 85.2685 144.655C84.6912 144.865 84.1747 145.215 83.7646 145.673C83.3545 146.131 83.0635 146.682 82.9172 147.279C81.8233 151.727 81.0711 159.089 83.6954 168.911C84.0431 170.201 84.0491 171.559 83.7129 172.852C83.3353 174.536 83.1661 176.259 83.209 177.984V194.986C83.2071 195.755 83.4433 196.505 83.8852 197.134C84.3272 197.763 84.9532 198.239 85.677 198.498C91.0968 200.318 96.7829 201.22 102.5 201.166C108.217 201.22 113.903 200.318 119.323 198.498C120.047 198.239 120.673 197.763 121.115 197.134C121.557 196.505 121.793 195.755 121.791 194.986V177.984C121.834 176.259 121.665 174.536 121.287 172.852C120.951 171.559 120.957 170.201 121.305 168.911V168.911Z" fill="#D4DEE1"/>
<path d="M115.469 150.264H89.5313C88.9046 150.264 88.3965 150.772 88.3965 151.398V159.18C88.3965 159.806 88.9046 160.314 89.5313 160.314H115.469C116.096 160.314 116.604 159.806 116.604 159.18V151.398C116.604 150.772 116.096 150.264 115.469 150.264Z" fill="#1976D2"/>
<path d="M105.094 165.178H99.9063C99.2796 165.178 98.7715 165.686 98.7715 166.312V171.5C98.7715 172.127 99.2796 172.635 99.9063 172.635H105.094C105.721 172.635 106.229 172.127 106.229 171.5V166.312C106.229 165.686 105.721 165.178 105.094 165.178Z" fill="#718090"/>
<path d="M115.469 165.178H110.281C109.655 165.178 109.147 165.686 109.147 166.312V171.5C109.147 172.127 109.655 172.635 110.281 172.635H115.469C116.096 172.635 116.604 172.127 116.604 171.5V166.312C116.604 165.686 116.096 165.178 115.469 165.178Z" fill="#718090"/>
<path d="M94.7188 165.178H89.5313C88.9046 165.178 88.3965 165.686 88.3965 166.312V171.5C88.3965 172.127 88.9046 172.635 89.5313 172.635H94.7188C95.3455 172.635 95.8536 172.127 95.8536 171.5V166.312C95.8536 165.686 95.3455 165.178 94.7188 165.178Z" fill="#718090"/>
<path d="M105.094 175.553H99.9063C99.2796 175.553 98.7715 176.061 98.7715 176.688V181.875C98.7715 182.502 99.2796 183.01 99.9063 183.01H105.094C105.721 183.01 106.229 182.502 106.229 181.875V176.688C106.229 176.061 105.721 175.553 105.094 175.553Z" fill="#718090"/>
<path d="M115.469 175.553H110.281C109.655 175.553 109.147 176.061 109.147 176.688V181.875C109.147 182.502 109.655 183.01 110.281 183.01H115.469C116.096 183.01 116.604 182.502 116.604 181.875V176.688C116.604 176.061 116.096 175.553 115.469 175.553Z" fill="#718090"/>
<path d="M94.7188 175.553H89.5313C88.9046 175.553 88.3965 176.061 88.3965 176.688V181.875C88.3965 182.502 88.9046 183.01 89.5313 183.01H94.7188C95.3455 183.01 95.8536 182.502 95.8536 181.875V176.688C95.8536 176.061 95.3455 175.553 94.7188 175.553Z" fill="#718090"/>
<path d="M105.094 185.928H99.9063C99.2796 185.928 98.7715 186.436 98.7715 187.062V192.25C98.7715 192.877 99.2796 193.385 99.9063 193.385H105.094C105.721 193.385 106.229 192.877 106.229 192.25V187.062C106.229 186.436 105.721 185.928 105.094 185.928Z" fill="#718090"/>
<path d="M115.469 185.928H110.281C109.655 185.928 109.147 186.436 109.147 187.062V192.25C109.147 192.877 109.655 193.385 110.281 193.385H115.469C116.096 193.385 116.604 192.877 116.604 192.25V187.062C116.604 186.436 116.096 185.928 115.469 185.928Z" fill="#718090"/>
<path d="M94.7188 185.928H89.5313C88.9046 185.928 88.3965 186.436 88.3965 187.062V192.25C88.3965 192.877 88.9046 193.385 89.5313 193.385H94.7188C95.3455 193.385 95.8536 192.877 95.8536 192.25V187.062C95.8536 186.436 95.3455 185.928 94.7188 185.928Z" fill="#718090"/>
</svg>
