<svg width="400" height="400" viewBox="0 0 400 400" fill="none" xmlns="http://www.w3.org/2000/svg">
<path d="M290.734 230.783C290.051 245.627 286.047 258.762 278.723 270.188C271.398 281.516 261.096 290.305 247.814 296.555C234.631 302.805 219.543 305.93 202.551 305.93C174.523 305.93 152.453 296.799 136.34 278.537C120.227 260.275 112.17 234.494 112.17 201.193V190.646C112.17 169.748 115.783 151.486 123.01 135.861C130.334 120.139 140.832 108.029 154.504 99.5332C168.176 90.9395 183.996 86.6426 201.965 86.6426C227.844 86.6426 248.645 93.4785 264.367 107.15C280.09 120.725 289.025 139.475 291.174 163.4H239.904C239.514 150.412 236.242 141.086 230.09 135.422C223.938 129.758 214.562 126.926 201.965 126.926C189.172 126.926 179.797 131.711 173.84 141.281C167.883 150.852 164.758 166.135 164.465 187.131V202.219C164.465 224.973 167.297 241.232 172.961 250.998C178.723 260.764 188.586 265.646 202.551 265.646C214.367 265.646 223.4 262.863 229.65 257.297C235.9 251.73 239.221 242.893 239.611 230.783H290.734Z" fill="white"/>
<path d="M218.393 190.08C221.018 180.258 220.265 172.896 219.171 168.448C219.024 167.851 218.733 167.299 218.323 166.842C217.913 166.384 217.397 166.034 216.82 165.823C211.282 163.896 205.452 162.942 199.588 163.003C193.724 162.942 187.895 163.896 182.356 165.823C181.779 166.034 181.263 166.384 180.853 166.842C180.443 167.3 180.152 167.851 180.005 168.448C178.911 172.896 178.159 180.258 180.783 190.08C181.131 191.37 181.137 192.728 180.801 194.021C180.423 195.705 180.254 197.428 180.297 199.153V216.155C180.295 216.924 180.531 217.674 180.973 218.303C181.415 218.932 182.041 219.408 182.765 219.666C188.185 221.487 193.871 222.389 199.588 222.335C205.305 222.389 210.991 221.487 216.411 219.666C217.135 219.408 217.761 218.932 218.203 218.303C218.645 217.674 218.881 216.924 218.879 216.155V199.153C218.922 197.428 218.753 195.705 218.375 194.021C218.039 192.728 218.045 191.37 218.393 190.08V190.08Z" fill="#D4DEE1"/>
<path d="M212.557 171.433H186.619C185.993 171.433 185.484 171.941 185.484 172.567V180.349C185.484 180.975 185.993 181.483 186.619 181.483H212.557C213.183 181.483 213.692 180.975 213.692 180.349V172.567C213.692 171.941 213.183 171.433 212.557 171.433Z" fill="white"/>
<path d="M202.182 186.347H196.994C196.368 186.347 195.859 186.855 195.859 187.481V192.669C195.859 193.296 196.368 193.804 196.994 193.804H202.182C202.808 193.804 203.317 193.296 203.317 192.669V187.481C203.317 186.855 202.808 186.347 202.182 186.347Z" fill="#718090"/>
<path d="M212.557 186.347H207.369C206.743 186.347 206.234 186.855 206.234 187.481V192.669C206.234 193.296 206.743 193.804 207.369 193.804H212.557C213.183 193.804 213.692 193.296 213.692 192.669V187.481C213.692 186.855 213.183 186.347 212.557 186.347Z" fill="#718090"/>
<path d="M191.807 186.347H186.619C185.993 186.347 185.484 186.855 185.484 187.481V192.669C185.484 193.296 185.993 193.804 186.619 193.804H191.807C192.433 193.804 192.942 193.296 192.942 192.669V187.481C192.942 186.855 192.433 186.347 191.807 186.347Z" fill="#718090"/>
<path d="M202.182 196.722H196.994C196.368 196.722 195.859 197.23 195.859 197.856V203.044C195.859 203.671 196.368 204.179 196.994 204.179H202.182C202.808 204.179 203.317 203.671 203.317 203.044V197.856C203.317 197.23 202.808 196.722 202.182 196.722Z" fill="#718090"/>
<path d="M212.557 196.722H207.369C206.743 196.722 206.234 197.23 206.234 197.856V203.044C206.234 203.671 206.743 204.179 207.369 204.179H212.557C213.183 204.179 213.692 203.671 213.692 203.044V197.856C213.692 197.23 213.183 196.722 212.557 196.722Z" fill="#718090"/>
<path d="M191.807 196.722H186.619C185.993 196.722 185.484 197.23 185.484 197.856V203.044C185.484 203.671 185.993 204.179 186.619 204.179H191.807C192.433 204.179 192.942 203.671 192.942 203.044V197.856C192.942 197.23 192.433 196.722 191.807 196.722Z" fill="#718090"/>
<path d="M202.182 207.097H196.994C196.368 207.097 195.859 207.605 195.859 208.231V213.419C195.859 214.046 196.368 214.554 196.994 214.554H202.182C202.808 214.554 203.317 214.046 203.317 213.419V208.231C203.317 207.605 202.808 207.097 202.182 207.097Z" fill="#718090"/>
<path d="M212.557 207.097H207.369C206.743 207.097 206.234 207.605 206.234 208.231V213.419C206.234 214.046 206.743 214.554 207.369 214.554H212.557C213.183 214.554 213.692 214.046 213.692 213.419V208.231C213.692 207.605 213.183 207.097 212.557 207.097Z" fill="#718090"/>
<path d="M191.807 207.097H186.619C185.993 207.097 185.484 207.605 185.484 208.231V213.419C185.484 214.046 185.993 214.554 186.619 214.554H191.807C192.433 214.554 192.942 214.046 192.942 213.419V208.231C192.942 207.605 192.433 207.097 191.807 207.097Z" fill="#718090"/>
</svg>
