<svg width="1576" height="360" viewBox="0 0 1576 360" fill="none" xmlns="http://www.w3.org/2000/svg">
<path d="M174.632 198.557C202.93 117.064 291.934 73.9401 373.427 102.238L442.604 126.259C475.249 137.595 492.524 173.248 481.188 205.894L475.512 222.24C451.394 291.694 375.539 328.447 306.084 304.33L209.657 270.846C180.023 260.556 164.342 228.191 174.632 198.557V198.557Z" fill="#716FF2" fill-opacity="0.5"/>
<path d="M150.632 210.557C178.93 129.064 267.934 85.9401 349.427 114.238L418.604 138.259C451.249 149.595 468.524 185.248 457.188 217.894L451.512 234.24C427.394 303.694 351.539 340.447 282.084 316.33L185.657 282.846C156.023 272.556 140.342 240.191 150.632 210.557V210.557Z" fill="#716FF2" fill-opacity="0.5"/>
<path d="M143.632 198.557C171.93 117.064 260.934 73.9401 342.427 102.238L411.604 126.259C444.249 137.595 461.524 173.248 450.188 205.894L444.512 222.24C420.394 291.694 344.539 328.447 275.084 304.33L178.657 270.846C149.023 260.556 133.342 228.191 143.632 198.557V198.557Z" fill="#716FF2" fill-opacity="0.3"/>
<path d="M160.269 135.481C203.202 60.6571 298.664 34.8046 373.488 77.7383L437.004 114.183C466.977 131.382 477.333 169.622 460.135 199.596L451.523 214.604C414.932 278.375 333.572 300.408 269.802 263.817L181.266 213.016C154.057 197.404 144.656 162.69 160.269 135.481V135.481Z" fill="#716FF2" fill-opacity="0.8"/>
<g filter="url(#filter0_d)">
<path d="M604.989 228.748C603.769 239.979 599.74 248.572 592.904 254.529C586.117 260.486 577.06 263.465 565.731 263.465C557.821 263.465 550.814 261.487 544.711 257.532C538.656 253.577 533.969 247.986 530.648 240.76C527.328 233.484 525.644 225.184 525.595 215.857V202.015C525.595 192.542 527.255 184.144 530.575 176.819C533.896 169.495 538.656 163.855 544.857 159.9C551.107 155.896 558.285 153.895 566.391 153.895C577.816 153.895 586.825 156.995 593.417 163.196C600.058 169.349 603.915 177.869 604.989 188.758H595.907C593.661 170.643 583.822 161.585 566.391 161.585C556.723 161.585 549.008 165.198 543.246 172.425C537.533 179.651 534.677 189.637 534.677 202.381V215.418C534.677 227.723 537.46 237.537 543.026 244.861C548.642 252.186 556.21 255.848 565.731 255.848C575.155 255.848 582.26 253.602 587.045 249.109C591.83 244.568 594.784 237.781 595.907 228.748H604.989ZM705.697 214.466C705.697 224.28 703.988 232.898 700.57 240.32C697.201 247.742 692.367 253.455 686.068 257.459C679.77 261.463 672.494 263.465 664.242 263.465C651.791 263.465 641.732 259.021 634.066 250.135C626.4 241.199 622.567 229.163 622.567 214.026V203.04C622.567 193.323 624.276 184.729 627.694 177.259C631.161 169.739 636.044 163.978 642.343 159.974C648.642 155.921 655.893 153.895 664.096 153.895C672.299 153.895 679.525 155.872 685.775 159.827C692.074 163.782 696.933 169.373 700.351 176.6C703.769 183.826 705.551 192.2 705.697 201.722V214.466ZM696.688 202.894C696.688 190.052 693.783 179.993 687.973 172.718C682.162 165.442 674.203 161.805 664.096 161.805C654.184 161.805 646.273 165.467 640.365 172.791C634.506 180.066 631.576 190.247 631.576 203.333V214.466C631.576 227.112 634.506 237.146 640.365 244.568C646.225 251.941 654.184 255.628 664.242 255.628C674.447 255.628 682.406 251.99 688.119 244.715C693.832 237.391 696.688 227.21 696.688 214.173V202.894ZM807.797 262H798.788L737.484 170.74V262H728.402V155.359H737.484L798.861 246.692V155.359H807.797V262ZM905.062 163.05H868.515V262H859.506V163.05H823.031V155.359H905.062V163.05ZM999.105 214.466C999.105 224.28 997.396 232.898 993.979 240.32C990.609 247.742 985.775 253.455 979.477 257.459C973.178 261.463 965.902 263.465 957.65 263.465C945.199 263.465 935.141 259.021 927.475 250.135C919.809 241.199 915.976 229.163 915.976 214.026V203.04C915.976 193.323 917.685 184.729 921.103 177.259C924.569 169.739 929.452 163.978 935.751 159.974C942.05 155.921 949.301 153.895 957.504 153.895C965.707 153.895 972.934 155.872 979.184 159.827C985.482 163.782 990.341 169.373 993.759 176.6C997.177 183.826 998.959 192.2 999.105 201.722V214.466ZM990.097 202.894C990.097 190.052 987.191 179.993 981.381 172.718C975.57 165.442 967.611 161.805 957.504 161.805C947.592 161.805 939.682 165.467 933.773 172.791C927.914 180.066 924.984 190.247 924.984 203.333V214.466C924.984 227.112 927.914 237.146 933.773 244.568C939.633 251.941 947.592 255.628 957.65 255.628C967.855 255.628 975.814 251.99 981.527 244.715C987.24 237.391 990.097 227.21 990.097 214.173V202.894ZM1101.21 262H1092.2L1030.89 170.74V262H1021.81V155.359H1030.89L1092.27 246.692V155.359H1101.21V262ZM1137.39 254.383H1190.05V262H1128.3V155.359H1137.39V254.383ZM1218.39 262H1209.38V155.359H1218.39V262ZM1326.79 262H1317.78L1256.48 170.74V262H1247.4V155.359H1256.48L1317.86 246.692V155.359H1326.79V262ZM1412.78 210.877H1362.9V254.383H1420.25V262H1353.89V155.359H1419.88V163.05H1362.9V203.26H1412.78V210.877Z" fill="#716FF2"/>
</g>
<defs>
<filter id="filter0_d" x="520.595" y="153.895" width="904.653" height="119.57" filterUnits="userSpaceOnUse" color-interpolation-filters="sRGB">
<feFlood flood-opacity="0" result="BackgroundImageFix"/>
<feColorMatrix in="SourceAlpha" type="matrix" values="0 0 0 0 0 0 0 0 0 0 0 0 0 0 0 0 0 0 127 0"/>
<feOffset dy="5"/>
<feGaussianBlur stdDeviation="2.5"/>
<feColorMatrix type="matrix" values="0 0 0 0 0.795833 0 0 0 0 0.778192 0 0 0 0 0.73283 0 0 0 1 0"/>
<feBlend mode="normal" in2="BackgroundImageFix" result="effect1_dropShadow"/>
<feBlend mode="normal" in="SourceGraphic" in2="effect1_dropShadow" result="shape"/>
</filter>
</defs>
</svg>
