<svg width="417" height="417" viewBox="0 0 417 417" fill="none" xmlns="http://www.w3.org/2000/svg">
<path d="M0 65.2897C0 46.689 15.0962 31.5928 33.697 31.5928H383.303C401.904 31.5928 417 46.689 417 65.2897C417 83.8905 401.904 98.9867 383.303 98.9867H33.697C15.0962 98.9867 0 83.8905 0 65.2897ZM383.303 174.805H33.697C15.0962 174.805 0 189.901 0 208.502C0 227.103 15.0962 242.199 33.697 242.199H383.303C401.904 242.199 417 227.103 417 208.502C417 189.901 401.921 174.805 383.303 174.805ZM383.303 318.017H33.697C15.0962 318.017 0 333.113 0 351.714C0 370.315 15.0962 385.411 33.697 385.411H383.303C401.904 385.411 417 370.315 417 351.714C417 333.113 401.921 318.017 383.303 318.017Z" fill="#1976D2"/>
</svg>
