<svg width="417" height="417" viewBox="0 0 417 417" fill="none" xmlns="http://www.w3.org/2000/svg">
<path d="M0 65.2907C0 46.69 15.0962 31.5938 33.697 31.5938H383.303C401.904 31.5938 417 46.69 417 65.2907C417 83.8915 401.904 98.9877 383.303 98.9877H33.697C15.0962 98.9877 0 83.8915 0 65.2907ZM383.303 174.806H33.697C15.0962 174.806 0 189.902 0 208.503C0 227.104 15.0962 242.2 33.697 242.2H383.303C401.904 242.2 417 227.104 417 208.503C417 189.902 401.921 174.806 383.303 174.806ZM383.303 318.018H33.697C15.0962 318.018 0 333.114 0 351.715C0 370.316 15.0962 385.412 33.697 385.412H383.303C401.904 385.412 417 370.316 417 351.715C417 333.114 401.921 318.018 383.303 318.018Z" fill="white"/>
</svg>
