<svg width="230" height="426" viewBox="0 0 230 426" fill="none" xmlns="http://www.w3.org/2000/svg">
<g clip-path="url(#clip0)">
<path d="M4.84269 224.164L201.419 420.196C207.859 426.615 218.287 426.604 224.716 420.163C231.141 413.722 231.125 403.289 224.683 396.865L39.8081 212.5L224.69 28.1364C231.131 21.7116 231.147 11.2849 224.723 4.84353C221.5 1.61453 217.277 3.692e-07 213.055 0C208.843 -3.682e-07 204.637 1.60373 201.42 4.81032L4.84269 200.838C1.74068 203.924 3.826e-07 208.124 0 212.5C-3.825e-07 216.876 1.74566 221.072 4.84269 224.164Z" fill="#333333"/>
</g>
<defs>
<clipPath id="clip0">
<rect width="230" height="426" fill="white"/>
</clipPath>
</defs>
</svg>
