<svg width="512" height="512" viewBox="0 0 512 512" fill="none" xmlns="http://www.w3.org/2000/svg">
<g clip-path="url(#clip0)">
<path d="M217.6 38.4C217.6 30.8052 219.852 23.381 224.072 17.0661C228.291 10.7513 234.288 5.82945 241.305 2.92304C248.322 0.016638 256.043 -0.74381 263.491 0.737863C270.94 2.21954 277.783 5.87678 283.153 11.2471C288.523 16.6175 292.18 23.4597 293.662 30.9085C295.144 38.3574 294.383 46.0784 291.477 53.0951C288.571 60.1117 283.649 66.109 277.334 70.3284C271.019 74.5479 263.595 76.8 256 76.8C245.819 76.7894 236.058 72.7403 228.859 65.5412C221.66 58.3421 217.611 48.5811 217.6 38.4V38.4ZM435.2 435.2C441.529 435.2 447.716 433.323 452.978 429.807C458.241 426.291 462.342 421.293 464.764 415.446C467.186 409.599 467.82 403.165 466.585 396.957C465.35 390.75 462.303 385.048 457.827 380.573C453.352 376.097 447.65 373.05 441.443 371.815C435.236 370.58 428.801 371.214 422.954 373.636C417.107 376.058 412.109 380.159 408.593 385.422C405.077 390.684 403.2 396.871 403.2 403.2C403.2 411.687 406.571 419.826 412.573 425.827C418.574 431.829 426.713 435.2 435.2 435.2ZM76.8 435.2C83.129 435.2 89.3159 433.323 94.5782 429.807C99.8406 426.291 103.942 421.293 106.364 415.446C108.786 409.599 109.42 403.165 108.185 396.957C106.95 390.75 103.903 385.048 99.4274 380.573C94.9521 376.097 89.2503 373.05 83.0429 371.815C76.8355 370.58 70.4014 371.214 64.5541 373.636C58.7069 376.058 53.7092 380.159 50.193 385.422C46.6768 390.684 44.8 396.871 44.8 403.2C44.8 411.687 48.1714 419.826 54.1726 425.827C60.1737 431.829 68.3131 435.2 76.8 435.2V435.2ZM192 153.6H320C321.681 153.6 323.345 153.269 324.898 152.626C326.451 151.982 327.862 151.04 329.051 149.851C330.24 148.662 331.182 147.251 331.826 145.698C332.469 144.145 332.8 142.481 332.8 140.8C332.8 129.26 330.191 117.87 325.17 107.48C320.148 97.0897 312.843 87.9693 303.8 80.8C297.813 87.5871 290.45 93.0227 282.201 96.7459C273.952 100.469 265.005 102.395 255.955 102.395C246.905 102.395 237.958 100.469 229.709 96.7459C221.46 93.0227 214.097 87.5871 208.11 80.8C199.067 87.9693 191.762 97.0897 186.74 107.48C181.718 117.87 179.11 129.26 179.11 140.8C179.11 142.489 179.444 144.16 180.093 145.719C180.742 147.278 181.693 148.693 182.891 149.883C184.089 151.073 185.511 152.014 187.074 152.652C188.637 153.29 190.312 153.612 192 153.6V153.6ZM481.17 437.8C475.82 444.941 468.881 450.737 460.901 454.729C452.922 458.721 444.122 460.8 435.2 460.8C426.278 460.8 417.478 458.721 409.499 454.729C401.519 450.737 394.58 444.941 389.23 437.8C379.662 444.924 371.891 454.186 366.539 464.846C361.186 475.507 358.399 487.271 358.4 499.2C358.4 502.595 359.749 505.851 362.149 508.251C364.55 510.651 367.805 512 371.2 512H499.2C502.595 512 505.851 510.651 508.251 508.251C510.651 505.851 512 502.595 512 499.2C512.001 487.271 509.214 475.507 503.861 464.846C498.509 454.186 490.738 444.924 481.17 437.8V437.8ZM122.77 437.8C117.42 444.941 110.481 450.737 102.501 454.729C94.522 458.721 85.7224 460.8 76.8 460.8C67.8777 460.8 59.078 458.721 51.0986 454.729C43.1193 450.737 36.1797 444.941 30.83 437.8C21.2619 444.924 13.4914 454.186 8.13857 464.846C2.78573 475.507 -0.00125925 487.271 4.26823e-07 499.2C4.26823e-07 502.595 1.34857 505.851 3.74903 508.251C6.1495 510.651 9.40523 512 12.8 512H140.8C144.195 512 147.451 510.651 149.851 508.251C152.251 505.851 153.6 502.595 153.6 499.2C153.601 487.271 150.814 475.507 145.461 464.846C140.109 454.186 132.338 444.924 122.77 437.8V437.8ZM353 335.18L268.8 275V204.8C268.8 201.405 267.451 198.15 265.051 195.749C262.65 193.349 259.395 192 256 192C252.605 192 249.35 193.349 246.949 195.749C244.549 198.15 243.2 201.405 243.2 204.8V275L159 335.18C156.426 337.218 154.733 340.167 154.272 343.418C153.811 346.668 154.616 349.972 156.522 352.645C158.427 355.319 161.287 357.158 164.511 357.782C167.734 358.407 171.074 357.769 173.84 356L256 297.33L338.16 356C340.926 357.769 344.266 358.407 347.489 357.782C350.713 357.158 353.573 355.319 355.478 352.645C357.384 349.972 358.189 346.668 357.728 343.418C357.267 340.167 355.574 337.218 353 335.18V335.18Z" fill="#716FF2"/>
</g>
<defs>
<clipPath id="clip0">
<rect width="512" height="512" fill="white"/>
</clipPath>
</defs>
</svg>
