<svg width="512" height="512" viewBox="0 0 512 512" fill="none" xmlns="http://www.w3.org/2000/svg">
<g clip-path="url(#clip0)">
<path d="M127.61 248.24C128.462 217.641 134.278 187.384 144.83 158.65H247.38V248.24H127.61ZM125.31 158.65H20.1203C8.64556 187.159 2.4449 217.515 1.82031 248.24H109.24C110.033 217.736 115.448 187.53 125.3 158.65H125.31ZM152.31 140.3H247.42V15.11C225.09 33.17 180.42 77.11 152.31 140.3ZM179.98 59.45C197.448 37.3559 217.464 17.4012 239.61 0C146.95 5.88 67.7703 61.4 28.3803 140.3H132.21C144.26 111.25 160.327 84.0347 179.94 59.45H179.98ZM384.39 248.24C383.556 217.639 377.74 187.379 367.17 158.65H264.63V248.24H384.39ZM386.7 158.65C396.561 187.528 401.983 217.735 402.78 248.24H510.18C509.553 217.515 503.352 187.16 491.88 158.65H386.7ZM359.7 140.3C331.63 77.15 286.9 33.17 264.58 15.11V140.3H359.7ZM332.06 59.45C351.678 84.0357 367.751 111.251 379.81 140.3H483.61C444.24 61.4 365.07 5.88 272.41 0C294.57 17.3938 314.592 37.3493 332.06 59.45V59.45ZM127.61 263.75C128.46 294.352 134.276 324.613 144.83 353.35H247.38V263.75H127.61ZM125.31 353.35C115.456 324.467 110.041 294.257 109.25 263.75H1.82031C2.44843 294.479 8.65244 324.838 20.1303 353.35H125.31ZM152.31 371.7C180.38 434.85 225.09 478.85 247.42 496.88V371.69L152.31 371.7ZM179.98 452.57C160.371 427.975 144.305 400.754 132.25 371.7H28.3803C67.7703 450.58 146.95 506.13 239.61 512C217.451 494.603 197.423 474.652 179.94 452.56L179.98 452.57ZM384.39 263.75H264.63V353.35H367.18C377.751 324.618 383.568 294.354 384.4 263.75H384.39ZM386.7 353.35H491.89C503.361 324.836 509.561 294.478 510.19 263.75H402.77C401.974 294.258 396.553 324.469 386.69 353.35H386.7ZM359.7 371.7H264.63V496.88C286.95 478.88 331.68 434.88 359.75 371.7H359.7ZM332.01 452.57C314.555 474.659 294.549 494.608 272.41 512C365.07 506.13 444.25 450.58 483.61 371.69H379.81C367.746 400.743 351.673 427.964 332.06 452.56L332.01 452.57Z" stroke="#001E53"/>
<path d="M379.71 371.999C379.861 371.899 380.018 371.809 380.18 371.729L378.09 374.999C378.32 375.399 383.87 371.659 383.87 371.659C384.08 372.019 377.35 376.659 377.81 377.419C378 377.749 388.42 371.239 388.44 371.279C388.46 371.319 374.91 381.119 375.12 381.489C375.89 382.819 392.03 371.489 392.12 371.659C393.22 373.559 373.83 383.829 374.05 384.209C374.05 384.209 395.2 370.209 395.98 371.549C397.31 373.859 372.76 386.779 372.98 387.189C374.64 390.069 399.56 371.479 399.72 371.749C399.72 371.749 370.16 387.539 371.54 389.929C371.54 389.929 402.96 370.929 403.32 371.579C404.96 374.429 367.32 389.659 369.51 393.399C371.4 396.669 406.75 371.899 406.75 371.899C408.3 374.579 367.47 397.289 367.47 397.289C369.74 401.219 411.7 371.749 411.7 371.749C413.57 374.999 365.76 397.949 366.7 399.499C367.42 400.739 414.46 371.929 414.46 371.929C417.17 376.629 365.26 402.169 365.26 402.169C367.85 406.659 417.37 372.079 417.37 372.079C417.37 372.079 361.23 400.779 363.67 404.999C365.53 408.219 419.27 366.189 422.18 371.219C425.74 377.389 361.82 406.949 362.48 408.099C366.63 415.289 421.48 366.359 424.82 372.099C426.25 374.579 360.68 410.859 360.68 410.859C362.68 414.379 425.68 365.609 429 371.409C431.83 376.309 353.72 407.589 357.88 414.799C361.82 421.619 432.03 371.989 432.03 371.989C437.03 380.569 356.37 417.719 356.37 417.719C356.37 417.719 430.85 361.999 436.37 371.539C436.6 371.929 353.63 421.869 353.63 421.869C358.34 430.029 440.35 371.799 440.35 371.799C444.59 379.139 344.79 416.259 350.63 426.359C354.41 432.909 443.05 366.879 445.7 371.469C449.82 378.599 349.2 429.649 349.2 429.649C350.12 431.239 447.58 366.249 450.44 371.199C454.28 377.839 344.72 430.199 346.44 433.199C349.85 439.099 448.02 362.829 453.09 371.619C457.79 379.899 341.34 434.999 343 437.819C348.82 447.889 457.26 371.819 457.26 371.819C457.26 371.819 339.35 439.259 340.39 441.059C340.39 441.059 459.8 369.739 460.83 371.519C464.65 378.129 337.44 445.639 337.44 445.639C339.53 449.259 460.55 364.329 464.98 372.009C466.44 374.549 330.43 442.209 334.53 449.319C336.53 452.849 469.53 371.319 469.53 371.319L330.34 454.479C334.77 462.159 467.46 359.839 474.16 371.479C477.64 377.479 321.23 447.819 327.32 458.359C331.47 465.539 475.92 370.479 476.82 372.039C482.13 381.239 323.71 462.429 323.71 462.429C331.2 475.429 471.07 355.219 480.65 371.819C489.77 387.619 316.95 460.289 320.65 466.629C329.26 481.549 482.25 373.329 482.25 373.329C492.78 391.559 307.64 458.249 315.68 472.179C315.68 472.179 469.45 357.709 480.57 376.979C483.41 381.899 307.85 475.329 309.57 478.379C316 489.519 477.97 377.469 479.57 380.239C479.57 380.239 291.82 464.309 303.57 484.649C306.88 490.339 476.1 384.999 476.1 384.999C478.01 388.299 288.51 478.209 296.22 491.569C303.48 504.149 473.63 389.139 473.63 389.139C485.84 410.279 289.38 497.629 289.38 497.629C290.26 499.159 472.38 391.969 472.38 391.969C472.38 391.969 281 504.459 281.19 504.829L469.06 396.359C470.86 399.469 265.21 497.149 273.57 511.629C277.57 518.479 455.12 380.149 466.67 400.139C467.45 401.489 272.35 502.279 277.59 511.359C277.59 511.359 461.51 396.659 465.2 403.039C465.2 403.039 280.54 508.509 281.97 510.979C281.97 510.979 457.79 399.719 461.97 407.029C466.59 415.029 277.44 495.189 286.24 510.439C295.04 525.689 450.67 395.129 459.5 410.439C465.5 420.749 291.41 509.849 291.41 509.849C291.41 509.849 447.48 399.429 456.28 414.659C467.28 433.739 289.8 501.069 294.8 509.739C297.75 514.779 453.69 417.999 453.69 417.999C456.09 422.169 292.78 493.999 301 508.239C306.44 517.659 444.61 410.549 451 421.629C459.32 436.039 301.68 498.519 306.73 507.259C312.3 516.909 446.79 426.389 446.79 426.389C450.21 432.309 312.19 505.139 312.89 506.389L441.01 432.389C442.3 434.629 312.55 490.289 320.52 504.099C320.52 504.099 431.9 428.769 436.67 437.039C438.31 439.879 325.79 501.559 326.43 502.669C326.43 502.669 429.35 438.279 431.5 442.009C437.5 452.479 332.21 493.739 335.72 499.809C339.4 506.189 421.25 441.809 425.01 448.259C425.01 448.259 345.68 493.899 346.75 495.749C349.96 501.309 412.84 450.479 415.92 455.809C415.92 455.809 359.92 488.479 360.79 489.929C361.79 491.629 402.93 465.599 402.93 465.599" stroke="white" stroke-width="0.7" stroke-linecap="round" stroke-linejoin="round"/>
<path d="M264.66 371.929C264.77 371.851 264.887 371.784 265.01 371.729C265.01 371.799 264.82 373.659 264.84 373.729C266.009 372.963 267.221 372.265 268.47 371.639C268.57 371.809 264.74 375.959 264.74 375.959C264.98 376.369 271.81 370.749 272.3 371.589C272.3 371.589 263.71 377.729 264.19 378.589C264.34 378.839 275.38 370.959 275.88 371.839C276.52 372.949 264.26 380.459 264.5 380.839C265.58 382.709 279.05 370.539 279.87 371.969C280.69 373.399 264.54 382.089 264.76 382.469C265.88 384.409 283 371.939 283 371.939C283.52 372.829 263.34 383.249 264.6 385.439C266.12 388.069 287.81 369.439 288.93 371.439C290.62 374.369 263.93 387.689 264.02 387.859C264.11 388.029 291.52 371.979 291.52 371.979C292.01 372.829 264.18 390.229 264.18 390.229C266.07 393.499 295.57 369.809 296.57 371.529C298.4 374.689 263.14 389.589 264.68 392.269C265.19 393.149 300.74 371.449 300.74 371.449C301.45 372.669 263.21 390.449 265.16 393.879C265.51 394.479 300.28 367.879 302.77 372.159C302.92 372.409 264.08 394.459 264.95 395.959C264.95 395.959 306.04 371.779 306.24 372.119C306.24 372.199 264 395.929 265.1 397.829C267.88 402.639 310.38 371.689 310.38 371.689L264.86 399.999C265.42 400.999 310.86 365.869 314.12 371.559C316.72 376.059 261.6 397.419 264.54 402.559C264.91 403.189 317.81 371.809 317.81 371.809C320.99 377.329 264.47 405.149 264.52 405.249C266.52 408.789 321.17 369.249 322.61 371.709C323.61 373.419 263.26 405.569 264.33 407.419C264.55 407.799 324.74 368.829 326.33 371.619C326.33 371.619 260.43 403.399 264.17 409.879C266.4 413.739 329.65 370.219 330.45 371.609L264.84 412.199C267.65 417.059 331.67 367.199 334.45 372.009L264 414.709C268.31 422.179 337.85 372.069 337.85 372.069C340.12 375.999 265.41 416.689 265.41 416.689C270.35 425.239 338.62 364.369 342.97 371.909C343.55 372.909 264.82 418.729 265.15 419.299C265.48 419.869 347.47 371.429 347.62 371.689C349.2 374.429 265.4 420.999 265.4 420.999C266.9 423.599 345.21 361.879 350.86 371.659C355.11 379.019 265.21 423.429 265.21 423.429C265.21 423.429 349.8 362.659 355 371.589C358 376.699 261.81 421.589 264.37 426.039C270.14 436.039 358.23 371.719 358.29 371.819C358.35 371.919 263.58 427.279 264.29 428.529C269.03 436.739 354.52 368.529 357.94 374.459C363.44 383.989 264.94 431.029 264.94 431.029C269.48 438.889 352.56 369.269 357.39 377.649C361.85 385.379 259.76 425.459 264.32 433.359C268.07 439.859 353.86 376.639 356.03 380.359C356.03 380.359 261.29 428.939 264.75 434.939C269.43 443.049 353.86 383.489 353.86 383.489C356.86 388.669 259.39 427.379 264.86 436.799C269.59 444.989 352.1 386.079 352.25 386.349C354.25 389.889 263.44 436.799 264.74 439.059C265.44 440.279 348.5 384.169 351.33 389.059C357.22 399.269 265.33 440.659 265.33 440.659C265.33 440.659 349.7 390.819 350.18 391.659C350.18 391.659 261.91 438.469 264.93 443.659C268.64 450.079 344.31 389.159 348.07 395.659C348.68 396.719 264.69 446.219 264.69 446.219C268.61 453.009 345.89 399.339 345.89 399.339C349.97 406.409 264.64 448.219 264.98 448.819C266.91 452.159 338.77 394.819 343.71 403.359C347.27 409.529 263.91 450.789 264.09 451.089C267.09 456.249 342.03 405.799 342.16 406.019C342.16 406.019 260.67 444.679 265.48 453.019C268.37 458.019 339.81 410.109 339.81 410.109C342.05 413.989 263.03 454.049 264.22 456.109C264.22 456.109 336.22 412.689 337.05 414.059C340.18 419.489 260.2 451.129 264.56 458.679L333.29 418.999C335.95 423.609 263.84 459.219 265.01 461.249C265.01 461.249 329.32 421.459 330.47 423.449C333.47 428.629 263.69 460.709 265.32 463.539C265.32 463.539 324.32 421.639 327.7 427.539C329.24 430.199 260.93 459.539 264.7 466.179C266.42 469.179 324.7 429.539 325.56 431.039C326.97 433.489 261.56 462.339 265.02 468.299C268.37 474.099 320.22 432.079 322.11 435.299C325.86 441.999 264.89 470.999 264.89 470.999C268.23 476.779 316.23 434.449 319.22 439.629C320.65 442.109 263.48 472.699 264.05 473.699C267.49 479.699 313.71 438.029 316.74 443.279C316.74 443.279 261.82 468.939 265.38 475.109C265.38 475.109 312.82 447.379 312.97 447.629C312.97 447.629 264.52 476.859 265.07 477.799C265.92 479.279 308.76 450.799 309.52 452.129L265.14 479.769L305.45 456.499C306.9 459.019 261.78 477.679 264.66 482.669C264.66 482.669 300.21 462.049 300.25 462.119C300.29 462.189 263.87 484.119 264.42 485.119C264.42 485.119 294.92 463.929 296.42 466.619C297.34 468.209 264.71 486.129 265.13 486.869C265.29 487.149 289.53 468.749 291.28 471.769C292.28 473.449 264.88 489.549 264.88 489.549C264.88 489.549 286.51 475.999 287 476.779L265.42 491.779C265.77 492.389 278.86 482.009 279.73 483.519C280.6 485.029 262.89 493.219 264.03 495.189C264.22 495.509 271.6 490.819 271.6 490.819C271.89 491.319 264.34 496.029 264.68 496.609L265.49 496.139" stroke="white" stroke-width="0.7" stroke-linecap="round" stroke-linejoin="round"/>
<path d="M402.79 263.999C402.79 263.999 403.13 263.759 403.15 263.789C403.28 264.009 403.36 266.319 403.41 266.409C403.46 266.499 408.04 262.969 408.41 263.539C408.48 263.659 402.04 269.109 402.12 269.259C402.54 269.989 411.12 263.259 411.51 263.839C412.07 264.839 402.15 271.309 402.15 271.309L414.97 263.909C415.58 264.969 401.97 273.359 402.37 274.009C403.45 275.889 419.43 261.329 420.66 263.449C421.46 264.839 401.92 275.819 402.27 276.449C403.55 278.669 422.2 261.669 423.62 264.119C424.86 266.259 401.93 279.339 401.93 279.339C403.02 281.229 428.33 264.099 428.33 264.099C428.33 264.099 400.04 279.759 401.1 281.599C402.71 284.379 429.78 260.709 431.65 263.959L401.23 283.739C403.57 287.739 433.02 260.249 435.23 264.099L401.55 285.309C402.06 286.189 438.75 263.589 438.86 263.769C438.86 263.769 399.59 285.499 400.86 287.659C403.36 291.979 439.92 261.219 441.6 264.139C442.83 266.269 400.26 290.009 400.27 290.019C402.34 293.599 443 260.019 445.27 264.019C446.91 266.859 399.07 289.019 400.95 292.259C403.76 297.129 448.3 261.509 449.78 264.069L400.41 295.069L454.6 263.699C458.12 269.789 396.86 291.869 400.11 297.499C403.23 302.899 455.11 256.949 458.95 263.499C462.11 268.969 398.42 298.439 399.35 300.049L462.24 263.739C464.24 267.159 395.63 297.399 398.88 303.029C401.94 308.329 463.07 255.229 467.72 263.289C468.04 263.849 394.6 298.709 398.4 305.289C400.4 308.729 470.62 263.599 470.62 263.599C473.54 268.659 397.5 306.069 398.2 307.269C398.2 307.269 469.6 257.209 473.43 263.839C476.94 269.999 398 309.419 398 309.419C398 309.419 474.93 259.169 477.46 263.539C479 266.209 393.86 304.459 397.88 311.419C397.88 311.419 476.76 258.419 479.99 264.009C482.12 267.689 397.34 313.729 397.34 313.729C398.09 315.029 483.73 263.849 483.73 263.849C484.39 264.999 396.73 316.029 396.73 316.029C398.41 318.939 487.68 262.619 488.07 263.299C488.07 263.299 392.38 313.209 395.83 319.199C401.08 328.299 489.07 259.119 491.77 263.809C491.77 263.809 388.77 311.169 395.2 322.239C395.2 322.239 492.54 255.139 497.26 263.309C501.38 270.449 387.15 313.679 394.08 325.679C394.08 325.679 494.92 251.029 502.08 263.349C502.08 263.349 392.57 326.909 393.54 328.589C399.21 338.409 500.69 255.399 505.59 263.899C509.94 271.429 393.51 331.289 393.51 331.289C396.99 337.289 503.96 252.789 510.34 263.839C513.05 268.529 388.79 328.749 392.04 334.369C395.38 340.159 509.09 265.859 509.5 266.559C515.43 276.839 389.86 332.879 392.03 336.649C400.2 350.809 509.38 268.899 509.38 268.899C516.89 281.899 383.94 328.669 390.6 340.209L510.28 271.109C514.28 278.009 387.18 338.479 389.79 342.999C394.86 351.779 505.51 267.779 509.16 274.079C510.74 276.809 388.77 345.979 388.77 345.979C388.77 345.979 509.11 274.369 510 275.999C513.33 281.769 381 335.439 388.56 348.479C390.19 351.309 501.41 266.119 508.86 279.019C508.86 279.019 380.35 338.749 387.46 351.019C390.95 357.019 500.63 267.089 508.68 281.019C508.68 281.019 379.57 338.729 387.99 353.319L509.2 283.319C509.2 283.319 388.65 348.699 391.43 353.509C391.43 353.509 505.81 281.099 508.57 285.879C512.22 292.199 396.57 353.339 396.57 353.339C396.88 353.879 501.63 276.269 508.74 288.579C514.23 298.089 394.53 345.139 399.47 353.689C400.47 355.459 506.3 287.129 508.41 290.789C509.34 292.369 404 352.999 404.3 353.559C407.87 359.739 503.57 285.359 508.3 293.559L410.2 352.999C414.63 360.679 500.96 285.999 507.27 296.999L413.39 353.439C414.96 356.169 502.91 292.339 506.99 299.439C508.86 302.679 415.52 351.199 416.83 353.439C419 357.199 499.93 291.539 505.96 301.979C508.26 305.979 418.84 350.559 420.36 353.189C424.36 360.079 500.63 293.119 506.57 303.419C509.57 308.609 423.66 350.929 424.87 353.029C429 360.179 505.31 305.619 505.73 306.339C507.83 309.969 427.27 352.109 427.87 353.139C428.7 354.569 500.66 301.069 505.01 308.599C505.01 308.599 430.87 352.599 431.52 353.749L504.29 311.749L434.84 353.599C436.66 356.759 503.84 312.289 504.45 313.409C507.76 319.139 437.36 350.849 439.04 353.759C442.4 359.589 500.68 312.199 503.27 316.679C503.88 317.679 444.27 352.559 444.56 353.139L502.68 319.579C502.68 319.579 445.15 346.999 448.6 352.999C449.76 354.999 502.43 321.919 502.43 321.919C504.8 326.029 449.61 348.189 452.63 353.429C452.63 353.429 499.32 320.559 501.88 324.999C502.28 325.699 455.98 352.079 456.88 353.569L500 328.619C502.67 333.249 459.08 350.459 460.93 353.619C463.03 357.259 498.81 331.749 498.81 331.749C500.28 334.299 465.06 351.059 466.17 352.989C468.32 356.709 498.05 334.579 498.05 334.579C498.48 335.319 470.21 353.109 470.21 353.109C471.74 355.759 496.28 334.329 497.9 337.109C498.01 337.299 474.9 352.459 475.15 352.979L496.58 340.599C497.58 342.369 476.7 352.809 477.18 353.599C478.18 355.399 494.79 342.909 495.02 343.299C495.08 343.399 480.39 353.439 480.46 353.549C481.46 355.209 494.46 345.459 494.46 345.459L484.4 353.659C484.4 353.659 492.67 347.569 493.24 348.559C493.48 348.969 488.75 352.909 488.83 353.049C488.91 353.189 492.32 350.489 492.55 350.899C492.55 350.899 491.65 353.039 491.71 353.139C491.77 353.239 491.99 352.909 492.02 352.959" stroke="white" stroke-width="0.7" stroke-linecap="round" stroke-linejoin="round"/>
<path d="M152.39 371.88C152.39 371.88 152.65 371.69 152.67 371.72C152.69 371.75 153.05 373.87 153.12 373.99C153.19 374.11 157.63 371.29 157.67 371.36C157.71 371.43 154.51 374.88 154.67 375.11C155.06 375.79 160 371.87 160.06 372C160.26 372.35 154.39 376.61 154.61 377C154.95 377.58 163.15 371.48 163.41 371.92C163.67 372.36 155.48 377.83 155.78 378.35C156.4 379.43 167.23 371.74 167.23 371.74C167.63 372.44 155.94 379.42 156.23 379.86C157.03 381.25 168.93 370.96 169.61 372.14C169.61 372.14 157 381.8 157.06 381.9C157.36 382.42 174.19 370.9 174.65 371.74C174.82 372.03 158.89 383.5 158.89 383.5C159.07 383.81 178.09 369.99 179.14 371.81C180.59 374.31 158.67 385.59 158.67 385.6C158.67 385.61 182.67 371.39 182.84 371.6C182.84 371.6 159.92 386.67 160.15 387.06C160.5 387.67 185.95 371.19 186.37 371.92C187.48 373.84 160.71 388.1 160.98 388.57C161.59 389.63 189.24 371.03 189.77 371.95C191.37 374.72 161.25 390.49 161.25 390.49C161.48 390.89 193.51 371.49 193.69 371.76C193.69 371.76 160.64 388.82 162.46 391.98C164.28 395.14 195.85 367.42 198.13 371.38C199.87 374.38 163.51 394.2 163.51 394.2C166.13 398.73 202.1 371.05 202.51 371.7C202.51 371.7 162.7 391.78 164.98 395.7C165.28 396.21 203.74 368.2 205.98 372.04C207.91 375.38 164.09 396.12 165.34 398.28C166.45 400.21 209.98 369.44 211.34 371.74C213.34 375.28 166.4 399.9 166.4 399.9C166.4 399.9 214.1 370.26 215.01 371.83C216.46 374.35 165.01 397.9 167.42 402.05C168.55 404.05 220.24 371.55 220.24 371.55C220.24 371.55 166.84 401.78 168.02 403.83C168.53 404.71 220.42 365.67 223.85 371.6C224.11 372.04 167.25 399.4 170.23 404.6C171.34 406.52 227.03 371.8 227.03 371.8C227.46 372.55 169.15 404.59 170.38 406.73C170.38 406.73 229.16 369.61 230.54 372C233.16 376.53 171.62 408.72 171.62 408.72C172.48 410.21 235.36 371.92 235.36 371.92L173.41 409.73C174.72 412.01 236.85 367.67 239.2 371.73C241.34 375.43 173.9 411.25 173.9 411.25C175.9 414.66 242.03 371.91 242.03 371.91C243.42 374.32 173.58 411.85 174.3 413.09C176.47 416.85 246.15 371.54 246.18 371.59C246.21 371.64 173.75 410.03 176.08 414.05C176.34 414.51 247.61 371.96 247.95 372.55C248.95 374.26 175.34 413.55 176.72 415.96C180.42 422.37 245.4 370.54 247.9 374.87C250.01 378.52 176.28 417.16 176.85 418.14C178.13 420.35 247.31 377.46 247.31 377.46C250.69 383.31 178.12 417.3 179.31 419.32C179.63 419.87 245.6 378.23 246.82 380.32C251.34 388.15 175.76 413.32 180.4 421.32L247.03 382.85C247.68 383.98 180.17 422.95 180.44 423.42C180.44 423.42 244.53 381.07 246.84 385.08C246.84 385.08 178.99 418.35 182.72 424.81C182.72 424.81 244.05 381.11 247.64 387.33C249.75 390.99 181.85 422.5 183.92 426.08C185.99 429.66 244.08 382.08 248.08 389.08C251.08 394.28 182.47 422.59 185.37 427.61C185.37 427.61 244.52 385.67 247.89 391.51C250.33 395.73 184.32 427.63 185.58 429.8C187.58 433.31 247.81 393.87 247.81 393.87C249.81 397.3 184.92 426.33 187.6 430.96C189.95 435.03 244.33 390.09 247.84 396.18C248.42 397.18 188.54 433.11 188.54 433.11C190.97 437.32 248.28 398.62 248.28 398.62C250.37 402.24 187.54 430.35 189.89 434.42C191.34 436.92 246.79 398.37 248.17 400.77C251.49 406.52 189.38 433.05 191.17 436.12C192.25 437.99 244.54 398.87 247.33 403.7L192.47 437.85L247.54 406C248.19 407.13 190.08 433.72 193.36 439.4C193.57 439.76 247.95 407.88 247.95 407.88C250.71 412.66 192.77 439.74 193.72 441.38C194.01 441.88 247.5 410.38 247.5 410.38C248.5 412.07 191.43 437.44 194.93 443.51C194.93 443.51 246.2 412.75 246.7 413.62C246.7 413.62 195.07 440.97 197.09 444.45C198.65 447.08 248 415 248 415C250.38 419.13 197.44 444.63 198.41 446.31C200.11 449.26 244.77 414.59 246.91 418.31C249.57 422.92 197.79 444.94 199.69 448.25C201.59 451.56 246 419.63 246.82 421C246.82 421 200.08 449.07 200.38 449.59C203.06 454.23 245.21 417.76 247.79 422.22C247.97 422.53 199.79 446.75 202.31 451.12C202.31 451.12 247.17 423.12 248.08 424.69C251.08 429.8 203.66 452.89 203.66 452.89C204.36 454.1 247.5 427.58 247.5 427.58C249.35 430.79 204.57 455.21 204.57 455.21C204.57 455.21 247.25 430.35 247.35 430.51C248.17 431.92 204.76 455.32 205.61 456.79C207.12 459.41 246.27 430.88 247.33 432.7C249.71 436.82 205.46 455.22 206.97 457.83L248.1 434.09C249.63 436.73 207.18 455.95 209.1 459.22C210.02 460.81 245.57 435.63 246.67 437.53C246.67 437.53 208.91 459.53 209.84 461.14C209.84 461.14 247.53 438.25 248.02 439.14C249.89 442.37 210.83 460.44 211.7 461.95C213.7 465.41 246.95 441.6 246.95 441.6C249.18 445.45 210.19 460.07 212.58 464.21C212.58 464.21 246 440.88 247.75 443.91C249.66 447.21 214.75 464.79 215.16 465.58C215.42 466.03 247.58 446.86 247.58 446.86C249.08 449.47 214.83 465.11 216.27 467.6C217.83 470.3 245.11 447.34 246.67 450.05C246.67 450.05 215.38 466.05 217.1 469.05C217.1 469.05 245 448.73 246.82 451.89C248.14 454.17 218.63 470.65 218.63 470.65C218.63 470.65 246.43 454.06 246.63 454.47C246.83 454.88 220.11 471.8 220.46 472.41C220.46 472.41 246.64 456.41 247.01 457.08C248.26 459.24 221.55 472.37 222.41 473.85C222.41 473.85 245.41 457.56 246.73 459.85C248.05 462.14 223 473 224 474.77C225.59 477.53 247.45 461.23 247.45 461.23C249 464 224.92 476.39 225 476.56C225.87 478.07 246.64 461.07 247.94 463.32C249.24 465.57 224.74 475.32 226.12 477.74C227.04 479.33 246.03 462.98 247.44 465.43C247.44 465.43 226.99 478.36 227.5 479.25C227.91 479.97 246.05 466.74 246.83 468.09C246.83 468.09 228.73 478.09 229.93 480.18C231.13 482.27 245.66 468.86 246.63 470.54C247.4 471.88 230.39 482.46 230.39 482.46C230.51 482.66 247.31 472.36 247.46 472.61C248.25 473.99 231.93 483.42 231.93 483.42C232.16 483.81 246.54 472.79 247.49 474.42C247.92 475.17 232.78 482.97 233.7 484.57C234.62 486.17 248 476.16 248.07 476.27C248.14 476.38 235.27 485.37 235.52 485.81C236 486.64 246.28 477.88 247.02 479.17C247.02 479.17 236.61 486.23 237.16 487.17C237.71 488.11 246.96 480.76 247.29 481.32C247.29 481.32 237.43 488.55 237.93 489.42C237.93 489.42 246.93 483.01 247.48 483.9C247.77 484.41 239.27 490.26 239.48 490.68C239.69 491.1 247.74 485.42 247.96 485.79C247.96 485.86 240.77 491.73 240.96 492.11C240.96 492.17 246.68 488.73 246.71 488.79C247.02 489.32 242.59 492.79 242.71 493.02C242.83 493.25 246.8 490.02 247.07 490.5C247.34 490.98 243.37 494.43 243.44 494.57C243.51 494.71 246.44 492.44 246.64 492.72C246.115 493.645 245.638 494.596 245.21 495.57C246.1 494.978 247.032 494.454 248 494C247.641 494.859 247.359 495.75 247.16 496.66C247.16 496.66 247.3 496.56 247.3 496.58" stroke="white" stroke-width="0.7" stroke-linecap="round" stroke-linejoin="round"/>
<path d="M264.66 264C264.782 263.944 264.9 263.877 265.01 263.8C265.06 263.89 264.95 265.91 265.01 266.06C265.26 266.49 268.01 263.85 268.19 264.23C268.19 264.23 264.44 267.76 264.68 268.23L272.95 263.46C273.04 263.62 264.63 271.03 264.63 271.03C264.63 271.03 275.79 262.68 276.63 264.11C277.01 264.77 264.63 272.2 265.12 273.11C265.86 274.4 280.44 263.92 280.58 264.18C281.04 264.97 264.2 274.95 264.63 275.7C265.76 277.7 285.21 262.33 285.86 263.45C286.24 264.11 264.1 277.28 264.56 278.08C264.56 278.08 288.14 260.93 289.68 263.58C290.4 264.82 264.96 279.45 265.31 280.04C266.92 282.82 292.31 262.04 293.31 263.86C294.72 266.3 264.31 283.13 264.48 283.38C264.48 283.38 297.79 261.07 299.12 263.38C299.35 263.78 263.74 282.63 265.03 284.86C265.48 285.65 301.03 261.63 302.1 263.46C302.38 263.95 264.1 287.46 264.1 287.46L304.67 264C304.67 264 263 285.68 264.93 289.06C267.59 293.66 306.51 259.76 308.8 263.73C309.41 264.78 264.58 292.15 264.58 292.15C266.95 296.26 313.26 263.15 313.58 263.83C314.9 266.12 264.58 294.19 264.58 294.19C267.14 298.62 315.58 261.41 317.05 263.9C317.05 263.9 262.26 290.66 265.4 296.08C268.4 301.32 318.87 259.91 321.16 263.89C323.45 267.87 261.58 294.63 264.16 299.05C268.1 305.88 324.99 263.93 324.99 263.93C328.61 270.19 262.99 299.35 264.39 301.78C266.74 305.85 326.39 256.73 330.39 263.66C334.08 270.06 261.24 299.08 264.21 304.23C265.29 306.09 330.43 256.84 334.39 263.71C337.04 268.3 262.51 301.92 264.98 306.19C267.98 311.31 338.82 263.56 338.82 263.56C343.01 270.83 261.59 303.8 264.34 308.56C267.88 314.69 341.42 261.12 342.69 263.32L263.92 311.32C264.4 312.15 345.08 263.24 345.61 264.15C350.69 272.95 264.06 313.47 264.06 313.47C265.62 316.17 349.51 264.14 349.51 264.14L264.47 315.4C266.34 318.63 348.52 253.18 354.47 263.4C354.47 263.4 260.17 310.96 264.08 317.74C264.29 318.1 352.59 253.17 358.42 263.27C364.25 273.37 259.91 312.27 264.42 320.15C270.36 330.43 357.07 256.15 361.61 264.04C367 273.45 265 322.2 265 322.2C267.69 326.85 362.94 257.42 366.5 263.6C370.38 270.31 261.03 319.51 264.05 324.75C269.68 334.5 366.47 259.18 369.26 264.01C371.39 267.69 260.94 320.14 264.49 326.3C265.22 327.56 369.78 259.64 372.32 264.04C372.32 264.04 263.81 326.85 264.51 328.04C264.51 328.04 373.1 257.04 376.68 263.28C376.68 263.28 262.01 324.45 264.99 329.61C265.9 331.19 378.75 263.93 378.75 263.93C384.39 273.7 260.01 323.28 265.14 332.18C273.2 346.18 383.5 263.84 383.5 263.84C390.14 275.35 264 334.75 264 334.82C269.26 343.93 383.55 265.82 383.55 265.82C389.85 276.73 264.55 337.22 264.55 337.22C264.55 337.22 381.86 262.65 384.82 267.78C392.96 281.88 260.72 333.43 264.3 339.63C268.59 347.05 378.24 261.24 383.7 270.7L264.26 342.28C268.67 349.92 383.33 273.54 383.33 273.54C383.33 273.54 262.23 340.44 264.41 344.23C264.41 344.23 379.27 266.92 384.03 275.17C386.49 279.43 260.76 337.67 265.43 345.75C265.43 345.75 380.85 272.58 383.68 277.48C388.3 285.48 263.5 347.88 264.15 349.01C269.72 358.66 382.73 280.55 382.73 280.55C390.42 293.87 262.82 348.18 264.73 351.55C268.1 357.39 382.34 283.65 382.34 283.65C387.26 292.18 257.44 339.73 265.34 353.48C271.34 363.81 381.34 283.75 382.54 285.82C387.22 293.93 266.77 347.14 270.25 353.16C276.4 363.82 382.07 288.6 382.07 288.6C383.91 291.78 268.43 345.68 273.07 353.68C273.07 353.68 381.31 288.68 382.41 290.55C384.07 293.43 275.84 348.8 278.32 353.09C283.45 361.98 378.11 284.81 382.73 292.81C387.03 300.26 276.47 342.28 282.73 353.13C284.31 355.86 380.36 295.72 380.81 296.5C386.36 306.12 282.88 349.55 285.14 353.5C286.91 356.57 381.73 297.74 381.73 297.74L289.06 353.59L381.51 300.21C381.51 300.21 292.68 352.65 293.04 353.27C295.69 357.86 377.64 298.79 380.04 303.02C381.04 304.82 293.16 348.44 296.24 353.78C298.72 358.07 377.05 301.15 379.63 305.63C379.63 305.63 298.23 349.45 300.69 353.72C300.69 353.72 377.91 304.26 380.02 307.92L304.81 353.3C305.1 353.81 377.28 307.13 379.16 310.38C383.53 317.96 307.9 353.7 307.9 353.7C311.57 360.06 374.48 306.7 378.19 313.12C382.77 321.05 311.92 351.32 312.84 352.9C312.84 352.9 375.9 313.01 377.41 315.62C381.53 322.76 317.26 352.98 317.26 352.98C317.26 352.98 374.42 311.49 378.1 317.86C378.72 318.94 319.87 353.25 320.1 353.58C321.4 355.84 375.78 317.78 377.36 320.52C380.36 325.8 324.04 352.03 324.78 353.31C327.15 357.41 375.9 323.8 375.9 323.8C376.76 325.28 325.47 348.11 328.38 353.15C329.83 355.66 374.08 322 376.14 325.57C376.84 326.79 330.85 352.01 331.52 353.16C332.42 354.73 375.52 327.75 375.52 327.75C377.24 330.75 333.06 348.46 335.72 353.08C337.39 355.98 373.72 331.14 373.72 331.14C375.82 334.78 337.96 352.48 338.57 353.54C338.57 353.54 371.66 331.41 372.97 333.68C373.39 334.41 341.74 350.68 343.3 353.39C343.3 353.39 372.13 333.84 373.39 336.02C375.19 339.14 348.17 352.48 348.46 353.02C348.62 353.29 369.87 337.02 371.46 339.74C371.46 339.74 351.6 352.05 352.39 353.42C352.76 354.07 370.39 341.3 371.14 342.59C371.42 343.08 356.36 352.88 356.61 353.31C357.12 354.19 368.8 345.13 369.29 345.99C369.29 345.99 360.47 352.69 360.64 352.99C360.91 353.46 368.04 347.55 368.54 348.43C368.86 348.99 364.38 353.11 364.38 353.11C364.38 353.11 368.44 350.7 368.46 350.75" stroke="white" stroke-width="0.7" stroke-linecap="round" stroke-linejoin="round"/>
<path d="M28.5195 371.881C28.5195 371.881 28.7895 371.721 28.7895 371.731C28.8895 371.911 28.6495 373.611 28.7895 373.781L31.7895 372.041L29.6495 375.131C29.6495 375.131 35.5695 371.131 35.8195 371.571C35.8195 371.571 31.2095 376.571 31.3095 376.711C31.8495 377.651 39.2595 371.871 39.3695 372.061C39.4795 372.251 32.5695 377.811 32.9595 378.491C33.3495 379.171 44.6995 370.991 45.0095 371.491C45.3195 371.991 33.0095 380.411 33.3995 381.071C34.2695 382.571 49.8795 371.011 50.1195 371.421C50.8795 372.731 33.6095 381.651 34.2295 382.741C35.4295 384.811 52.5995 371.881 52.7095 372.071C53.5395 373.511 34.9595 382.481 35.8095 383.951C35.9995 384.401 56.5195 370.801 56.9995 371.711C57.4795 372.621 36.1195 385.931 36.3295 386.301C36.3295 386.351 61.3995 371.831 61.3995 371.831C61.9195 372.731 36.3995 385.021 37.9695 387.751C38.2995 388.321 64.6695 369.631 65.8395 371.661C67.6695 374.841 36.8395 386.661 38.4995 389.551C39.4995 391.291 67.0695 368.481 69.0495 371.911C69.4395 372.591 37.7495 390.281 38.5595 391.681C39.2695 392.911 73.1995 371.211 73.3995 371.561C75.0495 374.431 40.1595 393.181 40.1595 393.181C41.7895 396.001 75.0295 369.421 76.5995 372.181C76.7595 372.461 41.3595 394.941 41.3595 394.941C42.5695 397.031 79.3595 368.871 81.1295 371.941C81.4095 372.431 39.7495 392.671 42.1295 396.821C42.4395 397.361 84.6595 369.461 85.8795 371.561C87.3395 374.101 40.8795 394.561 43.4095 398.951C44.0295 400.031 88.6195 369.281 90.1695 371.951C90.1695 371.951 42.3795 396.031 44.9295 400.441C44.9295 400.441 94.7895 370.381 95.3395 371.341C95.3395 371.341 43.7395 398.531 45.7195 401.961C46.1995 402.801 95.9895 368.021 98.1195 371.711C98.1195 371.711 44.8195 399.431 47.3095 403.711L103.31 371.351C104.1 372.721 47.6895 403.111 48.7095 404.871C48.7095 404.871 103.14 366.121 106.31 371.611C106.31 371.611 46.8995 401.171 50.1695 406.831C51.2495 408.701 111.77 371.261 111.77 371.261L51.3695 407.911C52.8295 410.441 110.51 363.991 114.74 371.321C118.87 378.481 52.4795 409.531 52.4795 409.531C53.9395 412.051 117.3 371.331 117.63 371.911C118.63 373.681 53.2895 411.531 53.2895 411.531C58.0095 419.701 120.37 367.421 122.7 371.461C123.28 372.461 54.0995 413.091 54.0995 413.091C54.0995 413.091 126.1 371.471 126.1 371.501C127.33 373.631 51.5795 407.641 55.7195 414.821C59.3995 421.201 125.57 363.181 130.47 371.661C135.03 379.561 54.4695 411.661 57.3695 416.741C61.5195 423.941 131.63 370.741 132.97 373.091C133.8 374.521 54.5895 410.551 59.0595 418.281C59.0595 418.281 130.26 367.801 134.32 374.831C134.99 375.991 59.1195 420.391 59.1195 420.391C62.7995 426.761 131.53 370.571 135 376.581C135.6 377.581 61.4895 421.231 61.4895 421.231C63.2395 424.231 130.17 370.761 134.85 378.871L62.3695 422.771C66.5395 430.001 133.3 375.511 136.03 380.241C137.5 382.781 60.8595 419.851 63.4995 424.441C63.4995 424.441 135.71 380.691 136.6 382.241C136.6 382.241 61.8995 422.681 64.0295 426.381C65.4295 428.801 138.21 383.551 138.21 383.551C138.21 383.551 65.2095 425.671 66.1495 427.371C66.2195 427.491 136.06 380.701 138.79 385.431C140.79 388.871 64.0395 424.431 66.6295 428.951C69.6295 434.061 139.16 387.071 139.16 387.071C140.61 389.581 68.6895 429.491 68.6895 429.491C71.4595 434.291 138.29 385.691 139.85 388.401C142.1 392.291 69.5995 431.521 69.6495 431.611C72.7195 436.921 139.94 391.031 139.94 391.031C142.82 396.031 66.5695 424.951 70.9995 432.621C75.9995 441.001 138.43 387.831 141 392.301C141 392.301 71.8795 434.011 71.9995 434.231C74.6495 438.831 141.43 391.661 142.51 393.521C143.36 395.001 70.7195 428.591 74.3995 435.001C75.2895 436.531 139.71 391.111 142.4 395.751C142.4 395.751 74.9895 436.131 75.1195 436.351C76.0195 437.911 143.49 396.041 143.85 396.671C143.85 396.671 70.8495 430.211 75.4495 438.251C75.4495 438.251 141.97 393.581 144.68 398.251C145.59 399.831 77.5295 439.121 77.5295 439.121C78.5895 440.951 146.1 399.531 146.1 399.531C146.39 400.031 79.1695 440.011 79.1695 440.011C79.1695 440.011 144.45 399.431 145.7 401.601C150.29 409.601 77.4995 438.601 79.3795 441.871C79.5395 442.141 144.98 399.601 146.88 402.871C148.17 405.111 79.8195 441.931 80.5495 443.191C81.2795 444.451 146.14 400.711 148.14 404.191C152.62 411.941 83.2095 443.621 83.3195 443.811C83.5195 444.161 148.98 405.811 149.02 405.881C150.38 408.231 82.8295 443.381 84.0195 445.501C84.0195 445.501 146.89 402.841 149.64 407.611C149.8 407.891 85.9995 446.841 85.9995 446.841C88.2595 450.761 145.76 402.371 150.08 409.841C150.94 411.261 87.9995 448.001 87.9995 448.001C88.4695 448.821 148.71 405.781 151.82 411.161C152.44 412.241 86.6095 447.021 88.3295 449.991C92.6595 457.501 153.38 412.431 153.38 412.431L90.7495 450.801C90.8395 450.961 149.54 408.961 152.96 414.881C153.21 415.321 90.9595 451.671 91.7095 452.881C93.2495 455.551 155.14 416.261 155.14 416.261C156.95 419.391 93.2895 454.051 93.2895 454.051C96.5995 459.781 153.29 413.231 156 417.851C159.93 424.651 94.5695 454.611 94.8195 455.041C97.0595 458.921 156.39 419.501 156.39 419.501C160.39 426.421 92.9395 450.841 96.1895 456.501C100.11 463.291 155.98 416.931 158.19 420.721C162.27 427.781 97.2995 455.601 98.2695 457.281C100.27 460.751 159.11 422.161 159.11 422.161C161.43 426.161 98.9695 458.921 98.9695 458.921C101.09 462.581 156.87 420.921 158.86 424.341C161.17 428.341 100.94 460.011 100.94 460.011C100.94 460.011 160.45 423.701 161.29 425.161C161.29 425.161 101.53 458.161 103.36 461.291C103.49 461.521 162.26 427.291 162.26 427.291C164.34 430.901 104.26 461.771 104.87 462.741C105.65 464.101 160.99 426.881 162.49 429.471C164.49 432.901 104.26 459.961 106.82 464.391C109.25 468.601 162.26 428.461 163.95 431.391L108.95 465.991C109.52 466.991 165.87 432.681 166.07 432.991C166.07 432.991 109.39 464.401 111.16 467.471C112.34 469.471 164.1 429.861 167.16 435.151C170.72 441.321 112.59 468.561 112.94 469.151C113.78 470.601 165.52 433.821 167.67 437.551C167.67 437.551 111.67 464.241 115.2 470.321C118.33 475.731 167.67 435.051 169.82 438.781L116.82 471.701C118.16 474.021 169.33 438.361 170.64 440.631C170.64 440.631 118.11 469.421 119.91 472.531C120.03 472.741 169.77 438.141 172.2 442.341C174.36 446.081 120.32 471.671 121.36 473.471C122.4 475.271 172.89 443.721 172.89 443.721C175.66 448.521 121.89 474.931 121.89 474.931L174.89 444.351C174.89 444.351 121.21 470.051 124.39 475.561C127.05 480.171 175.13 446.221 175.15 446.251C178.41 451.891 125.52 477.141 125.54 477.181C126.54 478.941 176.14 447.971 176.14 447.971C177.52 450.361 126.72 476.921 127.46 478.201C128.2 479.481 176.3 446.721 177.72 449.201C179.02 451.461 127.44 473.201 130.65 478.731C132.28 481.561 179.16 450.731 179.16 450.731C181.77 455.251 130.52 477.601 132.26 480.621L180.26 452.931C180.26 452.931 132.71 478.171 134.46 481.201L180.89 454.401C181.04 454.661 136.89 481.241 137.54 482.301C138.67 484.301 181.54 453.431 183.03 456.031C184.67 458.871 137.85 479.631 140.14 483.601C141.08 485.221 181.99 452.711 184.9 457.761C185.42 458.661 140.63 485.201 140.69 485.311C140.75 485.421 183.92 456.101 185.76 459.311C187.39 462.131 142.56 483.511 143.94 485.891C145.57 488.721 185.42 457.301 187.43 460.781C190.16 465.511 142.93 483.781 145.24 487.781C147.55 491.781 185.68 458.621 188.24 462.981C189.1 464.461 147.76 488.721 147.85 488.881C149.66 492.011 190.05 464.511 190.05 464.511C191.87 467.661 148.46 486.321 150.57 489.981C153.28 494.671 189.67 463.771 191.24 466.501C191.4 466.771 151.57 488.421 152.9 490.731C154.9 494.211 192.01 465.511 193.15 467.491C193.15 467.491 155.45 491.611 155.53 491.741C158.08 496.161 195.05 468.921 195.05 468.921C196.05 470.581 156.62 489.681 158.47 492.921C160.32 496.161 195.86 471.331 195.86 471.331C197.86 474.741 159 491.731 160.4 494.171C162.52 497.841 197.01 472.681 197.17 472.941C198.79 475.741 161.27 490.561 163.52 494.461C165.41 497.731 198.17 472.901 198.84 474.071C199.99 476.071 163.89 493.631 165.19 495.871L200 475.771C200 475.771 167 495.241 167.65 496.381C168.3 497.521 200.85 477.001 200.85 477.001C201.28 477.741 167.09 494.001 168.97 497.211C168.97 497.211 201.83 477.631 202.09 478.091C202.46 478.731 171.31 498.391 171.31 498.391C173.31 501.891 203.15 479.781 203.25 479.951C204.33 481.831 172.09 496.341 173.54 498.851C173.66 499.061 202.41 478.161 204.16 481.171C204.32 481.451 176.53 499.171 176.53 499.171C177.35 500.601 204.19 478.611 206.17 482.061C206.74 483.061 176.85 500.011 177.17 500.571C179.04 503.811 206.87 483.421 206.87 483.421C208.62 486.421 179.87 500.251 180.28 500.871L208.48 484.591C209.07 485.591 180.41 499.881 181.63 501.991C181.63 502.051 207.79 483.531 209.24 486.051C209.66 486.771 183.62 500.691 184.69 502.531C186.06 504.911 211.69 486.591 211.87 486.841C212.4 487.751 187.33 501.291 188.2 502.841C188.2 502.841 211.06 486.671 212.34 488.901C213.34 490.581 189.56 504.341 189.56 504.341L213.7 490.401C214.7 492.051 191.93 503.091 192.7 504.351C192.7 504.351 214.37 490.891 214.78 491.601C215.64 493.091 194.6 503.921 195.14 504.851L217.14 492.171C217.21 492.291 196.06 504.911 196.65 505.931C197.98 508.241 217.5 493.521 217.65 493.801C218.13 494.641 198.84 505.121 199.65 506.551C200.17 507.441 218.23 493.301 219.32 495.191C219.32 495.191 202.88 505.071 203.76 506.591C204.87 508.511 220.32 494.321 221.5 496.351C222 497.221 205.58 506.281 206.06 507.101C206.43 507.741 222.4 496.411 222.94 497.351C223.85 498.931 208.04 506.241 209.07 508.011C209.58 508.891 224.44 498.891 224.55 499.071C225.24 500.271 211.21 508.211 211.69 509.071C212.62 510.681 225.91 500.861 225.91 500.861C226.4 501.721 214.84 509.221 215.05 509.591C215.67 510.671 226.92 502.741 226.92 502.741C227.1 503.041 219.58 509.451 219.67 509.621C219.76 509.791 230 503.621 230 503.621C230.31 504.161 221.79 509.431 222.34 510.381C222.73 511.051 231.34 504.901 231.43 505.131C231.81 505.791 224.71 510.551 224.83 510.751C225.24 511.471 232.39 505.421 232.83 506.141C233.27 506.861 226.83 511.351 226.83 511.351C226.96 511.571 233.59 506.641 233.94 507.241C234.18 507.661 231.1 510.571 231.31 510.941C231.52 511.311 234.52 508.831 234.63 509.021C234.504 509.789 234.421 510.563 234.38 511.341C235.355 510.68 236.378 510.091 237.44 509.581C237.5 509.691 237.56 511.461 237.56 511.461C237.56 511.461 238.06 511.161 238.07 511.171" stroke="white" stroke-width="0.7" stroke-linecap="round" stroke-linejoin="round"/>
<path d="M386.79 158.849C386.79 158.849 387.08 158.669 387.09 158.679L387.27 160.369C387.33 160.469 389.72 158.689 389.84 158.889C389.96 159.089 388.3 161.539 388.3 161.539C388.3 161.539 393.03 158.539 393.13 158.749C393.46 159.319 388.37 163.109 388.67 163.639C388.97 164.169 396.11 158.319 396.55 159.089C396.7 159.349 387.68 164.899 388.22 165.829C388.56 166.409 399.85 157.999 400.33 158.829C400.48 159.089 389.02 166.729 389.42 167.409C390.2 168.759 404.82 158.519 404.82 158.519C404.82 158.519 389.09 167.619 389.93 169.079C390.64 170.299 407 157.499 407.74 158.799C408.88 160.799 391 170.319 391 170.319C392.21 172.409 411 158.209 411.28 158.609C411.38 158.789 390.84 172.089 391.14 172.609C391.44 173.129 415.4 157.819 415.74 158.409C416.61 159.919 392.17 173.849 392.17 173.849C392.47 174.369 416.61 156.349 418.08 158.849C418.91 160.289 390.24 174.689 391.27 176.489C391.27 176.489 420.75 156.629 421.98 158.759C423.21 160.889 392.18 177.939 392.28 178.119C392.28 178.119 424.79 155.279 426.55 158.329C426.55 158.329 392.23 179.329 392.55 179.909C394.01 182.429 429.65 158.489 429.65 158.489L393.41 182.199C393.89 183.029 431.18 154.529 433.72 158.929C434.5 160.289 391.45 180.019 393.92 184.289C396.29 188.389 438.43 156.939 439.14 158.179C440.4 160.359 393.86 186.659 393.86 186.659C396.45 191.139 441.86 158.919 441.86 158.919L394.8 188.059C396.15 190.389 442.6 154.189 445.31 158.899C445.97 160.049 393.43 187.529 395.19 190.569C395.36 190.869 449.05 156.289 450.43 158.679C452.43 162.099 391.98 186.419 395.36 192.269C395.9 193.199 452.69 158.659 452.91 159.039C456.69 165.589 395.79 193.989 395.8 194.039C396.2 194.729 456.54 158.839 456.6 158.939C460.6 165.789 394.88 192.519 396.6 195.509C398.48 198.759 456.81 150.999 461.03 158.309C461.38 158.909 397.42 197.509 397.42 197.509C399.3 200.759 461.03 151.429 465.08 158.439C468.78 164.859 397.27 199.959 397.27 199.959C398.92 202.819 466.49 154.059 469.06 158.509C472.88 165.129 395.28 195.889 398.75 201.909C401.92 207.399 473.33 158.009 473.69 158.639C477.41 165.079 395.97 200.729 398.29 204.749C400.61 208.769 474.08 152.459 477.77 158.859C477.77 158.859 396.6 203.119 398.54 206.479C398.54 206.479 480.9 158.269 481.19 158.759C481.19 158.759 394.33 201.869 398.49 209.089C403.38 217.569 484.4 157.659 485.19 159.029C485.35 159.319 398.87 210.939 398.87 210.939L489.79 158.449C493 163.999 400 212.789 400 212.789C402.36 216.879 487.1 149.499 492.73 159.249C495.05 163.249 397.33 209.449 400.55 215.039C404.19 221.339 487.66 152.819 492.83 161.759C496.18 167.559 397 212.319 400.19 217.839C404.46 225.239 494.44 163.429 494.44 163.429L401.35 219.879C405.62 227.279 491.83 159.639 495.29 165.639L401.1 221.829C406.67 231.469 490.51 161.079 494.47 167.929C495.82 170.269 401.57 223.739 401.57 223.739C407.1 233.309 492.8 164.509 495.64 169.429C502.05 180.529 402.07 225.669 402.07 225.669C406.38 233.139 495.86 171.519 495.86 171.519C501.67 181.579 395.33 218.919 401.06 228.849C401.06 228.849 497.01 172.579 497.38 173.239C501.46 180.309 396.76 221.239 402.03 230.379C402.03 230.379 495.6 171.039 497.9 175.029C502.18 182.439 399.67 227.439 402.49 232.339L498.18 177.089L402.91 234.599C407.51 242.599 494.45 171.739 498.78 179.249C498.78 179.249 398.49 230.249 402.32 236.889C408.84 248.189 493.44 169.229 499.96 180.519C500.74 181.869 396.18 227.729 402.61 238.869C408.85 249.669 499.08 179.499 500.67 182.249C504.87 189.519 403.15 240.589 403.15 240.589C409.37 251.369 493.83 172.589 500.6 184.329C501.7 186.229 398.87 237.329 402.12 242.939C402.12 242.939 499.38 181.939 501.49 185.569C507.29 195.569 401.84 242.159 403.22 244.569C403.22 244.569 498.01 182.419 501.22 187.989C501.22 187.989 400.17 241.149 403.37 246.689C403.37 246.689 494.65 178.689 501.29 190.159C505.88 198.109 401.97 240.849 406.08 247.979C410.08 254.849 502.56 192.279 502.56 192.279C508.77 203.039 409.28 248.539 409.28 248.539C415.66 259.589 496.4 184.059 502.54 194.699C505.15 199.209 413.49 247.779 413.54 247.909C416.54 253.109 499.18 187.399 503.97 195.699C505.53 198.399 413.49 242.959 416.7 248.539C416.7 248.539 502.62 196.229 503.79 198.259C507.56 204.779 416.17 239.609 421.27 248.449C422.16 249.999 504.63 200.319 504.63 200.319C508.8 207.399 425 248.429 425 248.429C425 248.429 504 199.999 505.25 202.099C505.25 202.099 425.08 240.149 429.73 248.199C429.95 248.579 504.73 204.879 504.73 204.879C507.11 209.009 431.47 243.289 434.32 248.219C434.32 248.219 503.59 202.979 505.86 206.909C509.12 212.559 433.74 242.009 437.41 248.379C437.41 248.379 502.25 201.809 506.21 208.659L441.53 248.459C443.25 251.459 506.41 210.999 506.41 210.999C507.66 213.169 443.87 243.139 446.68 247.999C447.02 248.599 505.83 209.889 507.55 212.859C509.09 215.519 449.03 246.439 450.03 248.159C452.65 252.689 507.93 214.729 507.93 214.729C509.77 217.919 454.06 246.859 454.86 248.249C456.32 250.779 506.96 218.169 506.96 218.169C507.96 219.899 457.39 245.789 458.84 248.299C459.15 248.829 508.5 219.629 508.5 219.629C510.5 223.079 463.83 247.019 464.34 247.899C464.85 248.779 507.61 220.899 508.48 222.419C508.58 222.599 466.33 248.029 466.67 248.609C467.51 250.059 507.96 224.769 507.96 224.769C507.96 224.769 468 244.999 470 248.439C472.47 252.729 508.55 224.549 509.25 225.779C510.41 227.779 471.42 245.219 473.39 248.649C473.39 248.649 506.39 224.649 508.57 228.339C508.57 228.339 477.25 245.589 478.65 248.009C479.02 248.659 508.02 227.269 509.65 230.109C511.65 233.559 480.94 247.019 481.65 248.299C482.95 250.549 508.82 232.609 508.82 232.609C510.23 235.059 486.52 248.049 486.52 248.049C486.52 248.049 508.27 233.369 509.2 234.999C510 236.379 488.48 246.719 489.57 248.609C490.57 250.269 510.17 236.259 510.37 236.609C511.29 238.199 493.44 248.079 493.6 248.359C493.6 248.359 509.33 236.889 510.37 238.679C510.94 239.679 496.44 248.469 496.44 248.469C496.44 248.469 508.61 239.779 509.33 241.029C509.52 241.349 501.05 248.479 501.05 248.489C501.05 248.499 509.44 242.549 509.91 243.369C510.24 243.949 506.21 247.589 506.39 247.909C506.57 248.229 509.84 245.299 510.11 245.759C510.26 246.019 508.93 248.299 509.11 248.599C509.328 248.494 509.538 248.373 509.74 248.239" stroke="white" stroke-width="0.7" stroke-linecap="round" stroke-linejoin="round"/>
<path d="M127.45 264.091C127.45 264.091 127.53 264.011 127.54 264.041C127.55 264.071 128.36 266.261 128.36 266.261C128.58 266.651 132.51 263.871 132.51 263.871C132.84 264.451 127.8 269.111 127.94 269.351C128.19 269.781 137.08 264.071 137.08 264.071C137.42 264.661 128.48 271.071 128.48 271.071L141.94 263.301C142.09 263.551 126.66 272.081 127.67 273.831C128.02 274.441 144.87 261.641 145.85 263.331C145.95 263.511 127.45 275.171 128.16 276.391C129.26 278.291 150.16 263.691 150.16 263.691C150.34 264.001 128.33 278.081 128.33 278.081C128.72 278.761 153.43 263.591 153.43 263.591C153.43 263.591 128.49 279.361 129.08 280.391C129.47 281.071 158.13 263.621 158.13 263.621C158.13 263.621 128.46 281.601 129 282.591C129.54 283.581 159.55 261.361 161.1 264.061C162.65 266.761 129 283.001 129.85 284.541C130.23 285.201 164.01 259.111 166.48 263.391C166.48 263.391 128.59 286.101 129.19 287.131C130.97 290.211 168.8 262.631 169.51 263.851C172.08 268.311 129.75 289.071 129.75 289.071C131.29 291.741 174 262.831 174.3 263.351C175.48 265.351 128.06 290.011 129.23 292.031C130.96 295.031 176.83 262.291 177.81 264.031C180.39 268.501 129.81 293.761 129.81 293.761L181 264.161C182.61 266.951 127.37 290.281 130.5 295.701C130.91 296.411 185.29 263.551 185.5 263.941C186.65 265.941 131.32 297.031 131.32 297.031C131.46 297.271 186.12 260.361 188.32 264.131C188.78 264.931 129.16 297.131 130.76 299.881C135.01 307.241 193.21 263.301 193.44 263.691C195.86 267.881 129.12 298.891 130.97 302.101C130.97 302.101 196.72 262.731 197.33 263.791L132.18 303.471C134.96 308.291 199.57 262.141 200.62 263.961C202.27 266.821 132.1 305.521 132.1 305.521C134.5 309.671 202.1 258.521 205 263.431C209 270.291 131.77 307.931 131.77 307.931C134.91 313.371 205.05 256.851 208.85 263.431C210.66 266.561 127.36 300.301 132.64 309.431C135.22 313.901 207.79 256.341 211.99 263.621C215.35 269.441 133.57 311.271 133.61 311.351C135.61 314.851 209.92 254.421 215.5 264.071C215.5 264.071 132.94 312.701 133.38 313.461C134.72 315.791 213.38 253.721 219.26 263.881C219.26 263.881 127.95 305.071 133.8 315.191C139.16 324.471 223.54 263.361 223.54 263.381C226.54 268.571 133.86 317.381 133.86 317.381C134.08 317.771 223.32 258.501 226.45 263.921C227.99 266.591 129.36 309.471 134.91 319.071C140.46 328.671 230.81 263.591 230.86 263.681C230.91 263.771 133.58 318.441 135.4 321.591C141.87 332.791 233.4 259.701 235.67 263.701C241.86 274.421 128.78 312.411 135.67 324.291C135.85 324.611 241 263.481 241 263.481C245.37 271.051 136.94 325.341 136.94 325.341C142.81 335.511 238.48 254.861 243.61 263.751L136.27 327.751C140.11 334.401 242.27 256.511 246.64 264.031C251.31 272.111 135.3 326.461 136.94 329.301C136.94 329.301 240.44 253.881 247.23 265.631C249.36 269.321 134.5 326.551 137.4 331.581C138.12 332.821 246.33 267.581 246.81 268.411C250.59 274.951 137.64 333.561 137.64 333.561C140.19 337.971 245.64 265.641 248.06 269.811C249.81 272.811 133.93 325.331 139.53 335.031C144.89 344.311 247.53 272.691 247.53 272.691C248.44 274.271 136.05 330.741 139.78 337.201C143.98 344.471 247.59 274.961 247.59 274.961C253.41 285.041 137.79 336.891 139.59 339.961C144.48 348.441 246.89 277.961 246.89 277.961C251.99 286.791 140.53 342.021 140.53 342.021C142.74 345.851 242.27 271.091 247.53 280.231C247.53 280.231 134.82 330.951 141.8 343.031C147.8 353.491 246.69 282.471 246.69 282.471C251.49 290.781 138.69 340.381 141.4 345.031C144.45 350.321 247.12 283.261 247.4 283.811C251.4 290.661 139.01 340.001 142.88 346.701C145.21 350.701 244.08 281.701 246.93 286.621C247.93 288.311 141.24 343.771 143.78 348.161C149.19 357.531 246.78 287.271 247.38 288.351C248.28 289.911 144.69 350.211 144.69 350.211C148.89 357.481 241.98 280.641 247.79 290.691C249.88 294.321 141.68 345.971 145.41 352.431C151.85 363.591 242.6 285.301 247.41 293.561C247.41 293.561 144.78 346.751 148.46 353.131C154.65 363.851 246.46 293.591 247.71 295.831L152.71 353.181C152.71 353.181 242.85 291.621 246.97 298.761C252.77 308.761 157.07 353.271 157.07 353.271C160.79 359.701 243.97 295.081 247.45 301.091C250.71 306.741 161.54 353.421 161.54 353.421C161.54 353.421 241.22 294.821 246.67 304.271C249.33 308.881 166.4 353.041 166.4 353.041C170.77 360.611 243.29 298.711 247.59 306.161C247.59 306.161 167.22 346.161 171.24 353.071C172.33 354.951 247.48 308.731 247.62 308.971C247.62 308.971 171.95 349.111 174.43 353.401C174.9 354.211 244.25 305.971 247.34 311.311C248.08 312.601 176.43 348.891 179.06 353.461C179.35 353.971 245.23 311.461 246.87 314.311C250.87 321.191 180.25 345.501 184.58 352.991C186.18 355.771 243.14 309.871 247.17 316.851C251.2 323.831 185.06 350.091 187 353.441C188.27 355.641 247.19 318.691 247.19 318.691L189.83 353.691C190.83 355.371 247.35 320.481 247.35 320.481C251.01 326.821 192.87 349.901 194.97 353.541C197.07 357.181 247 321.001 248.13 322.851C248.13 322.851 198.29 351.741 199.2 353.321C202.01 358.181 246.62 325.641 246.75 325.871C248.05 328.131 202.57 350.341 204.13 353.041C205.01 354.571 246.13 327.201 246.79 328.411C246.84 328.501 207.91 353.341 207.91 353.341C208.45 354.271 245.48 326.211 247.83 330.291C248.3 331.101 212.23 353.721 212.23 353.721C212.87 354.831 245.54 330.181 247.4 333.411C249.4 336.811 216.05 352.841 216.25 353.181C217.11 354.661 245.66 333.481 246.83 335.521C247.44 336.581 217.02 350.781 218.66 353.621C218.66 353.621 247.13 336.711 247.34 337.061C247.34 337.061 223.57 351.961 224.21 353.061C225.29 354.921 247.34 338.161 248.01 339.321C248.01 339.321 225.45 351.321 226.75 353.621C226.81 353.731 245.88 340.191 246.92 341.981C246.92 341.981 231.27 351.851 231.99 353.091C231.99 353.091 247.13 343.921 247.32 344.241C247.96 345.351 235.45 353.321 235.63 353.641C235.63 353.641 246.17 346.521 246.63 347.301C246.63 347.301 239.41 353.391 239.55 353.641L247.55 349.001C247.67 349.201 244.11 353.661 244.11 353.661L247.11 351.911" stroke="white" stroke-width="0.7" stroke-linecap="round" stroke-linejoin="round"/>
<path d="M265.21 158.56C265.21 158.56 265.35 158.44 265.37 158.47C265.54 158.77 264.26 161.55 264.26 161.56C264.26 161.57 269.16 158.44 269.26 158.66C269.55 159.17 263.83 163.89 264.11 164.39C264.48 165.04 274.11 157.39 274.65 158.3C274.78 158.53 264.87 164.98 265.23 165.59C265.89 166.73 277.41 157.59 277.83 158.31C277.83 158.38 264.36 168.73 264.36 168.73C264.58 169.11 281.87 158.62 281.87 158.62C281.87 158.62 263.7 169.62 264.45 170.93C265.45 172.71 284.36 156.67 285.56 158.74C286.36 160.12 264.49 173.66 264.49 173.66C264.49 173.66 290.62 157.33 291.16 158.26C291.41 158.7 263.35 173.17 264.92 175.89C266.76 179.07 295.03 158.51 295.03 158.51C296.74 161.51 264.15 176.51 264.88 177.8C265.76 179.32 298.14 158.6 298.14 158.6C300.4 162.52 262.05 176.91 263.95 180.2C264.31 180.82 301.39 158.58 301.39 158.58C303.39 161.98 265.22 181.74 265.22 181.74C265.37 182 305.11 158.74 305.11 158.74C305.11 158.74 263.31 180.37 265.4 184C265.4 184 306.23 154.93 308.61 159.05C311.28 163.67 263.61 183.05 265.43 186.19C266.96 188.84 310.94 153.73 313.62 158.37C315.17 161.06 264.26 189.23 264.26 189.23C267.8 195.35 317.6 157.79 317.87 158.23C320.2 162.23 261.74 185.42 265.04 191.13C268.04 196.4 321.49 158.54 321.49 158.54C322.34 160 264.72 192.54 265.23 193.46C267.85 198 324.77 159.09 324.77 159.09C326.1 161.4 260.82 189.61 264.47 195.92C265.58 197.85 326.67 153.16 329.63 158.3C333.82 165.56 262.69 195.2 264.29 197.98L332.29 158.72C334.56 162.65 264.68 200.1 264.68 200.1C264.68 200.1 334.49 155.4 336.39 158.7C336.39 158.7 261.39 194.7 265.39 201.7C269.88 209.48 339.9 158.7 339.9 158.7C343.07 164.18 260.3 196 265.14 204.38C269.37 211.71 342.04 153.78 344.72 158.43C348.11 164.3 259.04 198.57 264.25 207.6C267.4 213.06 345.04 151.94 348.94 158.7C351.58 163.26 264.03 209.63 264.33 210.14C266.59 214.06 353.02 157.74 353.54 158.64C356.82 164.33 260.35 203.53 265.2 211.95C265.2 211.95 353.2 152.72 356.86 159.03C360.28 164.96 263.41 212.76 264.6 214.82C264.6 214.82 357.3 150.93 361.79 158.71C361.79 158.71 259.03 209.32 263.92 217.78C266.48 222.22 359.22 147.68 365.75 158.99C369.91 166.19 263.99 219.75 263.99 219.75C270.09 230.32 368.35 159.5 368.35 159.5C368.35 159.5 260.68 213.29 265.35 221.33C270.83 230.83 362.44 152.44 367.99 162.07C367.99 162.07 259.39 213.07 265.34 223.38L369.18 163.38C375.31 174 260.83 217.75 265.3 225.5C265.3 225.5 365.3 158.03 369.54 165.31C371.89 169.37 262.85 223.78 265.3 228.02C267.75 232.26 370.19 167.46 370.19 167.46C370.95 168.78 259.59 221.25 264.95 230.53C269.95 239.19 371.38 169.08 371.38 169.08C375.55 176.3 265.14 232.52 265.14 232.52C270.09 241.09 364.59 160.52 370.9 171.46C376.72 181.55 258.15 224.28 264.36 235.04C264.36 235.04 370.36 170.33 371.88 172.96C378 183.57 263.59 234.13 265 236.5C270.77 246.5 371.69 174.91 371.69 174.91C376.97 184.05 262.97 237.46 263.94 239.14C263.94 239.14 366.53 164.84 373.06 176.14C380.06 188.31 264.48 240.89 264.48 240.89C264.48 240.89 371.13 173.25 373.76 177.8C379.3 187.39 258.88 232.54 264.76 242.68C269.44 250.79 373.27 177.55 374.35 179.41C374.51 179.68 258.98 235.11 264.64 244.92C271.94 257.56 373.56 179.2 374.79 181.33C376.52 184.33 263.79 245.25 265.06 247.43C265.06 247.43 371.22 178.13 374.69 184.14C381.96 196.73 266.02 246.71 266.86 248.14C266.86 248.14 371.41 178.14 375.57 185.37C382.75 198 265.13 239 270.35 248C274.64 255.43 372.07 180.61 375.82 187.11C376.46 188.23 269.82 240.6 274.1 248.11C274.81 249.33 376.64 188.91 376.64 188.91C376.64 188.91 272 237.77 277.85 247.81C282.59 256 371 180.13 377 190.57C377.78 191.92 277.66 241.4 281.64 248.29C286 256 372.05 184.71 377 193.24C378.09 195.14 284.09 246.07 285.39 248.33C286.29 249.88 378.15 193.93 378.51 194.56C384 204 290.9 248 290.9 248C292.13 250.12 378.03 195.43 379.02 197.13C382.91 203.87 290.21 239.53 295.12 248.04C298.18 253.35 378.46 199.92 378.46 199.92C382.33 206.62 295.15 242.55 298.55 248.44C299.91 250.79 379.79 201.53 379.79 201.53C381.08 203.76 298.29 242.78 301.65 248.61C303.01 250.97 377.87 200.17 379.79 203.5C382.91 208.91 305.91 248.32 305.91 248.32C307.53 251.13 379.39 205.89 379.39 205.89C380.97 208.62 307.39 246.77 308.39 248.65C308.8 249.35 375.71 200.72 379.63 207.52C379.63 207.52 312.95 248.13 313.23 248.61C313.23 248.61 379.82 209.68 380.03 210.04C380.03 210.04 317.97 247.21 318.62 248.33C321.81 253.85 380.62 212.54 380.62 212.54C380.62 212.54 319.83 241.11 323.73 247.87C324.16 248.62 381.41 214.57 381.41 214.57C382.71 216.82 325.09 244.93 326.87 248.03C326.87 248.03 380.13 215.58 380.87 216.85C382.78 220.16 329.43 246.6 330.42 248.32C330.42 248.32 381.1 218.32 381.42 218.88C382.66 221.04 331.13 243.82 333.88 248.58C334.49 249.63 379.02 216.58 381.58 221.04C381.58 221.04 337.15 245.04 339 248.23C339.92 249.82 381.2 220.23 382.78 222.95C382.78 222.95 339.01 243.8 341.71 248.48C342.8 250.36 382.48 224.94 382.48 224.94C383.53 226.77 346.15 248.2 346.32 248.5C347.56 250.64 382.32 227.72 382.32 227.72C384.32 231.26 347.32 245 349.44 248.65C349.99 249.59 382.44 229.65 382.44 229.65C383.78 231.97 353.58 248.3 353.58 248.3C354.09 249.19 383.26 231.17 383.26 231.17L358.52 248.26C358.52 248.26 382.32 231.63 383.57 233.8C383.57 233.8 359.34 246.13 360.84 248.72C361.26 249.45 382.99 233.72 383.96 235.37C384.7 236.65 365.7 247.13 366.36 248.27C366.72 248.89 383.47 236.77 384.17 237.99C384.74 238.99 369.61 248.63 369.61 248.63L383.61 240.57C383.61 240.57 373.84 247.14 374.36 248.04C374.36 248.04 384.45 241.98 384.55 242.16C384.78 242.57 378.7 248.28 378.74 248.35L384.88 244.81C385.03 245.07 382.79 248.09 382.88 248.21C383.342 247.888 383.83 247.607 384.34 247.37" stroke="white" stroke-width="0.7" stroke-linecap="round" stroke-linejoin="round"/>
<path d="M1.61035 264.111C1.61035 264.111 1.79035 263.951 1.81035 263.991C1.83035 264.031 2.12035 265.991 2.15035 265.991C2.18035 265.991 5.98035 263.151 6.25035 263.621C6.43035 263.931 2.25035 267.831 2.60035 268.411C3.06035 269.211 10.6804 263.201 10.9104 263.611L3.00035 271.001C3.25035 271.431 16.0004 263.491 16.0004 263.491L2.25035 273.261C2.32035 273.391 18.1604 264.081 18.1604 264.081C18.1604 264.081 1.45035 274.761 2.23035 276.081C3.23035 277.801 22.3904 262.491 23.2304 263.951C24.6204 266.371 2.23035 278.111 2.47035 278.511C4.03035 281.211 26.1604 261.511 27.6004 264.001C28.3004 265.231 3.00035 280.411 3.00035 280.411C3.46035 281.211 30.2703 260.291 32.1703 263.571C33.1703 265.351 2.57035 281.481 3.43035 282.961C4.59035 284.961 36.6604 262.081 37.4304 263.351L2.77035 285.801C3.11035 286.391 40.5404 263.941 40.5604 263.981C41.2504 265.171 0.780352 283.561 3.25035 287.841C5.56035 291.841 42.3303 259.211 44.9604 263.761C45.8704 265.331 2.21035 287.961 3.44035 290.101C5.66035 293.941 48.3004 263.411 48.6404 264.001C48.7704 264.221 2.06035 286.861 4.56035 291.191C5.88035 293.481 52.0004 263.801 52.0004 263.801C52.4304 264.551 3.84035 294.341 3.84035 294.341C6.41035 298.791 56.1403 261.341 57.3503 263.451C60.2903 268.541 2.07035 290.221 5.35035 295.881C5.78035 296.621 61.6304 263.381 61.6304 263.381C62.1104 264.221 4.06035 295.451 5.40035 297.761C5.40035 297.761 62.5003 259.121 64.9503 263.381C67.1303 267.161 5.15035 300.581 5.15035 300.581C8.91035 307.061 68.4604 264.001 68.4604 264.001C68.4604 264.001 4.13035 301.001 5.37035 303.181L73.4604 263.871C73.4604 263.871 5.30035 304.871 5.73035 305.591C6.41035 306.771 75.6504 258.941 78.3704 263.651C80.8004 267.861 3.59035 302.381 6.37035 307.221C6.37035 307.221 79.2104 261.031 81.0004 264.131C83.2804 268.001 4.42035 305.001 7.07035 309.621C12.2304 318.561 85.4303 261.181 86.8103 263.621C91.6403 271.981 1.94035 303.801 6.73035 312.111C10.2304 318.161 86.8404 258.301 90.1104 263.971C91.7004 266.731 7.87035 312.971 8.39035 313.851C10.7104 317.851 92.5703 257.851 95.7803 263.391C95.7803 263.391 7.13035 314.941 8.11035 316.641C13.1104 325.381 99.2904 261.841 100.22 263.461C100.22 263.461 4.22035 310.111 8.87035 318.131C11.5904 322.841 102.24 264.221 102.24 264.221C106.81 272.131 8.37035 316.791 9.84035 319.331C14.4804 327.331 105.04 263.871 105.26 264.241C111.48 274.941 10.0604 322.001 10.0604 322.001C16.0604 332.451 109.16 264.781 109.16 264.781C115.84 276.351 10.0904 323.881 10.0904 323.881C14.1904 331.001 108.72 267.001 108.72 267.001C110.8 270.611 6.36035 317.761 11.0104 325.811C15.6604 333.861 108.5 266.871 109.65 268.811C109.65 268.811 12.1304 327.491 12.1904 327.591C12.2504 327.691 106.56 265.761 109.74 271.271C115.81 281.791 5.93035 318.571 12.2304 329.491C13.5004 331.691 106 266.001 110.09 273.001C116.49 284.101 12.0004 332.321 12.0004 332.321C12.1604 332.601 107.63 272.931 109.44 276.071C115.15 285.971 10.9904 330.511 13.2504 334.431C13.2504 334.431 107.47 275.241 109.54 278.841C109.54 278.841 10.0204 329.021 14.0504 335.991C18.4604 343.621 108.76 279.911 109.36 280.991C109.81 281.781 8.22035 326.761 14.6004 337.811C20.1304 347.391 110.31 282.551 110.31 282.551L15.2004 340.331C18.9204 346.781 106.65 278.231 110.68 285.211C110.68 285.211 13.3304 337.001 16.3804 342.281C20.9304 350.161 110.38 288.001 110.38 288.001C115.38 296.711 15.5304 341.001 17.3304 344.081C23.4504 354.681 105.75 279.441 111.64 289.631C112.48 291.081 13.5104 340.721 17.0404 346.821C17.0404 346.821 107.28 285.931 111.04 292.521L18.0004 348.821C22.2104 356.121 106.74 284.701 112.32 294.361C112.7 295.021 19.1004 350.361 19.1004 350.361C22.0204 355.411 107.91 288.521 112.48 296.451C115.78 302.171 19.7904 351.851 19.7904 351.851C22.4804 356.501 106.06 288.191 112.06 298.581C112.42 299.201 20.2404 353.391 20.2804 353.461C26.2804 363.901 109.48 294.931 112.52 300.201C115.77 305.831 23.6904 353.771 23.6904 353.771C26.5504 358.771 113.11 302.141 113.11 302.141C114.74 304.961 23.0004 346.741 26.9704 353.621C29.5404 358.071 113.55 303.621 113.55 303.621C116.93 309.471 26.3104 346.931 30.1804 353.621C33.5104 359.391 108.91 297.321 113.6 305.461C118.42 313.801 33.3104 353.681 33.3104 353.681L113.37 307.461C117.55 314.701 34.1804 348.251 37.2704 353.601L114 309.311C118.56 317.221 42.4004 353.001 42.4004 353.001C42.4004 353.001 110.87 306.891 113.72 311.821C117.04 317.561 43.4704 349.321 45.7204 353.301C47.1704 355.821 111.64 307.631 114.94 313.301C114.94 313.301 46.8304 348.641 49.4904 353.301C51.9404 357.551 115.37 314.581 115.66 315.101C117.76 318.741 53.4704 353.031 53.4704 353.031C53.9104 353.801 114.91 317.561 114.91 317.561C116.58 320.461 55.7404 350.111 57.6404 353.401C59.1504 356.021 114.64 315.811 116.64 319.331C117.16 320.231 62.3904 353.331 62.3904 353.331C62.3904 353.331 115.3 321.561 115.83 322.481C115.83 322.481 63.3204 348.011 66.2204 353.041L117 323.721C117 323.721 68.1203 351.371 69.3503 353.501C70.0503 354.711 116.35 325.701 116.67 326.181C116.67 326.181 72.8803 351.851 73.7803 353.411C73.7803 353.411 117.09 327.411 117.51 328.161C118.39 329.691 77.3204 353.301 77.3204 353.301C77.5304 353.671 117.62 330.031 117.62 330.031C119.62 333.561 82.1404 353.031 82.2204 353.201C83.2204 355.011 118.49 331.201 118.97 331.981C120.45 334.541 83.7704 350.641 85.3204 353.321C86.5004 355.321 117.81 332.141 118.86 333.961C118.86 333.961 89.9904 352.851 90.0804 352.961C91.3204 355.111 117.69 333.571 119.18 336.161C119.38 336.501 92.0704 349.721 93.8604 352.831C94.9104 354.651 120.57 337.411 120.57 337.411C120.71 337.651 95.4404 350.761 97.0104 353.491C97.0104 353.491 119.01 337.921 120.23 340.081L102.34 352.831C102.34 352.831 121.07 339.831 122.03 341.461L105.3 353.371C106.15 354.841 122.71 343.321 122.71 343.321C123.08 343.961 110.43 351.581 111.15 352.821C111.63 353.661 122.22 345.271 122.72 346.141C122.72 346.141 113.35 352.861 113.72 353.541C113.99 354.011 123.51 346.631 124.05 347.541C124.44 348.211 118.84 352.911 119.05 353.191C119.05 353.191 123.66 350.191 123.81 350.441C123.96 350.691 123.03 353.291 123.2 353.591C123.2 353.651 125.35 352.221 125.41 352.321" stroke="white" stroke-width="0.7" stroke-linecap="round" stroke-linejoin="round"/>
<path d="M145.28 158.64C145.401 158.581 145.518 158.515 145.63 158.44C145.71 158.57 144.63 160.83 144.71 160.93C144.87 161.2 148.95 158.31 149.03 158.44C149.22 158.77 142.82 164.63 142.82 164.63C143.52 165.85 152.97 158.77 152.97 158.77C153.77 160.15 140.88 167.77 141.1 168.18C141.1 168.18 157.63 157.99 157.91 158.47L140.98 170.47C140.98 170.47 161.5 157.99 161.77 158.47C161.77 158.47 138.66 171.47 139.77 173.39C140.88 175.31 164.07 158 164.66 159C164.66 159 138.3 175 139.02 176.19C140.17 178.19 169.36 158.66 169.37 158.67C170.82 161.19 137.55 176.56 138.6 178.38C140.77 182.14 171.33 155.38 173.13 158.45C173.61 159.29 136.85 179.16 138.05 181.25C139.75 184.19 174.71 155.03 176.9 158.82C176.95 158.91 135.9 182.82 136.57 184C136.94 184.64 180.47 157.29 181.06 158.31C181.06 158.31 134.76 182.94 136.7 186.31C137.44 187.6 182.64 155.31 184.58 158.67C186.9 162.67 135.47 188.67 135.8 189.25C136.32 190.15 185.62 153.86 188.49 158.83C190.49 162.37 135.32 191.97 135.32 191.97C136.66 194.3 190.32 155.78 192.25 159.1L133.76 194.81C135.65 198.09 194.17 154.13 196.68 158.48C201.03 166.01 129.18 190.62 133.19 197.55C136.78 203.77 196.06 152.03 200.06 158.94C200.21 159.2 130.99 195.46 133.55 199.88C135.85 203.88 205.42 158.38 205.42 158.38C209.09 164.73 130.22 198.54 132.57 202.61C133.18 203.67 205.73 153.61 208.66 158.68C210.31 161.54 130.76 203.43 131.87 205.35C131.87 205.35 208.1 151.35 212.44 158.83C214.92 163.13 130.93 204.07 132.44 206.74C135.82 212.6 212.01 151.28 216.14 158.42C216.14 158.42 130.22 206.06 131.93 209.04C133.64 212.02 214.01 149.04 219.47 158.5C221.12 161.37 130.05 210.66 130.66 211.71C130.66 211.71 222.58 158.4 222.66 158.58C222.66 158.58 126.25 204.44 131.27 213.13C135.72 220.83 221.95 153.64 225.04 158.99C225.78 160.27 129.04 215.16 129.95 216.69C132.73 221.51 223.45 147.01 230.24 158.79C232.24 162.29 124.32 207.79 130.38 218.25C133.38 223.45 233.81 158.54 233.81 158.54C236.41 163.04 129.69 221.13 129.69 221.13C136.12 232.28 233.06 149.95 238.04 158.58C239.22 160.58 129.72 223.23 129.72 223.23C129.72 223.23 238.5 152 242.15 158.31L128.52 226.51C135.78 239.09 238.84 144.78 246.65 158.31C253.5 170.17 128.77 227.91 129.24 228.72C132.77 234.84 245.29 155.55 247.96 160.18C253.68 170.09 123.7 224.42 128.14 232.11C130.83 236.78 244.35 157.88 247.44 163.23C247.44 163.23 123.04 223.89 129.12 234.41C130.21 236.3 244.69 160.89 247.63 165.99C248.7 167.84 126.63 234.83 128.13 237.45C128.36 237.86 246.66 169.02 246.66 169.02C250.17 175.1 124.58 233.34 128.08 239.41C133.88 249.41 242.56 161.41 247.72 170.33C247.72 170.33 120.59 227.33 128.72 241.41C132.72 248.41 247.02 173.11 247.02 173.11C247.21 173.44 125.27 238.26 128.35 243.59C129.64 245.83 247.41 174.85 247.41 174.85C252.89 184.34 124.16 240.57 127.58 246.5C135 259.32 248 176.87 248.08 176.93C252.46 184.52 123.55 237.49 129.57 247.93C129.57 247.93 244.51 174.93 247.38 179.93L131.85 248.66C132.19 249.25 244.95 176.91 247.74 181.75C254.07 192.75 136.92 248.52 136.92 248.52C136.92 248.52 244.14 180.85 246.64 185.17C248.35 188.17 138.77 243.76 141.16 247.89L246.59 187C251.59 195.64 145.27 247.89 145.27 247.89C146 249.15 247.6 188.81 247.6 188.81C250.94 194.6 144.96 240.81 149.2 248.2C149.2 248.2 240.95 181.57 246.87 191.81C247.07 192.16 151.75 247.08 152.39 248.19C154.06 251.08 247.04 193.19 247.21 193.44C247.38 193.69 151.67 240.44 156.38 248.58C159.26 253.58 241.21 185.45 247.38 196.07C247.38 196.07 160.17 247.07 161.06 248.59C162.54 251.15 248.06 198.38 248.06 198.38C250.51 202.62 161.72 240.59 165.88 247.8C167.03 249.8 244.48 195.55 247.45 200.7C252.8 209.96 170.55 247.8 170.55 247.8C170.55 247.8 246.09 201.06 247.44 203.41C251.74 210.85 173.29 248.29 173.29 248.29C177.14 254.96 244.29 198.91 247.95 205.19C252.45 212.98 175.39 245.32 176.95 248.09C179.76 252.95 247.61 206.65 247.89 207.09C247.89 207.09 177.4 242.61 180.65 248.23C183.03 252.35 247.21 209.8 247.21 209.8C247.21 209.8 184.34 245.15 185.85 247.8C187.36 250.45 247.76 212.06 247.76 212.06C249.68 215.39 189.14 248.06 189.14 248.06C192.23 253.41 245.81 211.06 247.67 214.27C250.15 218.57 189.57 242.09 193.02 248.07C193.49 248.88 245.67 214.49 247.02 216.88C249.93 221.88 195.02 242.67 198.02 247.97C198.02 247.97 244.5 213.46 247.83 219.21C249.12 221.45 199.33 243.28 202.15 248.16C203.01 249.65 246.98 219.7 248.1 221.63C248.26 221.9 204.67 244.52 206.7 248.05L247.64 224.41C248.64 226.12 210.71 246.73 211.4 247.91C213.17 250.97 246.85 227.44 246.85 227.44C248.43 230.17 214.44 247.11 215.16 248.34C215.27 248.54 246.87 229.07 247.29 229.79C247.71 230.51 220.63 247.57 220.8 247.86C220.8 247.86 245.87 231.1 246.85 232.86C247.68 234.3 224.25 245.86 225.49 248.05C226.29 249.43 247.38 235.41 247.38 235.41C247.61 235.8 228.48 247.2 228.97 248.05C229.77 249.44 245.53 235.67 246.75 237.78C247.58 239.23 232.29 248.24 232.31 248.28C233.03 249.52 246.51 239.77 246.65 240C247.16 240.89 236.78 247.85 236.78 247.85C237.46 249.03 246.24 240.69 246.98 241.96C247.44 242.75 239.8 247.27 240.08 247.76C240.51 248.5 247.44 243.15 247.6 243.42C247.6 243.42 242.6 248.23 242.69 248.3C243 248.83 246.69 245.53 246.87 245.89C246.87 245.89 247 248.17 247.02 248.2C247.04 248.23 247.36 247.99 247.37 248" stroke="white" stroke-width="0.7" stroke-linecap="round" stroke-linejoin="round"/>
<path d="M19.7604 159.111C19.9072 159.044 20.0478 158.963 20.1804 158.871C20.4104 159.281 18.3504 162.471 18.4904 162.711C18.9004 163.421 25.7104 157.711 26.0904 158.321C26.2504 158.591 16.8204 165.901 16.9404 166.121C16.9404 166.121 28.5004 157.621 29.2904 158.991C29.8504 159.991 15.1004 167.711 15.8804 169.061C16.6604 170.411 33.1404 156.851 34.1104 158.531C34.1104 158.531 15.5304 171.611 15.6204 171.761C15.6204 171.761 37.4304 157.591 38.1204 158.761C38.1204 158.761 12.5604 173.221 13.8904 175.531C15.2204 177.841 42.2104 158.741 42.4004 159.071C43.2104 160.471 11.8604 175.901 13.1604 178.161C13.6504 179.011 46.2304 156.271 47.4404 158.371C49.7904 162.431 9.80038 177.271 12.2604 181.521C12.9904 182.791 50.8004 155.641 52.3704 158.361C52.3704 158.361 10.4304 181.251 12.0004 183.971C14.2804 187.921 56.2404 158.431 56.2404 158.431C56.9804 159.721 8.24038 183.801 10.3604 187.431C10.7504 188.101 59.0004 156.331 60.3104 158.591C62.4204 162.241 8.31038 188.511 9.43038 190.401C13.1004 196.761 63.5904 156.991 64.5104 158.601L9.85038 192.601C13.5904 199.091 68.1504 157.811 68.6404 158.661L8.77038 195.211C10.0004 197.291 68.0004 151.001 72.3304 158.511C76.1004 165.051 7.33038 198.361 7.33038 198.361C8.16038 199.791 72.3304 151.671 76.3304 158.531C76.3304 158.531 2.75038 193.311 7.13038 200.901C7.70038 201.901 76.8804 152.601 80.3604 158.621C80.3604 158.621 3.31038 196.211 7.17038 202.891C7.17038 202.891 80.7004 152.351 84.1704 158.421C89.1704 167.161 1.04038 197.491 6.17038 206.301C10.2604 213.381 89.1704 158.361 89.1704 158.361C93.0904 165.161 4.71038 207.261 5.50038 208.611C11.0704 218.261 88.4504 153.151 91.7204 158.831C91.7204 158.831 2.89038 205.741 5.66038 210.531C5.66038 210.531 90.8104 148.801 96.2504 158.221C100.25 165.081 4.53038 212.731 4.72038 213.071C9.13038 220.711 97.9404 157.451 98.7204 158.801C99.3604 159.911 5.38038 214.911 5.38038 214.911L102.9 158.601C103.23 159.171 -0.489621 209.331 4.47038 217.921C9.79038 227.131 103.72 154.511 106.36 159.091C106.36 159.091 3.16038 217.561 4.36038 219.711C7.47038 225.001 110 157.171 110.65 158.381C116.93 169.251 1.36038 219.381 3.18038 222.561C3.47038 223.071 108.85 150.171 113.78 158.711C121 171.181 0.000379086 217.911 3.60038 224.191L116.65 158.921C124.08 171.791 -1.34962 218.721 3.28038 226.831C3.42038 227.071 114.28 145.541 121.77 158.421C124.13 162.501 2.10038 227.501 3.11038 229.241C10.8804 242.701 117.88 146.551 125 158.861C131 169.291 -1.53962 225.591 2.14038 232.001C4.37038 235.821 118.2 150.001 124.66 161.231C124.66 161.231 -0.149621 227.801 3.07038 233.381C3.07038 233.381 118.71 155.321 123.6 163.791C125.6 167.301 0.600379 234.411 1.70038 236.251C4.70038 241.411 121.14 162.551 123.19 166.111C129.1 176.331 -4.61962 226.721 1.90038 238.001C1.90038 238.001 116.6 159.661 121.85 168.751C121.85 168.751 -4.96962 226.271 2.85038 239.751C3.23038 240.411 112.7 157.621 120.85 171.651C121.45 172.851 -0.159621 237.861 2.26038 242.001C2.26038 242.001 115.83 165.861 120.41 173.791C123 178.301 0.210379 242.451 1.38038 244.471C9.43038 258.411 119.38 176.351 119.38 176.351L1.55038 247.191C9.29038 260.601 118.55 178.661 118.97 179.401C118.97 179.401 0.400379 243.401 3.32038 248.461C7.81038 256.241 117.6 180.831 118.32 182.071C118.82 182.941 2.72038 239.171 8.02038 248.361C13.5204 257.891 117.3 185.271 117.3 185.271C123.63 196.271 7.30038 240.271 11.8304 248.271C13.5904 251.321 116.62 187.771 116.62 187.771C119 191.891 14.9904 246.771 15.8204 248.201C16.0804 248.661 116.06 188.701 116.76 189.921C118.64 193.171 13.3304 237.831 19.4004 248.351C25.3204 258.601 113.4 188.701 115.71 192.741C121.64 203.001 21.3204 246.001 22.6204 248.261C26.3804 254.781 115.46 194.661 115.46 194.661C121.01 204.271 22.7504 243.341 25.6204 248.311C26.1704 249.251 112.09 191.951 114.88 196.781C114.88 196.781 29.4804 246.551 30.3004 247.981C30.3004 247.981 113.56 197.921 114.43 199.411C118.74 206.871 29.9304 243.961 32.6004 248.581C32.7704 248.881 112.66 200.481 113.47 201.891C116.57 207.261 33.1304 240.761 37.3404 248.051L113.14 204.291C113.46 204.851 40.2104 245.861 41.4704 248.051C42.1404 249.211 112.87 206.831 112.87 206.831C116.64 213.371 45.3804 248.081 45.3804 248.081C47.0604 251.001 111.01 206.791 112.48 209.341C112.48 209.341 48.9704 248.151 49.2704 248.661C49.2704 248.661 110.84 210.981 111.76 212.581C111.76 212.641 54.4204 247.411 54.6604 247.831C54.6604 247.831 110.77 211.981 112.27 214.571C113.33 216.411 57.7404 246.981 58.5604 248.401C60.0304 250.951 111.96 217.401 112.04 217.521C112.12 217.641 60.5604 244.001 62.9104 248.001C66.2404 253.771 108.27 215.171 111.15 220.151C113.7 224.561 64.9004 245.151 66.6904 248.291C67.1304 249.051 108.23 218.551 110.69 222.871L71.0704 248.631C72.0704 250.431 110.68 225.191 110.92 225.631C112.56 228.481 74.7204 245.751 76.1204 248.161C77.8204 251.101 109.65 225.661 111.01 228.021C111.34 228.601 78.1504 246.081 79.3904 248.231L110.66 230.171C110.66 230.171 83.7604 247.851 84.0804 248.401L109.58 233.681C109.74 233.961 88.2204 247.571 88.7204 248.451C89.0504 249.031 109.58 235.621 109.92 236.211C110.16 236.631 92.4004 247.651 92.9204 248.501L109.24 239.081C109.47 239.481 96.7704 247.661 96.9604 248.001C97.5304 249.001 108.75 239.431 109.51 240.751C109.51 240.751 100.77 247.751 100.83 247.871C101.31 248.701 110.2 242.301 110.27 242.421C110.45 242.721 102.75 248.661 102.75 248.661C103.07 249.221 108.3 244.661 108.66 245.251L107.9 247.951C107.9 247.951 109.75 246.641 109.9 246.821" stroke="white" stroke-width="0.7" stroke-linecap="round" stroke-linejoin="round"/>
<path d="M265.12 15.1C265.12 15.1 265.28 15 265.29 15C265.146 15.9133 265.066 16.8356 265.05 17.76C265.05 17.76 265.92 17.24 265.93 17.25C265.622 18.1997 265.361 19.1642 265.15 20.14C265.15 20.14 268.89 17.67 269.03 17.9C269.17 18.13 264.32 22.71 264.32 22.71C264.32 22.71 270 19.44 270 19.46C270.38 20.12 265.18 23.84 265.25 23.96C265.32 24.08 270 20.52 270.29 21C270.73 21.77 263.93 25.95 264.29 26.64C264.65 27.33 273.19 21.5 273.19 21.5C273.72 22.42 263.86 27.57 264.44 28.58L273.31 23.46C273.31 23.46 264.46 30.93 264.55 31.08C265.28 32.34 275.95 23.82 276.24 24.33C277 25.65 264.78 31.82 265.24 32.7C265.98 33.98 276.07 25.59 276.44 26.23C276.81 26.87 264.38 35.12 264.38 35.12C264.48 35.29 277.38 26.38 277.89 27.32C277.97 27.46 264.75 37.39 264.75 37.39C265.17 38.11 280.11 28.52 280.11 28.52C280.11 28.52 263.27 38.61 264.2 40.22C264.6 40.92 280.82 28.47 281.75 30.09C282.03 30.57 264.44 42.37 264.6 42.66C264.88 43.14 282.72 31.74 282.92 32.09C283.64 33.33 263.8 45.81 263.8 45.81L285.06 33.54C285.06 33.54 263.18 45.46 264.54 47.81C265.73 49.87 286.31 33.43 287.09 34.81C287.09 34.81 263.09 47.69 264.63 50.42C265.13 51.28 288.47 36.58 288.5 36.64C288.53 36.7 264.32 52.64 264.43 52.86C264.43 52.86 288.33 37.27 289.11 38.61C289.11 38.61 264.11 55.48 264.24 55.68C265.81 58.39 290.39 39.21 290.98 40.24C291.77 41.61 262.98 55.81 264.25 57.95C264.52 58.42 292.25 41.8 292.25 41.8L264.79 59.66C264.79 59.66 293.42 40 294.79 42.39C294.79 42.39 263.47 59.95 264.79 62.23C265.04 62.66 293.68 41.23 295.57 44.46C296.26 45.65 262.99 61.96 264.44 64.46C266.26 67.61 296.78 44.38 297.39 45.46C297.39 45.46 263.69 65.6 264.2 66.46C265.2 68.2 296.29 45.04 297.54 47.21C297.65 47.41 262.54 64.71 264.79 68.58C267.18 72.72 298.45 47.88 299 48.83C299.45 49.61 264.77 71.01 264.77 71.01C265.77 72.78 299.64 47.01 301.3 49.92C302.3 51.68 264.14 73.54 264.41 74.02C265.32 75.59 302.66 51.85 302.7 51.91C304.43 54.91 263.22 75.02 263.95 76.3C266.49 80.7 302.19 49.76 304.12 53.11C305.71 55.87 262.37 73.78 264.61 77.66C264.88 78.13 304.61 54.56 304.61 54.56C304.91 55.07 263.9 78.85 264.56 79.99C267.35 84.82 303.56 52.23 305.85 56.15C307.28 58.63 261.48 78.37 264.01 82.75C265.73 85.75 307.47 56.75 307.87 57.43C307.87 57.43 265.34 84.2 265.42 84.34L308.93 59.22C311.3 63.32 263.93 87.02 264.31 87.67C266.6 91.67 310.46 60.99 310.47 61.02C311.68 63.11 261.07 85.09 264.16 90.43C265.16 92.14 311.57 62.95 311.62 63.03C313.62 66.48 264.42 92.15 264.42 92.15C266.02 94.92 312.98 64.15 312.98 64.15C314.68 67.09 261.91 90.6 264.1 94.39C264.1 94.39 314.16 64.7 314.5 65.29C315.74 67.44 264.94 95.9 264.94 95.9L314.9 67C315.68 68.36 264.51 97 264.98 97.84C265.25 98.31 315.31 65.84 316.57 68.05C319.85 73.74 264.74 99.41 265.2 100.21C267.2 103.76 315.31 66.95 317.2 70.21C318.86 73.08 264.37 103.35 264.37 103.35C265.03 104.49 316.58 68.66 318.55 72.07C318.55 72.07 262.87 100.3 265.45 104.77C266.74 107 316.36 68.67 319.26 73.7L264.55 107.5L321.55 74.57C323.18 77.39 261.02 103.67 264.3 109.36C264.3 109.36 318.22 70.2 321.7 76.22C321.7 76.22 261.1 105.14 264.6 111.22C268 117 320.12 73.13 322.74 77.67C323.57 79.1 260.87 108.22 264.12 113.84C264.12 113.84 322.29 76.95 323.72 79.43C326.78 84.73 261 109.84 264.6 116C264.6 116 324.54 78.46 325.81 80.66C327.81 84.18 261.58 112.74 264.63 118.03C267.1 122.3 323.82 79.45 325.73 82.76C328.98 88.39 265.4 120.08 265.4 120.08L328 83.91L264.56 123.09C267.33 127.89 327.07 83.18 328.73 86.09C329.73 87.86 261.17 119.36 264.63 125.35C268.2 131.54 326.43 79.83 330.69 87.21C334.1 93.11 264.6 126.45 264.97 127.1C267.05 130.71 329.86 85.9 331.48 88.7C333.1 91.5 264.84 128.7 265.11 129.18L331.51 90.84C336.12 98.84 262.97 130.49 264.11 132.45C264.89 133.8 333.11 92.6 333.11 92.6C334.79 95.5 262.62 132.09 264.39 135.14C264.39 135.14 331.95 89.95 334.63 94.59C339.17 102.45 263.57 135.06 264.81 137.21C264.81 137.21 332.27 89.34 336.13 96.03C337.36 98.15 262.31 136.4 264.39 140.03C268.83 147.71 337.46 97.84 337.46 97.84C339.52 101.41 267.46 139.55 267.81 140.08C269.49 142.98 337.58 99.8 337.58 99.8C341.52 106.63 270.17 137.87 271.77 140.65C273.69 143.97 338.13 99.24 339.47 101.56C340.06 102.56 272.94 134.99 276.03 140.33C276.03 140.33 338.46 101.42 339.7 103.57C339.7 103.57 275.77 132.99 279.86 140.08C282.99 145.5 338.63 101.17 340.78 104.91C343.25 109.19 282.55 140.73 282.55 140.73C286.05 146.79 340.09 101.73 342.55 106.08L288.24 140.2C291.65 146.1 342.9 106 344 108C345.75 111 292.47 140.12 292.47 140.12C293.13 141.26 341.91 106.34 344.18 110.27L297 140.31C297 140.31 343.87 108.31 346 112.01C346.2 112.36 299.22 137.79 300.81 140.54C303.1 144.54 345.1 110.43 347.06 113.84C347.28 114.22 303.25 136.95 305.26 140.44C307.58 144.44 347.69 115.94 347.69 115.94C347.69 115.94 307.55 138.79 308.52 140.48C308.57 140.57 346.86 114.66 348.46 117.42C349.68 119.53 311.35 138.88 312.27 140.47C312.61 141.06 349.19 117.8 349.78 118.81C352.04 122.73 315.43 137.72 316.78 140.1L350.25 120.78C350.8 121.78 320.41 137.48 321.81 139.9C321.81 139.9 349.75 120.9 351.01 123.04C351.01 123.04 323.76 137.5 325.4 140.33C325.81 141.04 350.45 121.82 352.21 124.85C352.56 125.46 329.31 139.85 329.31 139.85C329.5 140.18 352.02 122.9 353.68 125.78C353.94 126.23 332.12 139.78 332.35 140.23C333.08 141.5 354.11 127.67 354.11 127.67C355.11 129.32 335.11 139.28 335.89 140.67C336.47 141.67 354.43 129.1 354.8 129.75C355.67 131.26 338.8 138.34 339.8 140.17C340.31 141.06 355.8 130.39 356.04 130.79C356.57 131.71 343.89 139.42 344.19 139.93C344.77 140.93 355.38 132.01 356.01 133.1C356.35 133.68 348.01 139.69 348.27 140.22C348.53 140.75 356.68 134.46 357.07 135.14C357.07 135.14 350.75 139.94 351.07 140.57C351.39 141.2 357.76 136.57 357.83 136.67C357.9 136.77 356.04 140.26 356.09 140.34C356.24 140.6 358.62 138.58 358.75 138.81C358.75 138.87 358.48 140.73 358.48 140.73C358.673 140.602 358.873 140.485 359.08 140.38" stroke="white" stroke-width="0.7" stroke-linecap="round" stroke-linejoin="round"/>
<path d="M246.21 16.0001C246.21 16.0801 247.07 15.4501 247.09 15.4901C247.48 16.1601 236.8 22.2401 237.48 23.4201C237.68 23.7701 246.39 17.3301 246.8 18.0401C246.8 18.0401 230.33 27.8501 231.22 29.3901C231.52 29.9101 247.45 19.7201 247.58 19.9501C247.58 19.9501 225.58 32.7401 226.32 34.0901C227.73 36.5301 246.54 20.5201 247.32 21.9401C248.99 24.8301 220.32 38.3901 220.82 39.3501C222.48 42.2301 245.9 21.2001 247.49 23.9501C249.32 27.1301 213.49 41.7401 215.49 45.2101C216.77 47.4201 245.73 22.9801 247.8 26.5601L212.09 49.0001C214.2 52.6501 246.66 27.8001 247.2 28.7301C247.55 29.3301 206.2 50.7301 207.93 53.7301C208.75 55.1601 247.48 29.6201 248.03 30.5801C249.94 33.8901 202.19 53.9801 204.29 57.6301C207.17 62.6301 244.75 28.0901 247.43 32.7201C249.57 36.4201 200.62 61.5101 200.95 62.0801C201.28 62.6501 245.62 30.7101 248 34.9001C251.33 40.6801 196.47 67.1901 196.47 67.1901C196.47 67.1901 244.47 32.1901 247.61 37.6601C249.26 40.5301 191.9 68.3001 193.67 71.3601C193.67 71.3601 247.25 39.3601 247.73 40.1501C250.64 45.1501 189 73.0001 190.41 75.4601C191.01 76.4601 245.3 37.7701 247.89 42.2701C248.68 43.6301 188.79 78.2701 188.79 78.2701C192.79 85.2101 247.15 44.4401 247.21 44.5401C247.91 45.7501 181.45 75.7601 185.43 82.6501C185.93 83.5101 245.32 44.7101 246.78 47.2301L182.63 86.4301C186.63 93.3601 244.32 43.4301 247.53 48.9601C247.53 48.9601 178.1 85.1701 180.53 89.4401C183.22 94.1001 247.26 50.9101 247.26 50.9101C247.57 51.4501 177.84 93.3101 177.84 93.3101C181.46 99.5801 246.46 52.7001 246.89 53.4401C246.89 53.4401 170.47 90.4401 174.67 97.6901C177.58 102.69 247.05 55.9001 247.05 55.9001C250.99 62.7201 168.46 93.1801 172.84 100.75C173.41 101.75 247.42 57.6901 247.42 57.6901C247.42 57.6901 169.42 103.05 170.5 104.9C172.02 107.53 243.73 54.7401 247.14 60.6501C250.32 66.1501 164.57 103.53 167.82 109.17C172.65 117.54 246.65 61.4601 247.6 63.1101C252.93 72.3401 165.6 109.11 167.01 111.61C169.53 115.97 242.01 55.5401 247.52 65.1301C251.03 71.2101 161.69 113.03 163.61 116.36C167.12 122.45 248.06 67.6001 248.06 67.6001C252.61 75.4701 161.75 116.26 163.06 118.5C168.06 127.09 247.06 69.9901 247.06 69.9901C247.06 69.9901 155.23 111.78 161 121.74C165 128.74 244.68 67.2101 247.37 71.8701C253.37 82.2801 156.87 121.07 159.44 125.52C165.29 135.65 243.35 68.7801 246.94 75.0001C249.67 79.7301 158.14 128.72 158.14 128.72C158.14 128.72 245 74.0001 247 77.4401C250.1 82.8101 154.72 132.18 155.24 133.08C159.24 139.99 240.82 69.0801 247.14 80.0201C251.89 88.2501 151.94 134.12 153.53 136.87C158.75 145.87 247.84 82.0701 247.99 82.3301C251.32 88.1001 149.3 131.72 153.36 138.75C159.17 148.81 243.67 76.5601 248.02 84.1001C249.59 86.8201 150.16 132.95 154.31 140.1C154.76 140.87 244.41 82.6801 246.75 86.7301C250.75 93.7301 156.8 137.33 158.35 140.01C163.79 149.43 242.35 79.9601 247.35 88.6101C252.68 97.8401 161.2 140.17 161.2 140.17C161.2 140.17 241.08 80.6701 246.87 90.7101C246.87 90.7101 165.46 139.02 165.87 139.82C165.87 139.82 246.28 91.4501 247.12 92.9101C252.24 101.78 164.12 131.54 169.4 140.64C172.4 145.9 242.4 87.3301 247.22 95.7101C249.22 99.1101 169.09 132.51 173.81 140.71C177.64 147.34 247.11 98.3901 247.11 98.3901C251.75 106.39 172.36 132.39 177.11 140.58C181.39 147.92 247.4 100 247.4 100C249.99 104.48 180.18 140.7 180.18 140.7C181.62 143.19 243.77 93.8901 248.18 101.46C251.56 107.31 182.11 136.46 184.3 140.21L247.91 103.49C249.71 106.61 185.59 135.29 188.53 140.38C191.47 145.47 246.87 106.59 246.92 106.67L193.14 140.56L247.14 109.37C247.14 109.37 197.14 138.91 198.05 140.55C199.18 142.55 247.05 112.29 247.05 112.29C250.14 117.64 202.84 140.54 202.84 140.54C205.67 145.45 245.53 112.02 247.21 114.92C249.73 119.29 204.89 136.02 207.48 140.52C209.77 144.52 244.9 113.52 247.25 117.52C249.45 121.33 212.52 140.45 212.52 140.45L247.85 120C249.47 122.81 217.12 140.44 217.12 140.44C219 143.7 245.04 120.21 246.82 123.29C246.82 123.29 220.46 137.14 222.04 139.89C222.04 139.89 246.6 123.52 247.55 125.16C248.29 126.44 224.34 140.24 224.55 140.64C224.94 141.32 246.55 127.33 246.79 127.8L228.53 140.58C229.16 141.68 247 127.92 247.86 129.42C248.86 131.14 232.66 138.42 233.48 139.88C233.58 140.05 247.66 130.99 247.96 131.52L236.61 139.84C236.76 140.09 246.89 133.21 247.19 133.73C247.66 134.55 238.72 139.27 239.19 140.09C239.42 140.49 246.99 135.59 246.99 135.59L242.99 140.08C243.07 140.22 247.15 136.94 247.47 137.49C247.54 137.61 245.64 140.4 245.69 140.49C245.74 140.58 247.86 139.05 247.94 139.19" stroke="white" stroke-width="0.7" stroke-linecap="round" stroke-linejoin="round"/>
<path d="M273.08 -0.09C273.17 -0.149257 273.263 -0.2027 273.36 -0.25C273.47 -0.06 274.22 1.39 274.22 1.39C274.31 1.54 275.65 0.57 275.65 0.57L275.31 3C275.43 3.2 279.24 0.73 279.24 0.73C279.45 1.1 277.86 4.32 277.86 4.32C278.05 4.65 283.48 1.08 283.48 1.08C283.79 1.62 278.94 5.79 279.1 6.08C279.53 6.82 286.78 1.65 286.78 1.65C287.12 2.24 280.34 6.48 280.78 7.27C281.13 7.88 289.99 0.94 290.43 1.7C290.59 2 283 8.84 283 8.84C283.4 9.53 293.85 1.29 294.41 2.25C294.71 2.77 284.41 10.07 284.41 10.07C285.25 11.53 297.69 2.37 297.71 2.39C298 2.89 285.16 10.76 285.85 11.95C285.85 11.95 301.27 2.95 301.33 3.01C302.18 4.48 287.45 11.85 287.94 12.7C288.03 12.86 302.33 2.09 303.33 3.82C303.76 4.56 288.93 13.07 289.65 14.32C290.37 15.57 306.2 3.22 306.87 4.38C307.76 5.92 291.87 15.27 292.07 15.54C292.77 16.74 309.47 3.13 310.49 4.9C310.49 4.9 291.49 15.9 292.29 17.16C292.41 17.37 312.09 5.73 312.09 5.73L294.67 18C295.67 19.77 314.19 5.84 314.57 6.51C314.95 7.18 294.98 17.4 296.22 19.51C297.46 21.62 317.46 6.68 317.7 7.11C317.7 7.11 297.23 21.53 297.28 21.64C297.52 22.05 320.93 7.64 321.06 7.91C321.36 8.44 297.37 20.37 298.97 23.14C298.97 23.14 323.83 7.44 324.41 8.45C325.16 9.75 300.01 24.45 300.01 24.45C301.21 26.53 325.8 9.56 325.8 9.56C326.45 10.68 302.42 25.88 302.42 25.88C302.42 25.88 329.42 10.17 329.42 10.26C329.72 10.77 302.22 25.47 303.3 27.34C304.3 29.02 330.3 9.72 331.16 11.25C332.88 14.25 305.3 28.12 305.3 28.12C306.23 29.72 332.7 10.39 333.53 11.82C335.14 14.6 305.63 27.89 306.63 29.62C308.63 33.09 336.25 12.15 336.41 12.43C338.06 15.29 306.11 30.54 306.74 31.64C307.74 33.4 337.74 13.2 338 13.64L308.4 32.64C308.92 33.54 339.55 10.92 341.17 13.72C341.17 13.72 308.46 31.08 310.17 34C310.17 34 342.42 11.87 343.94 14.5C345.34 16.92 311.13 33.33 312.2 35.17C312.2 35.17 343.39 12.28 345.5 15.94C345.5 15.94 310.91 35.41 312.25 37.73C314.66 41.9 347.56 14.73 348.7 16.73C349.46 18.05 313.25 37.98 313.78 38.9C313.78 38.9 347.89 14.78 349.78 18.1C351.86 21.71 315.6 39.7 315.6 39.7C316.34 40.97 352.04 18.7 352.04 18.7C354.51 22.98 313.52 37.24 316.04 41.52L355.14 18.95L318 42.72C320 46.12 356.21 20.57 356.25 20.63L318.63 44.63C320.69 48.19 357.08 17.86 359.06 21.29C361.64 25.75 317.67 41.29 320.13 45.57C320.46 46.14 360.13 20.78 360.86 22.05C360.86 22.05 319.77 42.58 321.92 46.3C324.21 50.3 360.45 18.42 362.92 22.65C363.85 24.26 321.1 43.92 323.52 48.11C323.52 48.11 365.11 22.78 365.68 23.77C366.25 24.76 322.68 47.12 324.45 50.14C324.45 50.14 365.45 22.02 367.39 25.35C368.99 28.12 324.33 49.74 325.39 51.59C325.72 52.16 368.91 23.96 370 25.84C373 31.09 325.38 50.47 326.83 52.97C326.83 52.97 369.55 23.31 371.72 27.06C373.72 30.54 325.93 49.93 328.47 54.33C329.89 56.78 373.7 27.93 373.82 28.15C374.82 29.95 328.2 55.22 329.11 56.8C331 60 375.45 28.25 376.24 29.62C379 34.4 329.54 56.31 330.46 57.9C330.84 58.56 377.25 29.6 377.81 30.56C380.37 35 330.92 58.89 331.58 60C334.66 65.33 378.63 29.83 379.93 32.08L334.21 61C334.21 61 380.82 31.62 381.89 33.47C383.33 36 333.94 62.43 334.25 63C336.68 67.2 381.55 29.75 384.12 34.21C384.12 34.21 333.03 57.83 336.32 63.54C338.41 67.16 386.14 34.14 386.42 34.62C386.42 34.62 335.16 64.33 336.21 66.16C336.66 66.94 385.68 32.38 387.94 36.3C390.41 40.57 337.94 66.91 337.94 66.91C339.78 70.1 387.73 34.33 389.39 37.21C389.59 37.55 336.32 64.65 338.59 68.57C341 72.71 389.07 33.69 391.54 38C394.01 42.31 337.1 64.48 340.17 69.8C340.17 69.8 389.87 34.8 392.59 39.54C393.76 41.54 341.35 71.64 341.35 71.64C343.35 75.18 395.35 40.44 395.35 40.44C396.07 41.68 342.58 71.74 343.16 72.73C344.37 74.83 394.16 37.24 396.77 41.73C396.77 41.73 340.32 68.42 343.77 74.34C344.55 75.68 394.97 37.48 398.13 42.96L345.06 75.42C345.06 75.42 398.44 43.42 398.97 44.29C399.41 45.05 342.04 70.78 345.69 77.1C348.32 81.66 401.1 45.1 401.1 45.1C402.78 48.02 345.43 78.64 345.93 79.52C348.31 83.64 400.1 39.52 403.87 46.07C405.69 49.22 348.46 80.7 348.46 80.7C348.46 80.7 401.62 42 405.1 48C405.1 48 346.68 80.19 348.19 82.81C351.3 88.2 405.82 45.92 407.39 48.63C407.44 48.72 349.71 84.63 349.71 84.63C353.23 90.72 408.27 50.53 408.39 50.75C411.39 56.03 351.88 85.59 351.88 85.59C355.76 92.31 409.88 52.12 409.88 52.12C409.88 52.12 350 83.71 352.33 87.71C352.33 87.71 411.15 51.14 412.28 53.1C413.07 54.46 353.83 89.1 353.83 89.1C353.83 89.1 412.47 50.7 414.44 54.1C415.64 56.17 354.33 90.66 354.64 91.21C358.12 97.21 414.64 53.63 415.89 55.85C415.89 55.85 355.31 90.76 356.48 92.78C358.48 96.17 414.09 49.62 418.38 57.04C419.07 58.23 352.44 88.95 356.38 95.71C358.38 99.24 417.17 54.82 419.68 59.17C420.58 60.74 358.83 96.52 358.83 96.52C360.47 99.46 417 55.07 420.39 61C424.65 68.38 354.32 91.75 358.39 98.86C360.81 103.05 420.66 56.96 423.24 61.42C425.24 64.86 356.67 95.09 359.65 100.25C363.34 106.63 423.38 63.45 423.38 63.45C424.02 64.56 360.29 102.19 360.29 102.19C360.29 102.19 423.56 61.19 425.5 64.54C426.28 65.89 356.97 96.48 361.41 104.18C361.46 104.27 422.27 58.72 426.74 66.46C428.3 69.17 363.38 105.1 363.38 105.1C365.07 108.03 426.28 63.01 428.78 67.34C428.78 67.34 362.69 104.51 364.27 107.25C365.69 109.71 429.38 68.39 429.93 69.34C429.93 69.34 361.74 102.78 365.21 108.79C365.21 108.79 430.06 67.08 431.91 70.28C432.08 70.58 365.8 109.02 366.37 110.01C369.69 115.76 433.13 71.47 433.13 71.47C436.53 77.36 364.96 110.54 365.93 112.2C368.11 115.97 430.36 65.11 434.65 72.53C434.65 72.53 366.11 109.93 368.27 113.67C370.63 117.76 433.68 69.72 436.35 74.36C439.93 80.56 365.82 110.48 368.92 115.85C369.92 117.53 433.19 69.19 437.33 76.36C439.76 80.57 365.22 111.77 368.67 117.74C373.15 125.51 439.44 76.88 439.44 76.88C444.32 85.34 366.7 114.34 369.65 119.46C374.18 127.31 435.88 72.29 439.75 78.99C443.36 85.24 368.95 117.61 370.88 120.99C373.41 125.37 438.33 74.42 441.63 80.14C444.23 84.65 371.2 122.14 371.55 122.79C376.31 131.03 437.76 74.26 442.22 81.99C445.14 87.05 369.71 119.99 372.32 124.51C374.74 128.7 440.21 75.37 444.52 82.83C444.52 82.83 370.52 120.06 373.96 126.08C374.67 127.31 445.22 84.26 445.51 84.77C447.11 87.55 374.24 128.69 374.24 128.69C376.32 132.29 445.24 82.53 447.48 86.4C447.48 86.4 373.48 127.52 375.08 130.29C377.08 133.81 447.82 88.29 447.82 88.29C447.82 88.29 370.73 123.29 375.7 131.93C378.27 136.38 449.28 89.45 449.28 89.45C449.28 89.45 376.22 132.65 376.56 133.24C378.17 136.04 450.13 89.47 450.69 90.44C450.69 90.44 374.61 128.44 378.32 134.83C380.06 137.67 452 92.21 452 92.21C455 97.4 373.86 129.87 378.19 137.38C380.19 140.93 449.12 85.46 453.87 93.69C456.16 97.69 375.38 131.49 379.61 138.82C382 143 450 88.45 454.2 95.78C456.97 100.58 381.37 140.22 381.37 140.22C385.59 147.52 455.88 95.58 456.58 96.8C461.51 105.34 385.29 138.56 386.16 140.07C386.16 140.07 454.29 91.58 458.26 98.45C460.5 102.32 389.74 140.39 389.74 140.39C391.53 143.49 458.03 98.23 459.21 100.28C459.88 101.44 391.4 135.83 393.98 140.28C396.76 145.1 460.15 101.39 460.44 101.91C461.57 103.91 397.96 140.32 397.96 140.32C398.46 141.19 457.88 96.6 461.83 103.44C462.68 104.92 399.77 134.74 402.97 140.27C402.97 140.27 458.97 98.67 462.97 105.62C466.06 110.97 403.8 133.67 407.41 139.92C410.41 145.05 462.25 106.06 463.2 107.71C465.01 110.85 407.33 134.65 410.64 140.37C410.64 140.37 463.64 105 465.73 108.56C468.62 113.56 413.43 140.72 413.43 140.72C414.21 142.06 466.15 110.28 466.15 110.28C468.45 114.28 415.04 137.33 416.93 140.62C416.93 140.62 462.93 106.62 466.17 112.19C467.17 113.9 422.09 139.63 422.25 139.91C422.3 140 465.94 110.31 467.83 113.59C469.26 116.06 425.83 139.97 425.83 139.97C427.31 142.53 467.22 110.72 469.54 114.73C470.54 116.4 430.32 139.87 430.32 139.87C430.32 139.87 468.24 114.1 469.92 117C471.6 119.9 431.82 138.49 433 140.53C433 140.53 469.55 115.59 471.21 118.47C472.02 119.87 435.54 136.65 437.77 140.47C440 144.29 471.53 119.11 472.33 120.47C472.33 120.47 440.73 137.22 442.39 140.1C443.39 141.91 472.8 122.54 472.8 122.54C472.8 122.54 444.88 138.09 446.05 140.12C447.22 142.15 473.25 119.92 475.19 123.29C475.92 124.56 448.43 137.6 450.01 140.29C450.74 141.56 475.22 125.73 475.22 125.73C475.43 126.1 454.73 140.15 454.73 140.15C455.51 141.5 476.03 127.85 476.03 127.85C476.03 127.85 458.15 138.85 459.09 140.5C459.18 140.65 477.64 127.81 478.49 129.3C478.67 129.61 464.39 139.11 464.88 139.97L479.46 131.55C480.22 132.87 469.38 139.79 469.46 139.92C469.54 140.05 479.46 133.09 479.91 133.92C480.2 134.42 472.45 138.92 472.97 139.85C473.17 140.2 480.97 135.13 481.05 135.19C481.21 135.47 476.41 140.19 476.5 140.38C476.83 140.95 482.41 136.97 482.41 136.97C482.58 137.27 480.7 139.43 480.88 139.75C481.06 140.07 482.06 138.93 482.12 139.04L483.25 140.13C483.25 140.13 483.35 140.05 483.36 140.07" stroke="white" stroke-width="0.7" stroke-linecap="round" stroke-linejoin="round"/>
<path d="M121.38 38.0899C121.38 38.0899 136.47 27.1399 137.44 28.8199C137.69 29.2499 104.09 49.9599 104.09 49.9599C104.09 49.9599 154 17.2499 155.69 20.1599C160.03 27.6699 93.6095 57.9299 93.6895 58.1599C97.2095 64.2599 164.16 9.7799 167.49 15.5499C170.98 21.5499 83.3695 63.3599 84.8095 65.8499C84.8095 65.8499 176.56 7.8499 178.74 11.6199C183.64 19.9999 73.2795 66.8499 76.9395 73.2099C82.3695 82.5999 189.4 7.8299 189.6 8.1699C194.51 16.6699 62.5995 65.4299 70.7295 79.5299C75.4395 87.6799 193.59 -0.790096 197.65 6.2499C203.65 16.7099 63.5695 81.2499 65.7395 85.0399C67.5795 88.2299 205.54 4.3299 205.54 4.3299C212.06 15.6299 59.8995 83.9599 62.5895 88.6299C65.9995 94.5899 208.76 4.2299 208.76 4.2299C208.91 4.4799 49.7595 78.6199 58.3895 93.5099C58.3895 93.5099 209.39 -7.3001 215.29 2.9199C215.29 2.9199 45.4095 80.5899 55.3495 97.8099C56.2195 99.3299 221.11 2.1099 221.11 2.1099C221.11 2.1099 47.8495 94.4699 52.3195 102.21C52.3195 102.21 224.93 -4.1701 227.84 0.869904L47.8395 107.47C47.8395 107.47 230.37 -2.0001 232.15 0.999904C237.27 9.9199 34.7095 93.6699 44.9995 111.53C45.4195 112.25 232.72 -7.2701 237.23 0.529904C249.23 21.3299 43.1295 115.22 43.1295 115.22C48.9995 125.34 224.19 -5.0801 231 6.7699C237.81 18.6199 27.1195 98.4299 39.4695 119.82C40.9995 122.4 223.27 13.7099 223.27 13.7099C235.09 34.1799 34.6695 117.47 37.8495 123C46.8995 138.66 206.64 3.35991 216.24 19.9999C221.12 28.4599 34.6695 123.16 36.2395 125.89C41.6795 135.29 199 5.3099 210.51 25.2599C220.26 42.1399 33.6895 130 33.6895 130C40.5195 141.83 192.82 11.7699 204.23 31.5399L32.3195 132.78C33.9995 135.62 198.56 31.6099 200.81 35.4999C211.35 53.7599 27.8095 128.74 31.5395 135.23C41.6295 152.7 197.07 39.6699 197.07 39.6699C205.95 55.0499 21.1895 124.33 29.4695 138.67C36.5695 151 190 41.4099 192 44.8199C192 44.8199 24.9995 131.34 30.0895 140.1L189.09 48.3199C195.71 59.7899 30.0895 133.76 33.8195 140.15C38.9195 148.98 179.76 42.4299 185.59 52.5299C189.23 58.8299 33.9395 132.64 38.1495 139.94C38.1495 139.94 179.06 51.4999 182.15 56.8099C187.98 66.9099 40.8695 140.15 40.8695 140.15C44.6895 146.77 179.41 60.1499 179.41 60.1499C180 61.1899 45.7495 140 45.7495 140L175.15 65.2899C178.03 70.2899 43.0495 129.45 49.2895 140.29C49.2895 140.29 169.03 64.4799 171.92 69.4899C173.36 71.9899 49.3195 131.81 54.1595 140.2C61.5895 153 169.55 73.5599 169.55 73.5599L57.5495 140.44C57.5495 140.44 165.42 76.7699 166 77.8099C166 77.8099 58.8595 135.98 61.4795 140.53L163 81.9299C165.1 85.5599 63.4895 135.08 66.5995 140.46C70.3095 146.89 156.14 78.3099 160.67 86.1499C164.18 92.2299 69.4695 136.76 71.5095 140.3C72.0695 141.25 158.7 89.9999 158.7 89.9999C158.7 89.9999 75.4795 137.82 76.6995 139.89C80.5195 146.52 155.78 94.2299 155.78 94.2299C156.45 95.3899 77.4495 135.58 80.3695 140.64C81.8595 143.22 148.87 92.5599 152.56 98.9599C156.92 106.51 83.1595 137.57 84.6195 140.1C84.6195 140.1 149.83 99.8399 150.96 101.8C154.3 107.58 87.8795 138.21 88.8695 139.92C91.2795 144.09 147.56 102.28 149.19 105.1C151.95 109.88 93.0095 140.1 93.0095 140.1C96.0095 145.29 147.14 108.85 147.14 108.85L97.7395 140C98.3495 141.06 145.33 111.56 145.74 112.29C148.12 116.41 99.8795 136.98 101.83 140.35C103.51 143.26 141.59 114.35 142.92 116.63C142.92 116.63 106.63 139.74 106.85 140.12C106.85 140.21 139.33 117.72 140.91 120.46L110.08 140.46C111.81 143.46 139.66 121.83 140.33 122.99C140.86 123.91 114.85 138.12 115.85 139.86C117.05 141.94 136.37 125.03 137.66 127.27C137.66 127.27 118.48 139.27 119.03 140.18C119.89 141.66 134.95 128.67 135.95 130.41C135.95 130.41 122.24 139.74 122.66 140.41C123.08 141.08 134.66 131.62 135.46 133.02L126.76 140.02C126.96 140.36 133.95 135.08 134.29 135.67C134.41 135.88 130.47 139.52 130.72 139.96C130.82 140.14 132.57 138.86 132.59 138.88" stroke="white" stroke-width="0.7" stroke-linecap="round" stroke-linejoin="round"/>
</g>
<defs>
<clipPath id="clip0">
<rect width="512" height="512" fill="white"/>
</clipPath>
</defs>
</svg>
