<svg width="512" height="512" viewBox="0 0 512 512" fill="none" xmlns="http://www.w3.org/2000/svg">
<path d="M256 24C383.9 24 488 128.1 488 256C488 383.9 383.9 488 256 488C128.1 488 24.06 383.9 24.06 256C24.06 128.1 128.1 24 256 24ZM0 256C0 397.16 114.84 512 256 512C397.16 512 512 397.16 512 256C512 114.84 397.16 0 256 0C114.84 0 0 114.84 0 256Z" fill="#800000"/>
<path d="M382 172.72L339.29 130.01L256 213.29L172.72 130.01L130.01 172.72L213.29 256L130.01 339.28L172.72 382L256 298.71L339.29 381.99L382 339.28L298.71 256L382 172.72Z" fill="#800000"/>
</svg>
